<?xml version="1.0" encoding="utf-8"?>
<!-- Generator: Adobe Illustrator 18.1.0, SVG Export Plug-In . SVG Version: 6.00 Build 0)  -->
<!DOCTYPE svg PUBLIC "-//W3C//DTD SVG 1.1//EN" "http://www.w3.org/Graphics/SVG/1.1/DTD/svg11.dtd">
<svg version="1.1" id="Layer_1" xmlns="http://www.w3.org/2000/svg" xmlns:xlink="http://www.w3.org/1999/xlink" x="0px" y="0px"
	 viewBox="0 0 841.9 595.3" enable-background="new 0 0 841.9 595.3" xml:space="preserve">
<g>
	<path fill="none" d="M322.6,355.1c-0.1,0.1-0.1,0.3-0.2,0.4c-6.5,18.3-15.4,35.1-25.3,48.5c-1,1.3-1.9,2.6-2.9,3.8
		c1-1.2,2-2.5,2.9-3.8h305.1v-48.5H322.5C322.5,355.3,322.6,355.2,322.6,355.1z"/>
	<path fill="none" d="M396.3,577.1c-2.6,0.7-5.1,1.3-7.7,2C391.2,578.5,393.7,577.8,396.3,577.1z"/>
	<rect x="398.8" y="566.8" fill="none" width="26.8" height="0"/>
	<path fill="none" d="M293.7,408.5c-2.3,2.9-4.7,5.6-7.1,8.1C289,414.1,291.4,411.4,293.7,408.5z"/>
	<path fill="none" d="M334.7,305.6v-2.3c0-0.8,0.1-1.6,0.1-2.4c0,0.8,0,1.5-0.1,2.4L334.7,305.6l4,3.5c0.6,0.7,1.7,2.7,2.5,5.8
		c-0.8-3.1-2-5.1-2.5-5.8L334.7,305.6z"/>
	<path fill="none" d="M419.9,570.3c-4,1.3-8.1,2.5-12.2,3.7h0c0,0,0,0,0,0h194.5v-7.2H425.6l0.1,1.6L419.9,570.3z"/>
	<path fill="none" d="M181.4,460.8c8.4-3.1,14.1-5.9,18.7-9.2c6.4-4.5,9.7-9.5,9.7-15.5l0.1-6.6l0.1-2l0.4-8.1l-1.6-1.6
		c-9.9-9.8-19.4-23.4-27.4-39.2L181.4,460.8c-0.2,0.1-0.4,0.2-0.7,0.2C181,461,181.2,460.9,181.4,460.8z"/>
	<path fill="none" d="M246.7,595.3C246.7,595.3,246.7,595.3,246.7,595.3c27.9,0,55.2-1.7,81.4-5.1
		C301.9,593.5,274.6,595.3,246.7,595.3z"/>
	<path fill="none" d="M170.7,353.2l-0.9-2.5l0,0L170.7,353.2c2.1,6.1,4.5,11.9,7,17.6C175.2,365.1,172.8,359.2,170.7,353.2z"/>
	<rect x="243.8" y="148" fill="none" width="358.5" height="48.5"/>
	<path fill="none" d="M179.1,237.6C179.1,237.7,179,237.7,179.1,237.6C179,237.7,179.1,237.7,179.1,237.6z"/>
	<rect x="550.9" y="461.5" fill="none" width="51.4" height="48.5"/>
	<path fill="none" d="M334.8,297.5c0,0.8,0,1.6,0,2.5h267.5v-48.5H323.9c-0.9-1.8-1.9-3.6-2.9-5.3c1,1.7,2,3.5,2.9,5.3
		C330.8,265.1,334.8,280.8,334.8,297.5z"/>
	<path fill="none" d="M175.7,297.2c0,1.4,0,3,0.1,4.8l0.3,11.1l-7.2,5.2c-0.1,0.6-0.3,1.6-0.3,2.9c0,1.9,0.1,3.8,0.7,5.5
		c0.9,3.9,2.3,6.2,3.2,7.2l8.9,2.8l1.4,0.4l3.8,10.8c8.4,24,20.8,45.4,34.2,58.5l6.6,6.6l-0.9,16.9l-0.1,2.9v3.2
		c0,6.2-23.8,35-27.3,36.7c-4.5,2.3-8.2,1.4-14.9,3.8c-0.9,0.3-1.9,0.6-2.8,1c-4.9,1.6-10.1,3.2-15.6,4.8
		c-9.8,2.8-20.4,5.6-31.3,8.5l-18.6,4.9c-11,2.9-19.4,13-24.9,30.1c-4,11.1-5.4,22.8-6,31c24.9,7.7,52.1,13.5,80.8,17.3
		c5.2,0.7,10.4,1.3,15.6,1.8c21.2,2.2,43,3.4,65.3,3.4c48.7,0,95.2-5.4,136.7-15.6c8.5-2.1,16.9-4.4,25-6.9
		c-0.1-1.7-0.3-3.5-0.5-5.4c-0.8-7.5-2.4-16.6-5.1-25.4c-5.5-17-13.9-27.2-24.7-29.9c-7.7-2-14.9-4-21.8-5.8
		c-17-4.5-32.7-8.5-45.9-13.3c-10.3-3.6-42.5-17.6-42.8-40.6v-5.2l-0.7-11.7l-0.3-6.1l6.8-6.6c0.9-0.9,1.8-1.8,2.7-2.8
		c11-11.9,21.3-29,28.9-48.5c1-2.4,1.9-4.9,2.8-7.4l2.9-8.1l0.9-2.4l9.1-2.3c2.5-3,3.5-5.5,4.2-8.1c0.4-1.7,0.6-3.8,0.6-5.5
		c0-1.4-0.1-2.5-0.3-3.2l-4.3-3.1l-2.9-2.1l0.3-11c0-0.8,0.1-1.6,0.1-2.3c0-1,0-1.9,0-2.8c0-17-4.8-32.8-13-45.7
		c-3.7-5.8-8-11.1-13-15.6c-12.1-11.1-27.5-17.8-44.2-17.9l-0.9,0.1l-2-0.1c-28.3,0.3-53.1,20.1-63.9,48.1
		C177.7,275.7,175.7,286.2,175.7,297.2z"/>
	<path fill="none" d="M170.4,251.5c2.5-4.8,5.3-9.3,8.4-13.6C175.7,242.2,172.9,246.7,170.4,251.5z"/>
	<path fill="#B9C1D0" d="M165.8,0v261.9c0,0,0,0,0,0v0c-4.1,11-6.4,23-6.4,35.6c0,1.7,0,3.6,0.1,5.5v2.5l-4,3.5
		c-1.7,2.3-3.4,7-3.3,12.6c0,3,0.5,6.1,1.2,9.1c1.4,6.1,3.9,10.3,5.6,12.6c1.7,2.5,3.9,4.5,5.6,5.5l1.2,0.4v0l0,0V466c0,0,0,0,0,0
		c-10.8,3.3-23.1,6.5-36.1,9.9l-18.2,4.8c-16.8,4.3-28.9,18.1-36.3,40.6c-4.9,14.9-6.4,30.5-6.8,40.9l-0.3,5.9l5.8,1.9
		c28,9.3,59,16.1,91.9,20.3c25.4,3.2,52,4.9,79.1,5c-27.1-0.1-53.7-1.8-79.1-5v5h80.9c0,0,0,0,0,0c27.9,0,55.2-1.7,81.4-5.1
		c-26.2,3.3-53.5,5.1-81.4,5.1h130.9v-13.6c0,0,0,0,0,0c1.9-0.4,3.9-0.9,5.8-1.3v9.1h234.4v-38.1H424.7c0.3,3.4,0.5,6.5,0.6,9.3
		c-0.1-2.8-0.3-5.9-0.6-9.3c-0.9-9-2.6-19.5-5.9-29.8c-7.2-22.6-19.4-36.2-36-40.5c-7.7-2-14.9-3.9-22.1-5.8
		c-28.5-7.6-53.1-13.9-66.8-23.3c-6.5-4.5-9.7-9.5-9.7-15.3l-0.7-16.9l0.3-0.3l0,0h333.9V340H337.4c-0.6,1.1-1.2,2.1-1.8,3
		c0.7-1,1.3-1.9,1.8-3c1.5-2.7,2.6-5.7,3.4-8.9c0.8-3.2,1.2-6.3,1.2-9c0.1-2.6-0.2-4.9-0.6-6.7c0,0,0,0,0,0h276.3v-79.5H314
		c0,0,0,0,0,0c-7.7-9.9-17.2-18-28-23.8h331.7v-79.6H228.3v72.1v7.5h0v-7.5c-18.4,4.4-34.8,15.2-46.9,30.1V15.5h479.1v564.3h-37
		v15.5h52.6V0H165.8z M181.4,460.8v-82.2c7.9,15.8,17.4,29.5,27.4,39.2l1.6,1.6l-0.4,8.1l-0.1,2l-0.1,6.6c0,6-3.3,11-9.7,15.5
		C195.5,454.9,189.8,457.7,181.4,460.8c-0.2,0.1-0.4,0.2-0.7,0.2C181,461,181.2,460.9,181.4,460.8z M169.8,350.7L169.8,350.7
		l0.9,2.5c2.1,6.1,4.5,11.9,7,17.6c-2.6-5.7-4.9-11.6-7-17.6L169.8,350.7z M425.6,566.8L425.6,566.8l176.6,0v7.2H407.7c0,0,0,0,0,0
		h0c4.1-1.2,8.2-2.4,12.2-3.7l5.8-1.9L425.6,566.8l-26.8,0v0H425.6z M388.6,579.1c2.6-0.6,5.2-1.3,7.7-2
		C393.7,577.8,391.2,578.5,388.6,579.1z M602.3,355.5V404H297.2c-1,1.3-1.9,2.6-2.9,3.8c1-1.2,1.9-2.5,2.9-3.8
		c9.9-13.4,18.8-30.2,25.3-48.5c0.1-0.1,0.1-0.3,0.2-0.4c-0.1,0.1-0.1,0.3-0.2,0.4H602.3z M286.6,416.6c2.4-2.5,4.7-5.2,7.1-8.1
		C291.4,411.4,289,414.1,286.6,416.6z M338.7,309.1l-4-3.5v-2.3c0-0.8,0.1-1.6,0.1-2.4c0,0.8,0,1.5-0.1,2.4v2.3L338.7,309.1
		c0.6,0.7,1.7,2.7,2.5,5.8C340.4,311.8,339.2,309.8,338.7,309.1z M323.9,251.5h278.4V300H334.8c0-0.9,0-1.7,0-2.5
		C334.8,280.8,330.8,265.1,323.9,251.5c-0.9-1.8-1.9-3.6-2.9-5.3C322,247.9,323,249.7,323.9,251.5z M243.8,148h358.5v48.5H243.8V148
		z M245.3,218l2,0.1l0.9-0.1c16.8,0.1,32.2,6.8,44.2,17.9c4.9,4.5,9.3,9.8,13,15.6c8.2,12.9,13,28.7,13,45.7c0,0.9,0,1.8,0,2.8
		c0,0.7,0,1.5-0.1,2.3l-0.3,11l2.9,2.1l4.3,3.1c0.2,0.7,0.3,1.8,0.3,3.2c0,1.7-0.2,3.8-0.6,5.5c-0.7,2.6-1.7,5.1-4.2,8.1l-9.1,2.3
		l-0.9,2.4l-2.9,8.1c-0.9,2.5-1.8,5-2.8,7.4c-7.6,19.5-17.9,36.6-28.9,48.5c-0.9,1-1.8,1.9-2.7,2.8l-6.8,6.6l0.3,6.1l0.7,11.7v5.2
		c0.3,23,32.5,37,42.8,40.6c13.2,4.8,28.9,8.8,45.9,13.3c6.9,1.8,14.1,3.8,21.8,5.8c10.8,2.7,19.2,12.9,24.7,29.9
		c2.7,8.8,4.3,17.9,5.1,25.4c0.2,1.9,0.4,3.7,0.5,5.4c-8.1,2.5-16.4,4.8-25,6.9c-41.5,10.2-88.1,15.6-136.7,15.6
		c-22.3,0-44.1-1.1-65.3-3.4c-5.2-0.5-10.4-1.2-15.6-1.8c-28.7-3.8-55.9-9.6-80.8-17.3c0.6-8.2,2-19.9,6-31
		c5.5-17.1,13.9-27.2,24.9-30.1l18.6-4.9c10.9-2.9,21.5-5.7,31.3-8.5c5.5-1.6,10.7-3.2,15.6-4.8c0.9-0.3,1.9-0.6,2.8-1
		c6.7-2.4,10.4-1.5,14.9-3.8c3.5-1.7,27.3-30.5,27.3-36.7v-3.2l0.1-2.9l0.9-16.9l-6.6-6.6c-13.4-13.1-25.8-34.5-34.2-58.5l-3.8-10.8
		l-1.4-0.4l-8.9-2.8c-0.9-1-2.3-3.3-3.2-7.2c-0.6-1.7-0.7-3.6-0.7-5.5c0-1.3,0.2-2.3,0.3-2.9l7.2-5.2l-0.3-11.1
		c-0.1-1.8-0.1-3.4-0.1-4.8c0-11,2-21.5,5.7-31.1C192.2,238.1,216.9,218.3,245.3,218z M170.4,251.5c2.5-4.8,5.3-9.3,8.4-13.6
		C175.7,242.2,172.9,246.7,170.4,251.5z M179,237.7C179,237.7,179.1,237.7,179,237.7C179.1,237.7,179,237.7,179,237.7z"/>
	<path fill="#B9C1D0" d="M617.7,525.6V446h-82.5v79.6H617.7z M550.9,461.5h51.4V510h-51.4V461.5z"/>
</g>
</svg>
