<?xml version="1.0" encoding="utf-8"?>
<!-- Generator: Adobe Illustrator 18.1.0, SVG Export Plug-In . SVG Version: 6.00 Build 0)  -->
<!DOCTYPE svg PUBLIC "-//W3C//DTD SVG 1.1//EN" "http://www.w3.org/Graphics/SVG/1.1/DTD/svg11.dtd">
<svg version="1.1" id="Layer_1" xmlns="http://www.w3.org/2000/svg" xmlns:xlink="http://www.w3.org/1999/xlink" x="0px" y="0px"
	 viewBox="0 0 412 412" enable-background="new 0 0 412 412" xml:space="preserve">
<g id="calculator-4-icon_1_">
	<path d="M332.6,412H79.4C35.6,412,0,376.4,0,332.6V79.4C0,35.6,35.6,0,79.4,0h253.2C376.4,0,412,35.6,412,79.4v253.2
		C412,376.4,376.4,412,332.6,412z M79.4,13.9c-36.1,0-65.5,29.4-65.5,65.5v253.2c0,36.1,29.4,65.5,65.5,65.5h253.2
		c36.1,0,65.5-29.4,65.5-65.5V79.4c0-36.1-29.4-65.5-65.5-65.5H79.4z M327.7,373.3H84.3c-25.1,0-45.6-20.5-45.6-45.6v-45.9H72v-15.1
		H38.7V145.9h150.2v-15.1H38.7V84.2c0-25.1,20.5-45.6,45.6-45.6h243.5c25.1,0,45.6,20.5,45.6,45.6v46.6h-30.4v15.1h30.4v120.8h-87.4
		v15.1h87.4v45.9C373.3,352.9,352.9,373.3,327.7,373.3z M52.5,295.7v32c0,17.5,14.2,31.7,31.7,31.7h243.5
		c17.5,0,31.7-14.2,31.7-31.7v-32H272v-42.9h87.4v-93H329v-42.9h30.4V84.2c0-17.5-14.2-31.7-31.7-31.7H84.3
		c-17.5,0-31.7,14.2-31.7,31.7v32.7h150.2v42.9H52.5v93h33.3v42.9H52.5z M236.9,322.3c-13.2,0-23.9-10.7-23.9-23.8v-48.3
		c0-13.2,10.7-23.9,23.9-23.9s23.9,10.7,23.9,23.9v48.3C260.8,311.6,250.1,322.3,236.9,322.3z M236.9,240.1c-5.5,0-10,4.5-10,10
		v48.3c0,5.5,4.5,10,10,10s10-4.5,10-10v-48.3C246.9,244.6,242.4,240.1,236.9,240.1z M178.9,322.3c-13.1,0-23.8-10.7-23.8-23.8
		v-48.3c0-13.2,10.7-23.9,23.8-23.9c13.2,0,23.9,10.7,23.9,23.9v48.3C202.8,311.6,192.1,322.3,178.9,322.3z M178.9,240.1
		c-5.5,0-10,4.5-10,10v48.3c0,5.5,4.5,10,10,10c5.5,0,10-4.5,10-10v-48.3C188.9,244.6,184.4,240.1,178.9,240.1z M121,322.3
		c-13.1,0-23.8-10.7-23.8-23.8v-48.3c0-13.2,10.7-23.9,23.8-23.9c13.2,0,23.9,10.7,23.9,23.9v48.3
		C144.8,311.6,134.1,322.3,121,322.3z M121,240.1c-5.5,0-10,4.5-10,10v48.3c0,5.5,4.5,10,10,10c5.5,0,10-4.5,10-10v-48.3
		C130.9,244.6,126.5,240.1,121,240.1z M294.9,186.4c-13.2,0-23.9-10.7-23.9-23.8v-48.3c0-13.2,10.7-23.9,23.9-23.9
		c13.2,0,23.9,10.7,23.9,23.9v48.3C318.7,175.7,308,186.4,294.9,186.4z M294.9,104.2c-5.5,0-10,4.5-10,10v48.3c0,5.5,4.5,10,10,10
		s10-4.5,10-10v-48.3C304.9,108.7,300.4,104.2,294.9,104.2z M236.9,186.4c-13.2,0-23.9-10.7-23.9-23.8v-48.3
		c0-13.2,10.7-23.9,23.9-23.9s23.9,10.7,23.9,23.9v48.3C260.8,175.7,250.1,186.4,236.9,186.4z M236.9,104.2c-5.5,0-10,4.5-10,10
		v48.3c0,5.5,4.5,10,10,10s10-4.5,10-10v-48.3C246.9,108.7,242.4,104.2,236.9,104.2z"/>
</g>
</svg>
