<?xml version="1.0" encoding="utf-8"?>
<!-- Generator: Adobe Illustrator 18.1.0, SVG Export Plug-In . SVG Version: 6.00 Build 0)  -->
<!DOCTYPE svg PUBLIC "-//W3C//DTD SVG 1.1//EN" "http://www.w3.org/Graphics/SVG/1.1/DTD/svg11.dtd">
<svg version="1.1" id="Layer_1" xmlns="http://www.w3.org/2000/svg" xmlns:xlink="http://www.w3.org/1999/xlink" x="0px" y="0px"
	 viewBox="0 0 841.9 595.3" enable-background="new 0 0 841.9 595.3" xml:space="preserve">
<g id="calculator-4-icon_1_">
	<path fill="#B9C1D0" d="M603.9,595.3H238c-63.3,0-114.7-51.4-114.7-114.7V114.7C123.3,51.4,174.7,0,238,0h365.8
		c63.3,0,114.7,51.4,114.7,114.7v365.8C718.6,543.8,667.1,595.3,603.9,595.3z M238,20.1c-52.2,0-94.6,42.5-94.6,94.6v365.8
		c0,52.2,42.5,94.6,94.6,94.6h365.8c52.2,0,94.6-42.5,94.6-94.6V114.7c0-52.2-42.5-94.6-94.6-94.6C603.9,20.1,238,20.1,238,20.1z
		 M596.8,539.4H245.1c-36.3,0-65.9-29.6-65.9-65.9v-66.3h48.1v-21.8h-48.1V210.8h217V189h-217v-67.3c0-36.3,29.6-65.9,65.9-65.9
		h351.8c36.3,0,65.9,29.6,65.9,65.9V189h-43.9v21.8h43.9v174.5H536.5v21.8h126.3v66.3C662.7,509.9,633.2,539.4,596.8,539.4z
		 M199.2,427.2v46.2c0,25.3,20.5,45.8,45.8,45.8h351.8c25.3,0,45.8-20.5,45.8-45.8v-46.2H516.3v-62h126.3V230.9h-43.9v-62h43.9
		v-47.2c0-25.3-20.5-45.8-45.8-45.8H245.1c-25.3,0-45.8,20.5-45.8,45.8v47.2h217v62H199.2v134.4h48.1v62L199.2,427.2L199.2,427.2z
		 M465.6,465.7c-19.1,0-34.5-15.5-34.5-34.4v-69.8c0-19.1,15.5-34.5,34.5-34.5c19.1,0,34.5,15.5,34.5,34.5v69.8
		C500.1,450.2,484.7,465.7,465.6,465.7z M465.6,346.9c-7.9,0-14.4,6.5-14.4,14.4v69.8c0,7.9,6.5,14.4,14.4,14.4
		c7.9,0,14.4-6.5,14.4-14.4v-69.8C480,353.4,473.5,346.9,465.6,346.9z M381.8,465.7c-18.9,0-34.4-15.5-34.4-34.4v-69.8
		c0-19.1,15.5-34.5,34.4-34.5c19.1,0,34.5,15.5,34.5,34.5v69.8C416.3,450.2,400.9,465.7,381.8,465.7z M381.8,346.9
		c-7.9,0-14.4,6.5-14.4,14.4v69.8c0,7.9,6.5,14.4,14.4,14.4c7.9,0,14.4-6.5,14.4-14.4v-69.8C396.2,353.4,389.7,346.9,381.8,346.9z
		 M298.1,465.7c-18.9,0-34.4-15.5-34.4-34.4v-69.8c0-19.1,15.5-34.5,34.4-34.5c19.1,0,34.5,15.5,34.5,34.5v69.8
		C332.5,450.2,317.1,465.7,298.1,465.7z M298.1,346.9c-7.9,0-14.4,6.5-14.4,14.4v69.8c0,7.9,6.5,14.4,14.4,14.4
		c7.9,0,14.4-6.5,14.4-14.4v-69.8C312.4,353.4,306.1,346.9,298.1,346.9z M549.4,269.3c-19.1,0-34.5-15.5-34.5-34.4v-69.8
		c0-19.1,15.5-34.5,34.5-34.5s34.5,15.5,34.5,34.5v69.8C583.8,253.9,568.3,269.3,549.4,269.3z M549.4,150.6
		c-7.9,0-14.4,6.5-14.4,14.4v69.8c0,7.9,6.5,14.4,14.4,14.4s14.4-6.5,14.4-14.4V165C563.8,157.1,557.3,150.6,549.4,150.6z
		 M465.6,269.3c-19.1,0-34.5-15.5-34.5-34.4v-69.8c0-19.1,15.5-34.5,34.5-34.5c19.1,0,34.5,15.5,34.5,34.5v69.8
		C500.1,253.9,484.7,269.3,465.6,269.3z M465.6,150.6c-7.9,0-14.4,6.5-14.4,14.4v69.8c0,7.9,6.5,14.4,14.4,14.4
		c7.9,0,14.4-6.5,14.4-14.4V165C480,157.1,473.5,150.6,465.6,150.6z"/>
</g>
</svg>
