<?xml version="1.0" encoding="utf-8"?>
<!-- Generator: Adobe Illustrator 18.1.0, SVG Export Plug-In . SVG Version: 6.00 Build 0)  -->
<!DOCTYPE svg PUBLIC "-//W3C//DTD SVG 1.1//EN" "http://www.w3.org/Graphics/SVG/1.1/DTD/svg11.dtd">
<svg version="1.1" id="Layer_1" xmlns="http://www.w3.org/2000/svg" xmlns:xlink="http://www.w3.org/1999/xlink" x="0px" y="0px"
	 viewBox="0 0 841.9 595.3" enable-background="new 0 0 841.9 595.3" xml:space="preserve">
<g>
	<g>
		<g>
			<polygon fill="#B9C1D0" points="412.3,579.8 412.3,595.3 200.6,595.3 200.6,553.7 204.2,578.7 216.1,577.1 216.1,579.8 			"/>
			<polygon fill="#B9C1D0" points="710.8,0 710.8,595.3 658.2,595.3 658.2,579.8 695.3,579.8 695.3,15.5 216.1,15.5 216.1,147.5 
				200.6,149.8 200.6,0 			"/>
		</g>
	</g>
	<g>
		<g>
			<path fill="#B9C1D0" d="M431.9,132.5l2.2,15.5H637v48.5H441.2l2.2,15.6h209.1v-79.6H431.9z M263,132.5v8.2l57.5-8.2H263z"/>
		</g>
	</g>
	<g>
		<g>
			<path fill="#B9C1D0" d="M446.8,235.9l2.2,15.5h188V300H456.1l2.2,15.5h194.2v-79.6H446.8V235.9z"/>
		</g>
	</g>
	<g>
		<g>
			<path fill="#B9C1D0" d="M461.7,340l2.3,15.5H637V404h-166l2.2,15.5h179.3v-79.6H461.7V340z"/>
		</g>
	</g>
	<g>
		<g>
			<path fill="#B9C1D0" d="M418.1,551.4v38.1h234.4v-38.1H418.1z M637,574H433.5v-7.2H637V574z"/>
		</g>
	</g>
	<g>
		<g>
			<path fill="#B9C1D0" d="M569.9,446v79.6h82.5V446H569.9z M637,510h-51.4v-48.5H637V510z"/>
		</g>
	</g>
</g>
<g>
	<path fill="#B9C1D0" d="M487.4,419.4l-2.2-15.5l-6.9-48.5l-2.2-15.5l-3.5-24.6l-2.3-15.5l-6.9-48.5l-2.2-15.5l-3.5-23.8l-2.2-15.6
		l-6.9-48.5l-2.2-15.5l-4.6-31.8l-225.8,32.5l-15.5,2.2l-73,10.5l64.6,448.8l8.4-1.2l95.5-13.7l121.9-17.6l75.3-10.8l12.9-1.9
		L487.4,419.4z M216.1,577.1l-11.8,1.7l-3.6-25l-56.9-395.9l56.9-8.2l15.5-2.2l47-6.8l57.5-8.2l109.1-15.7l2.3,15.7l2.2,15.5
		l7.1,48.5l2.2,15.6l3.5,23.8l2.2,15.5l6.9,48.5l2.2,15.5l3.5,24.6l2.3,15.5l6.9,48.5l2.2,15.5l16.9,118L216.1,577.1z"/>
</g>
<g>
	<path fill="#B9C1D0" d="M327.6,536.8c-56.1,0-104.5-42-112.4-97.7c-9-62.1,34.2-120.1,96.4-129c62.6-9,120.1,35.5,128.9,96.5
		c9,62.1-34.2,120.1-96.4,129C338.4,536.3,333,536.8,327.6,536.8z M327.9,323.1c-4.8,0-9.5,0.3-14.3,1c-54.3,7.8-92.2,58.5-84.4,113
		c7.7,53.5,57.9,92.3,112.8,84.5c54.3-7.8,92.2-58.5,84.4-113C419.4,359.8,377,323.1,327.9,323.1z"/>
</g>
<g>
	<path fill="#B9C1D0" d="M295.2,499.1L276,365.1l5.6-1.9c10-3.2,22.8-6.1,38.3-8.2c19.1-2.7,32.8-0.9,43.5,5.3
		c11.1,6.5,18.6,18.1,20.7,31.6c2,13.9-1,26.7-8.5,36.1c-9,11.3-23.6,18.5-42.5,21.2l-2.5,0.3l6.2,43.3L295.2,499.1z M291.8,374.9
		L307.4,483l13.4-1.9l-6.5-44.9l8.1-0.1c2.3,0,5.3-0.3,8.7-0.7c15.3-2.2,26.9-7.8,33.4-16c5.1-6.5,7.1-15.2,5.6-25.3
		c-1.3-9.2-6.4-17-13.7-21.4c-7.8-4.6-19.2-5.8-34.4-3.6C310.1,370.7,300,372.8,291.8,374.9z M321.1,428.8L321.1,428.8l-2.5-0.1
		l-5.6-0.4l-6.8-47.1l4.9-2.2c3-1.3,7.8-2.6,13.1-3.3c18.1-2.6,30.1,5.6,32.2,21c2.3,16.5-8.2,28.8-27,31.5
		C326.3,428.5,323.6,428.8,321.1,428.8z M322,390.5l3.5,23.8l2.3-0.3c7.7-1.2,16.5-4.6,15-15.5c-0.6-4.5-4-10.7-16.2-9
		C324.7,390,323.1,390.3,322,390.5z"/>
</g>
</svg>
