<?xml version="1.0" encoding="utf-8"?>
<!-- Generator: Adobe Illustrator 18.1.0, SVG Export Plug-In . SVG Version: 6.00 Build 0)  -->
<!DOCTYPE svg PUBLIC "-//W3C//DTD SVG 1.1//EN" "http://www.w3.org/Graphics/SVG/1.1/DTD/svg11.dtd">
<svg version="1.1" id="Layer_1" xmlns="http://www.w3.org/2000/svg" xmlns:xlink="http://www.w3.org/1999/xlink" x="0px" y="0px"
	 viewBox="0 0 412 412" enable-background="new 0 0 412 412" xml:space="preserve">
<g>
	<g>
		<g>
			<polygon points="200,401.3 200,412 53.5,412 53.5,383.2 56,400.5 64.2,399.4 64.2,401.3 			"/>
			<polygon points="406.6,0 406.6,412 370.2,412 370.2,401.3 395.9,401.3 395.9,10.7 64.2,10.7 64.2,102.1 53.5,103.7 53.5,0 			"/>
		</g>
	</g>
	<g>
		<g>
			<path d="M213.6,91.7l1.5,10.7h140.4V136H220l1.5,10.8h144.7V91.7H213.6z M96.7,91.7v5.7l39.8-5.7H96.7z"/>
		</g>
	</g>
	<g>
		<g>
			<path d="M223.9,163.3l1.5,10.7h130.1v33.6H230.3l1.5,10.7h134.4v-55.1H223.9z"/>
		</g>
	</g>
	<g>
		<g>
			<path d="M234.2,235.3l1.6,10.7h119.7v33.6H240.6l1.5,10.7h124.1v-55.1H234.2z"/>
		</g>
	</g>
	<g>
		<g>
			<path d="M204,381.6V408h162.2v-26.4H204z M355.5,397.3H214.7v-5h140.8V397.3z"/>
		</g>
	</g>
	<g>
		<g>
			<path d="M309.1,308.7v55.1h57.1v-55.1H309.1z M355.5,353h-35.6v-33.6h35.6V353z"/>
		</g>
	</g>
</g>
<g>
	<path d="M252,290.3l-1.5-10.7l-4.8-33.6l-1.5-10.7l-2.4-17l-1.6-10.7l-4.8-33.6l-1.5-10.7l-2.4-16.5l-1.5-10.8l-4.8-33.6l-1.5-10.7
		l-3.2-22L64.2,92.2l-10.7,1.5L3,101l44.7,310.6l5.8-0.8l66.1-9.5l84.4-12.2l52.1-7.5l8.9-1.3L252,290.3z M64.2,399.4l-8.2,1.2
		l-2.5-17.3L14.1,109.3l39.4-5.7l10.7-1.5l32.5-4.7l39.8-5.7L212,80.8l1.6,10.9l1.5,10.7L220,136l1.5,10.8l2.4,16.5l1.5,10.7
		l4.8,33.6l1.5,10.7l2.4,17l1.6,10.7l4.8,33.6l1.5,10.7l11.7,81.7L64.2,399.4z"/>
</g>
<g>
	<path d="M141.4,371.5c-38.8,0-72.3-29.1-77.8-67.6c-6.2-43,23.7-83.1,66.7-89.3c43.3-6.2,83.1,24.6,89.2,66.8
		c6.2,43-23.7,83.1-66.7,89.3C148.9,371.2,145.1,371.5,141.4,371.5z M141.6,223.6c-3.3,0-6.6,0.2-9.9,0.7
		c-37.6,5.4-63.8,40.5-58.4,78.2c5.3,37,40.1,63.9,78.1,58.5c37.6-5.4,63.8-40.5,58.4-78.2C204.9,249,175.6,223.6,141.6,223.6z"/>
</g>
<g>
	<path d="M119,345.4l-13.3-92.7l3.9-1.3c6.9-2.2,15.8-4.2,26.5-5.7c13.2-1.9,22.7-0.6,30.1,3.7c7.7,4.5,12.9,12.5,14.3,21.9
		c1.4,9.6-0.7,18.5-5.9,25c-6.2,7.8-16.3,12.8-29.4,14.7l-1.7,0.2l4.3,30L119,345.4z M116.6,259.5l10.8,74.8l9.3-1.3l-4.5-31.1
		l5.6-0.1c1.6,0,3.7-0.2,6-0.5c10.6-1.5,18.6-5.4,23.1-11.1c3.5-4.5,4.9-10.5,3.9-17.5c-0.9-6.4-4.4-11.8-9.5-14.8
		c-5.4-3.2-13.3-4-23.8-2.5C129.3,256.6,122.3,258,116.6,259.5z M136.9,296.8L136.9,296.8l-1.7-0.1l-3.9-0.3l-4.7-32.6l3.4-1.5
		c2.1-0.9,5.4-1.8,9.1-2.3c12.5-1.8,20.8,3.9,22.3,14.5c1.6,11.4-5.7,19.9-18.7,21.8C140.5,296.6,138.6,296.8,136.9,296.8z
		 M137.5,270.3l2.4,16.5l1.6-0.2c5.3-0.8,11.4-3.2,10.4-10.7c-0.4-3.1-2.8-7.4-11.2-6.2C139.4,269.9,138.3,270.1,137.5,270.3z"/>
</g>
</svg>
