<?xml version="1.0" encoding="utf-8"?>
<!-- Generator: Adobe Illustrator 18.1.0, SVG Export Plug-In . SVG Version: 6.00 Build 0)  -->
<!DOCTYPE svg PUBLIC "-//W3C//DTD SVG 1.1//EN" "http://www.w3.org/Graphics/SVG/1.1/DTD/svg11.dtd">
<svg version="1.1" id="Layer_1" xmlns="http://www.w3.org/2000/svg" xmlns:xlink="http://www.w3.org/1999/xlink" x="0px" y="0px"
	 viewBox="0 0 841.9 595.3" enable-background="new 0 0 841.9 595.3" xml:space="preserve">
<g>
	<g>
		<path fill="#B9C1D0" d="M470.5,457.6l63.9,16l24.1,3.5l65.6,15.5c-0.7,2,8.4-3.8,10.4-12.3L707,172.4c1-4.3,0.3-8.7-2-12.4
			s-5.9-6.4-10.3-7.4l-210.7-49.8c-1.2-0.3-2.5-0.4-3.8-0.4c-5.2,0-10,2.5-13,6.4c-1.4,1.9-2.5,3.9-3,6.4l-10.7-2.6
			c0.3-1.3,0.7-2.6,1.2-3.8c4.9-12.3,18.5-19.9,31.9-16.6l210.8,49.8c7.1,1.7,13.1,6.1,17,12.3c3.9,6.2,5.1,13.7,3.5,20.8
			l-72.5,307.9c-2.9,12.3-14.2,21.2-26.9,21.2c-2.2,0-4.2-0.3-6.2-0.7l-188-46.2L470.5,457.6z"/>
	</g>
	<g>
		<path fill="#B9C1D0" d="M621.5,182.6l-103-25l0.1-4l55.3-17.9L621.5,182.6z M550.4,154.5l35.5,8.4l-14.9-14.7L550.4,154.5z"/>
	</g>
	<g>
		<path fill="#B9C1D0" d="M614,503.7l-36.6-8.7l15.6-66.3l4.3-18.2l65.3-277.1l36.6,8.7L614,503.7z M590.6,486.9l15.2,3.6
			l80.2-340.1l-15.2-3.6L590.6,486.9z"/>
	</g>
	<g>
		<polyline fill="#B9C1D0" points="516.4,119.9 311.1,119.9 311.3,131.5 300.2,132.6 300.2,108.9 527.4,108.9 527.4,411.5 
			527.4,427 527.4,457.9 525.4,435.8 529.2,410.3 		"/>
	</g>
	<g>
		<polyline fill="#B9C1D0" points="369.5,458.6 407.4,454.7 406.1,449.6 519.8,449.6 519.8,427.1 519.8,411.8 519.8,177.4 
			375.9,178.2 374.4,168.8 527.4,168 529.2,410.3 529.2,428 529.2,459 369.5,460.6 369.5,459 369.5,459 		"/>
	</g>
	<g>
		<path fill="#B9C1D0" d="M418.1,462.5l-244.5,35.3l-50.3-349.4l244.5-35.3L418.1,462.5z M135.7,157.6l47.1,327.7l222.7-32.1
			l-47-327.7L135.7,157.6z"/>
	</g>
	<g>
		<path fill="#B9C1D0" d="M279.1,452.7c-43.6,0-81.3-32.7-87.6-76.1c-6.9-48.4,26.7-93.5,75-100.4c48.7-7.1,93.5,27.6,100.3,75.1
			c6.9,48.4-26.7,93.5-75,100.4C287.4,452.4,283.3,452.7,279.1,452.7z M279.2,286.2c-3.6,0-7.4,0.3-11.1,0.9
			c-42.3,6.1-71.8,45.5-65.7,88c5.9,41.6,45.1,71.8,87.8,65.9c42.3-6.1,71.8-45.5,65.7-88C350.4,314.8,317.5,286.2,279.2,286.2z"/>
	</g>
	<g>
		<path fill="#B9C1D0" d="M253.8,423.3L238.9,319l4.3-1.4c7.8-2.5,17.8-4.6,29.8-6.5c14.7-2.2,25.6-0.7,33.8,4.2
			c8.7,5.1,14.4,14,16,24.6c1.6,10.8-0.9,20.8-6.6,28.2c-6.9,8.7-18.3,14.4-33.1,16.6l-1.9,0.3l4.9,33.8L253.8,423.3z M251,326.7
			l12.1,84.1l10.5-1.4l-5.1-35h6.4c1.9,0,4.2-0.1,6.6-0.6c11.8-1.7,21-6.1,26-12.6c4-5.1,5.5-11.8,4.3-19.8
			c-1-7.2-4.9-13.3-10.7-16.6c-6.1-3.6-14.9-4.5-26.7-2.7C265.5,323.4,257.5,324.9,251,326.7z M274,368.6L274,368.6l-1.9-0.1
			l-4.3-0.3l-5.3-36.7l3.8-1.7c2.3-1,6.1-2,10.3-2.6c14-2,23.4,4.5,25.1,16.3c1.9,12.7-6.4,22.4-21,24.6
			C277.9,368.4,275.9,368.6,274,368.6z M274.6,338.8l2.7,18.6l1.7-0.3c5.9-0.9,12.9-3.6,11.7-12c-0.4-3.5-3.2-8.4-12.6-6.9
			C276.7,338.4,275.6,338.5,274.6,338.8z"/>
	</g>
</g>
</svg>
