<?xml version="1.0" encoding="utf-8"?>
<!-- Generator: Adobe Illustrator 18.1.0, SVG Export Plug-In . SVG Version: 6.00 Build 0)  -->
<!DOCTYPE svg PUBLIC "-//W3C//DTD SVG 1.1//EN" "http://www.w3.org/Graphics/SVG/1.1/DTD/svg11.dtd">
<svg version="1.1" id="Layer_1" xmlns="http://www.w3.org/2000/svg" xmlns:xlink="http://www.w3.org/1999/xlink" x="0px" y="0px"
	 viewBox="0 0 412 412" enable-background="new 0 0 412 412" xml:space="preserve">
<g>
	<g>
		<path d="M240.3,316.7l44.2,11.1l16.7,2.4l45.4,10.7c-0.5,1.4,5.8-2.6,7.2-8.5l50.2-213.1c0.7-3,0.2-6-1.4-8.6
			c-1.6-2.6-4.1-4.4-7.1-5.1L249.7,71.1c-0.8-0.2-1.7-0.3-2.6-0.3c-3.6,0-6.9,1.7-9,4.4c-1,1.3-1.7,2.7-2.1,4.4l-7.4-1.8
			c0.2-0.9,0.5-1.8,0.8-2.6c3.4-8.5,12.8-13.8,22.1-11.5l145.9,34.5c4.9,1.2,9.1,4.2,11.8,8.5c2.7,4.3,3.5,9.5,2.4,14.4l-50.2,213.1
			c-2,8.5-9.8,14.7-18.6,14.7c-1.5,0-2.9-0.2-4.3-0.5l-130.1-32L240.3,316.7z"/>
	</g>
	<g>
		<path d="M344.8,126.4l-71.3-17.3l0.1-2.8l38.3-12.4L344.8,126.4z M295.6,106.9l24.6,5.8l-10.3-10.2L295.6,106.9z"/>
	</g>
	<g>
		<path d="M339.6,348.6l-25.3-6l10.8-45.9l3-12.6l45.2-191.8l25.3,6L339.6,348.6z M323.4,337l10.5,2.5l55.5-235.4l-10.5-2.5
			L323.4,337z"/>
	</g>
	<g>
		<polyline points="272.1,83 130,83 130.1,91 122.4,91.8 122.4,75.4 279.7,75.4 279.7,284.8 279.7,295.5 279.7,316.9 278.3,301.6 
			280.9,284 		"/>
	</g>
	<g>
		<polyline points="170.4,317.4 196.6,314.7 195.7,311.2 274.4,311.2 274.4,295.6 274.4,285 274.4,122.8 174.8,123.3 173.8,116.8 
			279.7,116.3 280.9,284 280.9,296.2 280.9,317.7 170.4,318.8 170.4,317.7 170.4,317.7 		"/>
	</g>
	<g>
		<path d="M204,320.1L34.8,344.5L0,102.7l169.2-24.4L204,320.1z M8.6,109.1l32.6,226.8l154.1-22.2L162.8,86.9L8.6,109.1z"/>
	</g>
	<g>
		<path d="M107.8,313.3c-30.2,0-56.3-22.6-60.6-52.7c-4.8-33.5,18.5-64.7,51.9-69.5c33.7-4.9,64.7,19.1,69.4,52
			c4.8,33.5-18.5,64.7-51.9,69.5C113.6,313.1,110.7,313.3,107.8,313.3z M107.9,198.1c-2.5,0-5.1,0.2-7.7,0.6
			c-29.3,4.2-49.7,31.5-45.5,60.9c4.1,28.8,31.2,49.7,60.8,45.6c29.3-4.2,49.7-31.5,45.5-60.9C157.2,217.9,134.4,198.1,107.9,198.1z
			"/>
	</g>
	<g>
		<path d="M90.3,293L80,220.8l3-1c5.4-1.7,12.3-3.2,20.6-4.5c10.2-1.5,17.7-0.5,23.4,2.9c6,3.5,10,9.7,11.1,17
			c1.1,7.5-0.6,14.4-4.6,19.5c-4.8,6-12.7,10-22.9,11.5l-1.3,0.2l3.4,23.4L90.3,293z M88.4,226.1l8.4,58.2l7.3-1l-3.5-24.2l4.4,0
			c1.3,0,2.9-0.1,4.6-0.4c8.2-1.2,14.5-4.2,18-8.7c2.8-3.5,3.8-8.2,3-13.7c-0.7-5-3.4-9.2-7.4-11.5c-4.2-2.5-10.3-3.1-18.5-1.9
			C98.4,223.8,92.9,224.9,88.4,226.1z M104.3,255.1L104.3,255.1l-1.3-0.1l-3-0.2l-3.7-25.4l2.6-1.2c1.6-0.7,4.2-1.4,7.1-1.8
			c9.7-1.4,16.2,3.1,17.4,11.3c1.3,8.8-4.4,15.5-14.5,17C107,255,105.6,255.1,104.3,255.1z M104.7,234.5l1.9,12.9l1.2-0.2
			c4.1-0.6,8.9-2.5,8.1-8.3c-0.3-2.4-2.2-5.8-8.7-4.8C106.2,234.2,105.4,234.3,104.7,234.5z"/>
	</g>
</g>
</svg>
