<?xml version="1.0" encoding="utf-8"?>
<!-- Generator: Adobe Illustrator 18.1.0, SVG Export Plug-In . SVG Version: 6.00 Build 0)  -->
<!DOCTYPE svg PUBLIC "-//W3C//DTD SVG 1.1//EN" "http://www.w3.org/Graphics/SVG/1.1/DTD/svg11.dtd">
<svg version="1.1" id="Layer_1" xmlns="http://www.w3.org/2000/svg" xmlns:xlink="http://www.w3.org/1999/xlink" x="0px" y="0px"
	 viewBox="0 0 841.9 595.3" enable-background="new 0 0 841.9 595.3" xml:space="preserve">
<g>
	<path fill="#B9C1D0" d="M338.6,364.5c-3-1.6-5.6-3.2-7.9-4.9c-11.3-7.9-13.6-17.2-13.7-23.7l-0.9-21.1l4.6-4.8
		c8.4-8.4,16.3-19.9,23.3-33.2c-4.9-9.8-9.2-20.2-13-31.2l-1-2.9l-7.9-2.6l-3.8-5.1c-2.2-2.9-5.1-7.9-6.8-15.3
		c-0.9-3.8-1.3-7.4-1.3-11.1c-0.1-2.3,0.3-5.2,0.9-7.9l1.7-6.9l5.6-4v-2.6c-0.1-1.9-0.1-4-0.1-6.1c0-21.7,5.6-41.9,15.2-59l-2.2-1.6
		c-11.8-8.5-25.4-13.1-39.4-13.3h-2.9c-41.6,0.1-75.6,39.3-75.7,87c0,1.7,0,3.5,0.1,5.2l0.3,7.9l-6.4,4.6l-0.6,2.2
		c-0.3,1.4-0.6,3.2-0.4,4.5c0,2.5,0.3,4.8,0.9,7.5c0.9,3.8,2.6,7.1,5.2,10.4l1.3,1.6l7.8,2l2.6,7.7c8.7,25.4,21.5,48.1,35.5,62.1
		l4.6,4.8l-1,21.4c0,8.7-4.9,17.2-13.7,23.4c-15.2,10.5-40.5,17.3-69.8,25.3l-3.8,1c-5.6,1.6-11.6,3-17.3,4.8
		c-13.1,3.5-22.8,15.2-28.9,34.7c-3.8,12-5.2,24.4-5.8,32.8l-0.6,5.2l4.6,1.4c25.7,8.2,54,14.4,84.2,18.3l4.5,0.6l0.4-5.8
		c0.7-10.3,2.6-25.3,7.1-39.7c8.4-26.4,22.3-42.5,41.5-47.7l20.8-5.6c20.7-5.6,39-10.5,53.9-15.9c1.3-0.4,2.6-1,3.8-1.4L338.6,364.5
		z M310.4,371.8c-9,2.6-18.6,5.2-28.6,7.9l-22.8,6.2c-2.2,0.6-4.3,1.3-6.4,2.2c-14.9,9.4-32.1,28.3-38.4,48.7
		c-2.6,8.1-4.5,16.9-5.8,26.4l-1,6.8l-6.8-1c-20.5-3.2-40.2-7.5-58.5-12.9l-5.6-1.6l0.9-5.8c1-7.1,2.5-13.6,4.2-19.2
		c4.8-15.2,11.6-24.1,20.4-26.4c6.8-1.9,13.6-3.8,20.4-5.6c22.7-6.1,51.1-15.9,67.5-23.1l0.1,0.1c2.5-1.4,4.8-2.9,6.9-4.3
		c12.3-8.7,18.9-20.7,18.9-33.8l1.3-26l-8.7-8.8c-12.7-12.9-24.6-33.7-32.5-57.4l-4.8-14l-4.8-16.3l-0.6-19.2
		c0-41,28.2-74.6,62.7-74.7h3.2c7.5,0,14.9,1.7,22,4.9l5.9,2.7l-2.5,5.9c-6.1,14.9-9.2,31.4-9.2,47.7l0.1,6.1l-3.9,4.5
		c-2.5,3.9-4.3,10.7-4.2,17.2c0,4.2,0.4,8.2,1.4,12.1c2,8.5,5.5,14,7.2,16.6c2.6,3.8,6.1,6.8,10.4,9.2l2.3,1.3l0.9,2.5
		c2.5,7.1,5.2,13.9,8.2,20.5l1.4,3l-1.7,3c-5.6,10-11.7,18.2-17.9,24.6l-8.5,8.7l1.2,25.6c0.1,9.2,3.3,17.9,9.2,25.1l6.5,7.8
		L310.4,371.8z"/>
	<path fill="#B9C1D0" d="M718.2,458.3c-0.6-8.4-2-20.8-5.9-32.8c-6.2-19.7-15.7-31.2-28.6-34.7c-5.9-1.7-11.6-3.2-17.2-4.8l-4.8-1.3
		c-29-7.8-54.2-14.6-69.2-25.1c-9-6.2-13.9-14.7-13.9-23.8l-0.9-21l4.8-4.8c13.9-14.2,26.9-36.8,35.4-62.1l2.6-7.7l7.8-2l1.3-1.6
		c2.7-3.5,4.3-6.8,5.3-11c0.4-2,0.7-4.5,0.7-6.2c0.1-2.2-0.1-3.8-0.4-5.3l-0.6-2.2l-6.4-4.6l0.3-7.5c0.1-2.3,0.1-4,0.1-5.6
		c0-47.8-34-86.8-75.7-87h-2.9c-13.9,0.1-27.5,4.8-39.3,13.3l-4.5,3.2l2.6,4.8c8.4,15.9,12.7,34.1,12.9,52.6c0,1.9,0,4-0.1,6.6
		l-0.1,5.5l0.1,0.3l0.4,0.3v0.1l6.1,6.4c0.7,1.9,1.6,4.9,1.4,9.2c0,2.5-0.4,5.6-1,8.5c-1.2,4.9-3.2,9.4-5.6,12.7
		c-0.7,1-1.4,2-6.6,4.5c-0.4,0.6-0.9,1.2-1.3,1.7l-4,5.2l-1.4,0.4l-0.3,1c-3.2,9.5-7.1,18.9-11.4,28l-1.4,2.9l1.4,2.7
		c6.9,13.4,15,24.9,23.1,33.2l4.6,4.8l-0.9,21.2c0,6.2-2.5,15.6-13.9,23.6c-2.3,1.6-4.9,3.3-7.9,4.8l-8.5,4.5
		c14,5.1,31.1,9.7,49.6,14.7c8.4,2.3,16.6,4.5,25.1,6.9c7.8,2,14.6,5.9,20.7,11.7c11.3,6.8,19.9,19.5,25.7,38.1
		c3.5,10.8,5.6,23.3,6.8,37l0.4,6.5l6.5-0.9c30.2-3.9,58.5-10.1,84.2-18.3l4.6-1.4L718.2,458.3z M699.8,456
		c-18.3,5.3-38,9.7-58.5,12.9l-6.8,1l-1-6.8c-1.3-9.4-3.3-18.3-5.8-26.4c-9.5-30.2-34.5-46.1-40.2-49.4c-1.4-0.6-2.9-1-4.3-1.3
		c-8.5-2.3-16.8-4.6-26.2-7.1c-9.2-2.5-17.8-4.8-25.6-7.1l-9.8-2.9l6.5-7.9c5.9-7.2,9.2-15.9,9.2-25l1.2-25.9l-8.7-8.8
		c-6.2-6.2-12.3-14.7-17.9-24.4l-1.7-3l1.4-3.2c3-6.6,5.8-13.6,8.2-20.7l1-2.9l2.9-1.2c3.5-1.7,6.6-4.8,9.1-8.2
		c3.5-4.8,6.1-10.5,7.5-17c0.9-3.9,1.4-7.8,1.4-11.3c0.1-10.3-3.3-16.5-4.8-18.6l-3.3-3.8l0.1-6.1c0-16.3-3.3-32.8-9.2-47.7
		l-2.5-6.1l5.9-2.6c7.4-3.3,15.3-4.9,24.4-4.9h0.1c34.8,0.1,63.1,33.7,63.3,74.6l-1.2,25.4l-3.2,7.4l-5.8,16.9
		c-7.9,23.7-19.8,44.5-32.5,57.4l-8.7,8.8l1.3,25.6c0,13.4,6.8,25.6,19.2,34.2c2.9,2,5.9,3.9,9.2,5.6l0,0
		c14.7,6.4,40.9,15.2,64.4,21.4l1.7,0.4c6.2,1.7,12.7,3.5,19.7,5.5c8.5,2.3,15.2,11.1,19.9,26.3c1.7,5.8,3.2,12.3,4.2,19.2l0.9,5.8
		L699.8,456z"/>
	<path fill="#B9C1D0" d="M604.3,479c-0.7-9.4-2.5-23.6-6.6-36.8c-6.8-21.8-17.5-34.8-31.8-38.6c-8.7-2.5-16.8-4.6-25.1-6.8
		c-32.7-8.8-60.8-16.5-77.9-28.3c-10.3-7.2-15.9-17-15.9-27.5l-1-24l5.6-5.6c15.6-15.7,30.2-41.3,39.9-69.8l3-9l9-2.3l1.3-1.7
		c2.9-3.8,4.8-7.4,5.9-12c0.6-2.3,0.9-5.1,0.9-7.1s-0.1-3.8-0.6-5.5l-0.6-2.2l-7.2-5.3l0.3-9.1c0.1-2.5,0.1-4.3,0.1-6.2
		c0-53.5-38.1-97.1-85.1-97.2l-3-0.1c-46.1,0.4-83.8,44.1-83.8,97.4c0,1.7,0,3.8,0.1,5.6l0.3,9.7l-7.4,5.5l-0.6,2.2
		c-0.4,1.7-0.6,3.5-0.6,4.5c0,2.9,0.3,5.5,0.9,8.1c1.3,5.2,3.2,8.7,4.6,10.5l1.2,1.6l10.3,3.3l3.2,9.5c9.7,28.5,24.1,53.9,39.7,69.6
		l5.6,5.6l-1,24.3c0,7.2-2.9,18.1-15.9,27.3c-6.5,4.6-14.6,8.7-26.9,13.1c-15.3,5.6-34.1,10.7-53.9,16l-21.8,5.9
		c-14.7,3.8-25.6,16.8-32.4,38.6c-4.2,13.1-5.9,27.3-6.6,36.7l-0.4,4.9l4.6,1.4c53.3,17.2,116.5,26.3,182.6,26.3
		c66,0,129.2-9.1,182.5-26.3l4.6-1.4L604.3,479z M585.9,476.7c-49.8,14.7-108.2,22.5-168.5,22.5c-60.4,0-118.6-7.8-168.6-22.5
		l-5.5-1.6l0.7-5.6c1.2-8.7,2.7-16.5,4.9-23.3c5.5-17.5,13.4-27.6,23.4-30.3l20.8-5.6c20.5-5.5,39.9-10.8,56.1-16.6
		c13.4-4.9,22.4-9.4,29.9-14.7c13.6-9.5,21.1-23,21.2-37.6l1.3-28.8l-9.5-9.7c-14.3-14.4-27.7-38.1-36.7-64.9l-5.2-15.5l-12.6-4
		l-1.7-7.5l3-3.9l5.5-4l-0.6-21.4c0-45.8,32.8-84.7,71.7-85h3c39.7,0.1,72.1,38.3,72.2,84.8l-0.6,21.5l9.1,6.6l-2.9,9.8l-11.8,3
		l-5.2,15.3c-9.1,26.9-22.5,50.6-36.8,65l-9.5,9.7l1.4,28.5c0,14.9,7.5,28.3,21.2,38c18.8,13.1,48.1,21.1,82.2,30.2
		c7.9,2.2,16,4.3,24.7,6.8c9.8,2.6,17.8,12.7,23.1,30.2c2.2,6.9,3.8,14.7,4.9,23.4l0.7,5.6L585.9,476.7z"/>
</g>
</svg>
