<?xml version="1.0" encoding="utf-8"?>
<!-- Generator: Adobe Illustrator 18.1.0, SVG Export Plug-In . SVG Version: 6.00 Build 0)  -->
<!DOCTYPE svg PUBLIC "-//W3C//DTD SVG 1.1//EN" "http://www.w3.org/Graphics/SVG/1.1/DTD/svg11.dtd">
<svg version="1.1" id="Layer_1" xmlns="http://www.w3.org/2000/svg" xmlns:xlink="http://www.w3.org/1999/xlink" x="0px" y="0px"
	 viewBox="0 0 841.9 595.3" enable-background="new 0 0 841.9 595.3" xml:space="preserve">
<g id="dashboard-3-icon">
	<path fill="#B9C1D0" d="M628.6,215.1l-67.9,29.3c6.1,10.4,10.8,21.5,14.3,32.9l67.9-29.3C639,236.8,634.2,225.7,628.6,215.1z
		 M582.6,260.2c-1.3-3.2-2.6-6.4-4-9.4l43.9-19.1c1.4,3,2.7,6.2,4,9.4L582.6,260.2z M573.7,146.4l-52.3,52.3
		c9.4,7.5,17.9,16,25.4,25.4l52.3-52.3C591.3,162.7,582.8,154.2,573.7,146.4z M547.5,205.3c-2.3-2.5-4.8-4.9-7.2-7.2l33.8-33.8
		c2.5,2.3,4.9,4.8,7.2,7.2L547.5,205.3z M493.9,101.4l-28.3,68.3c11.6,3.3,22.7,7.9,33.2,13.7l28.3-68.3
		C516.4,109.8,505.3,105.2,493.9,101.4z M492.2,165.9c-3-1.4-6.2-2.7-9.4-3.9l18.3-44.2c3.2,1.3,6.4,2.6,9.4,3.9L492.2,165.9z
		 M447.8,338.4l-26.9-125.7l-26.7,125.6c-17,9.4-28.6,27.6-28.6,48.5c0,30.6,24.9,55.5,55.5,55.5s55.5-24.9,55.5-55.5
		C476.4,366,464.9,347.8,447.8,338.4z M420.9,429.6c-23.4,0-42.6-19.1-42.6-42.6c0-15.5,8.4-29.8,22-37.3l5.1-2.9l15.6-72.2
		l15.5,72.4l5.1,2.9c13.6,7.5,22,21.8,22,37.3C463.6,410.3,444.4,429.6,420.9,429.6z M438.9,164.6v-74c-6.1-0.4-12.1-0.7-17.9-0.7
		s-11.8,0.3-17.9,0.7v74c5.9-0.7,12-1,17.9-1C426.9,163.6,432.9,163.8,438.9,164.6z M415.9,102.9c3.5-0.1,6.8-0.1,10.3,0v48
		c-1.7-0.1-3.5-0.1-5.1-0.1s-3.3,0-5.1,0.1v-48H415.9z M347,101.9c-11.4,3.8-22.5,8.4-33.1,13.9l28.6,68.2
		c10.5-5.9,21.7-10.5,33.1-13.9L347,101.9z M330.5,121.9c3.2-1.4,6.2-2.7,9.4-3.9l18.5,44.2c-3.2,1.2-6.4,2.6-9.4,3.9L330.5,121.9z
		 M242.8,171.8l52.3,52.3c7.5-9.4,16-17.9,25.4-25.4l-52.3-52.3C259.1,154.2,250.6,162.7,242.8,171.8z M294.4,205.3l-33.8-34
		c2.3-2.5,4.8-4.9,7.2-7.2l33.8,33.8C299.1,200.4,296.7,202.7,294.4,205.3z M197.9,251.5l68.3,28.3c3.3-11.6,7.9-22.7,13.7-33.2
		l-68.3-28.3C206.2,229.2,201.6,240.3,197.9,251.5z M217.9,234.9l44.2,18.3c-1.4,3-2.7,6.2-3.9,9.4L214,244.3
		C215.3,241.3,216.6,238.1,217.9,234.9z M628.6,215.1l-67.9,29.3c6.1,10.4,10.8,21.5,14.3,32.9l67.9-29.3
		C639,236.8,634.2,225.7,628.6,215.1z M582.6,260.2c-1.3-3.2-2.6-6.4-4-9.4l43.9-19.1c1.4,3,2.7,6.2,4,9.4L582.6,260.2z
		 M573.7,146.4l-52.3,52.3c9.4,7.5,17.9,16,25.4,25.4l52.3-52.3C591.3,162.7,582.8,154.2,573.7,146.4z M547.5,205.3
		c-2.3-2.5-4.8-4.9-7.2-7.2l33.8-33.8c2.5,2.3,4.9,4.8,7.2,7.2L547.5,205.3z M493.9,101.4l-28.3,68.3c11.6,3.3,22.7,7.9,33.2,13.7
		l28.3-68.3C516.4,109.8,505.3,105.2,493.9,101.4z M492.2,165.9c-3-1.4-6.2-2.7-9.4-3.9l18.3-44.2c3.2,1.3,6.4,2.6,9.4,3.9
		L492.2,165.9z M447.8,338.4l-26.9-125.7l-26.7,125.6c-17,9.4-28.6,27.6-28.6,48.5c0,30.6,24.9,55.5,55.5,55.5s55.5-24.9,55.5-55.5
		C476.4,366,464.9,347.8,447.8,338.4z M420.9,429.6c-23.4,0-42.6-19.1-42.6-42.6c0-15.5,8.4-29.8,22-37.3l5.1-2.9l15.6-72.2
		l15.5,72.4l5.1,2.9c13.6,7.5,22,21.8,22,37.3C463.6,410.3,444.4,429.6,420.9,429.6z M438.9,164.6v-74c-6.1-0.4-12.1-0.7-17.9-0.7
		s-11.8,0.3-17.9,0.7v74c5.9-0.7,12-1,17.9-1C426.9,163.6,432.9,163.8,438.9,164.6z M415.9,102.9c3.5-0.1,6.8-0.1,10.3,0v48
		c-1.7-0.1-3.5-0.1-5.1-0.1s-3.3,0-5.1,0.1v-48H415.9z M347,101.9c-11.4,3.8-22.5,8.4-33.1,13.9l28.6,68.2
		c10.5-5.9,21.7-10.5,33.1-13.9L347,101.9z M330.5,121.9c3.2-1.4,6.2-2.7,9.4-3.9l18.5,44.2c-3.2,1.2-6.4,2.6-9.4,3.9L330.5,121.9z
		 M242.8,171.8l52.3,52.3c7.5-9.4,16-17.9,25.4-25.4l-52.3-52.3C259.1,154.2,250.6,162.7,242.8,171.8z M294.4,205.3l-33.8-34
		c2.3-2.5,4.8-4.9,7.2-7.2l33.8,33.8C299.1,200.4,296.7,202.7,294.4,205.3z M197.9,251.5l68.3,28.3c3.3-11.6,7.9-22.7,13.7-33.2
		l-68.3-28.3C206.2,229.2,201.6,240.3,197.9,251.5z M217.9,234.9l44.2,18.3c-1.4,3-2.7,6.2-3.9,9.4L214,244.3
		C215.3,241.3,216.6,238.1,217.9,234.9z M420.9,27c-164.1,0-297.6,133.5-297.6,297.6c0,62.1,18.9,121.5,54.6,171.9l3.9,5.5h102.9
		c26.6,40.6,79,66.3,136.2,66.3s109.8-25.9,136.2-66.3h102.9l3.9-5.5c35.8-50.4,54.6-110,54.6-171.9C718.6,160.5,585.1,27,420.9,27z
		 M653.4,489.1H550c-22.1,39.2-71.5,66.3-129,66.3s-106.9-27.2-129-66.3H188.5c-32.9-46.4-52.3-103.2-52.3-164.4
		c0-157.3,127.4-284.8,284.8-284.8s284.8,127.4,284.8,284.8C705.7,385.9,686.4,442.7,653.4,489.1z M560.7,244.5
		c6.1,10.4,10.8,21.5,14.3,32.9l67.9-29.3c-3.9-11.3-8.7-22.4-14.3-32.9L560.7,244.5z M582.6,260.2c-1.3-3.2-2.6-6.4-4-9.4
		l43.9-19.1c1.4,3,2.7,6.2,4,9.4L582.6,260.2z M573.7,146.4l-52.3,52.3c9.4,7.5,17.9,16,25.4,25.4l52.3-52.3
		C591.3,162.7,582.8,154.2,573.7,146.4z M547.5,205.3c-2.3-2.5-4.8-4.9-7.2-7.2l33.8-33.8c2.5,2.3,4.9,4.8,7.2,7.2L547.5,205.3z
		 M493.9,101.4l-28.3,68.3c11.6,3.3,22.7,7.9,33.2,13.7l28.3-68.3C516.4,109.8,505.3,105.2,493.9,101.4z M492.2,165.9
		c-3-1.4-6.2-2.7-9.4-3.9l18.3-44.2c3.2,1.3,6.4,2.6,9.4,3.9L492.2,165.9z M447.8,338.4l-26.9-125.7l-26.7,125.6
		c-17,9.4-28.6,27.6-28.6,48.5c0,30.6,24.9,55.5,55.5,55.5s55.5-24.9,55.5-55.5C476.4,366,464.9,347.8,447.8,338.4z M420.9,429.6
		c-23.4,0-42.6-19.1-42.6-42.6c0-15.5,8.4-29.8,22-37.3l5.1-2.9l15.6-72.2l15.5,72.4l5.1,2.9c13.6,7.5,22,21.8,22,37.3
		C463.6,410.3,444.4,429.6,420.9,429.6z M438.9,164.6v-74c-6.1-0.4-12.1-0.7-17.9-0.7s-11.8,0.3-17.9,0.7v74c5.9-0.7,12-1,17.9-1
		C426.9,163.6,432.9,163.8,438.9,164.6z M415.9,102.9c3.5-0.1,6.8-0.1,10.3,0v48c-1.7-0.1-3.5-0.1-5.1-0.1s-3.3,0-5.1,0.1v-48H415.9
		z M347,101.9c-11.4,3.8-22.5,8.4-33.1,13.9l28.6,68.2c10.5-5.9,21.7-10.5,33.1-13.9L347,101.9z M330.5,121.9
		c3.2-1.4,6.2-2.7,9.4-3.9l18.5,44.2c-3.2,1.2-6.4,2.6-9.4,3.9L330.5,121.9z M242.8,171.8l52.3,52.3c7.5-9.4,16-17.9,25.4-25.4
		l-52.3-52.3C259.1,154.2,250.6,162.7,242.8,171.8z M294.4,205.3l-33.8-34c2.3-2.5,4.8-4.9,7.2-7.2l33.8,33.8
		C299.1,200.4,296.7,202.7,294.4,205.3z M197.9,251.5l68.3,28.3c3.3-11.6,7.9-22.7,13.7-33.2l-68.3-28.3
		C206.2,229.2,201.6,240.3,197.9,251.5z M217.9,234.9l44.2,18.3c-1.4,3-2.7,6.2-3.9,9.4L214,244.3
		C215.3,241.3,216.6,238.1,217.9,234.9z"/>
</g>
</svg>
