<?xml version="1.0" encoding="utf-8"?>
<!-- Generator: Adobe Illustrator 18.1.0, SVG Export Plug-In . SVG Version: 6.00 Build 0)  -->
<!DOCTYPE svg PUBLIC "-//W3C//DTD SVG 1.1//EN" "http://www.w3.org/Graphics/SVG/1.1/DTD/svg11.dtd">
<svg version="1.1" id="Layer_1" xmlns="http://www.w3.org/2000/svg" xmlns:xlink="http://www.w3.org/1999/xlink" x="0px" y="0px"
	 viewBox="0 0 412 412" enable-background="new 0 0 412 412" xml:space="preserve">
<g>
	<path d="M149,252.3c-2.1-1.1-3.9-2.2-5.5-3.4c-7.8-5.5-9.4-11.9-9.5-16.4l-0.6-14.6l3.2-3.3c5.8-5.8,11.3-13.8,16.1-23
		c-3.4-6.8-6.4-14-9-21.6L143,168l-5.5-1.8l-2.6-3.5c-1.5-2-3.5-5.5-4.7-10.6c-0.6-2.6-0.9-5.1-0.9-7.7c-0.1-1.6,0.2-3.6,0.6-5.5
		l1.2-4.8l3.9-2.8l0-1.8c-0.1-1.3-0.1-2.8-0.1-4.2c0-15,3.9-29,10.5-40.8l-1.5-1.1c-8.2-5.9-17.6-9.1-27.3-9.2h-2
		c-28.8,0.1-52.3,27.2-52.4,60.2c0,1.2,0,2.4,0.1,3.6l0.2,5.5l-4.4,3.2l-0.4,1.5c-0.2,1-0.4,2.2-0.3,3.1c0,1.7,0.2,3.3,0.6,5.2
		c0.6,2.6,1.8,4.9,3.6,7.2l0.9,1.1l5.4,1.4l1.8,5.3c6,17.6,14.9,33.3,24.6,43l3.2,3.3l-0.7,14.8c0,6-3.4,11.9-9.5,16.2
		c-10.5,7.3-28,12-48.3,17.5l-2.6,0.7c-3.9,1.1-8,2.1-12,3.3c-9.1,2.4-15.8,10.5-20,24c-2.6,8.3-3.6,16.9-4,22.7L0,320.6l3.2,1
		c17.8,5.7,37.4,10,58.3,12.7l3.1,0.4l0.3-4c0.5-7.1,1.8-17.5,4.9-27.5c5.8-18.3,15.4-29.4,28.7-33l14.4-3.9
		c14.3-3.9,27-7.3,37.3-11c0.9-0.3,1.8-0.7,2.6-1L149,252.3z M129.5,257.3c-6.2,1.8-12.9,3.6-19.8,5.5l-15.8,4.3
		c-1.5,0.4-3,0.9-4.4,1.5c-10.3,6.5-22.2,19.6-26.6,33.7c-1.8,5.6-3.1,11.7-4,18.3l-0.7,4.7l-4.7-0.7c-14.2-2.2-27.8-5.2-40.5-8.9
		l-3.9-1.1l0.6-4c0.7-4.9,1.7-9.4,2.9-13.3c3.3-10.5,8-16.7,14.1-18.3c4.7-1.3,9.4-2.6,14.1-3.9c15.7-4.2,35.4-11,46.7-16l0.1,0.1
		c1.7-1,3.3-2,4.8-3c8.5-6,13.1-14.3,13.1-23.4l0.9-18l-6-6.1c-8.8-8.9-17-23.3-22.5-39.7l-3.3-9.7l-3.3-11.3l-0.4-13.3
		c0-28.4,19.5-51.6,43.4-51.7l2.2,0c5.2,0,10.3,1.2,15.2,3.4l4.1,1.9l-1.7,4.1c-4.2,10.3-6.4,21.7-6.4,33l0.1,4.2l-2.7,3.1
		c-1.7,2.7-3,7.4-2.9,11.9c0,2.9,0.3,5.7,1,8.4c1.4,5.9,3.8,9.7,5,11.5c1.8,2.6,4.2,4.7,7.2,6.4l1.6,0.9l0.6,1.7
		c1.7,4.9,3.6,9.6,5.7,14.2l1,2.1l-1.2,2.1c-3.9,6.9-8.1,12.6-12.4,17l-5.9,6l0.8,17.7c0.1,6.4,2.3,12.4,6.4,17.4l4.5,5.4
		L129.5,257.3z"/>
	<path d="M411.7,317.2c-0.4-5.8-1.4-14.4-4.1-22.7c-4.3-13.6-10.9-21.6-19.8-24c-4.1-1.2-8-2.2-11.9-3.3l-3.3-0.9
		c-20.1-5.4-37.5-10.1-47.9-17.4c-6.2-4.3-9.6-10.2-9.6-16.5l-0.6-14.5l3.3-3.3c9.6-9.8,18.6-25.5,24.5-43l1.8-5.3l5.4-1.4l0.9-1.1
		c1.9-2.4,3-4.7,3.7-7.6c0.3-1.4,0.5-3.1,0.5-4.3c0.1-1.5-0.1-2.6-0.3-3.7l-0.4-1.5l-4.4-3.2l0.2-5.2c0.1-1.6,0.1-2.8,0.1-3.9
		c0-33.1-23.5-60.1-52.4-60.2h-2c-9.6,0.1-19,3.3-27.2,9.2l-3.1,2.2l1.8,3.3c5.8,11,8.8,23.6,8.9,36.4c0,1.3,0,2.8-0.1,4.6l-0.1,3.8
		l0.1,0.2l0.3,0.2l0,0.1l4.2,4.4c0.5,1.3,1.1,3.4,1,6.4c0,1.7-0.3,3.9-0.7,5.9c-0.8,3.4-2.2,6.5-3.9,8.8c-0.5,0.7-1,1.4-4.6,3.1
		c-0.3,0.4-0.6,0.8-0.9,1.2l-2.8,3.6l-1,0.3l-0.2,0.7c-2.2,6.6-4.9,13.1-7.9,19.4l-1,2l1,1.9c4.8,9.3,10.4,17.2,16,23l3.2,3.3
		l-0.6,14.7c0,4.3-1.7,10.8-9.6,16.3c-1.6,1.1-3.4,2.3-5.5,3.3l-5.9,3.1c9.7,3.5,21.5,6.7,34.3,10.2c5.8,1.6,11.5,3.1,17.4,4.8
		c5.4,1.4,10.1,4.1,14.3,8.1c7.8,4.7,13.8,13.5,17.8,26.4c2.4,7.5,3.9,16.1,4.7,25.6l0.3,4.5l4.5-0.6c20.9-2.7,40.5-7,58.3-12.7
		l3.2-1L411.7,317.2z M399,315.6c-12.7,3.7-26.3,6.7-40.5,8.9l-4.7,0.7l-0.7-4.7c-0.9-6.5-2.3-12.7-4-18.3
		c-6.6-20.9-23.9-31.9-27.8-34.2c-1-0.4-2-0.7-3-0.9c-5.9-1.6-11.6-3.2-18.1-4.9c-6.4-1.7-12.3-3.3-17.7-4.9l-6.8-2l4.5-5.5
		c4.1-5,6.4-11,6.4-17.3l0.8-17.9l-6-6.1c-4.3-4.3-8.5-10.2-12.4-16.9l-1.2-2.1l1-2.2c2.1-4.6,4-9.4,5.7-14.3l0.7-2l2-0.8
		c2.4-1.2,4.6-3.3,6.3-5.7c2.4-3.3,4.2-7.3,5.2-11.8c0.6-2.7,1-5.4,1-7.8c0.1-7.1-2.3-11.4-3.3-12.9l-2.3-2.6l0.1-4.2
		c0-11.3-2.3-22.7-6.4-33l-1.7-4.2l4.1-1.8c5.1-2.3,10.6-3.4,16.9-3.4h0.1c24.1,0.1,43.7,23.3,43.8,51.6l-0.8,17.6l-2.2,5.1l-4,11.7
		c-5.5,16.4-13.7,30.8-22.5,39.7l-6,6.1l0.9,17.7c0,9.3,4.7,17.7,13.3,23.7c2,1.4,4.1,2.7,6.4,3.9l0,0c10.2,4.4,28.3,10.5,44.6,14.8
		l1.2,0.3c4.3,1.2,8.8,2.4,13.6,3.8c5.9,1.6,10.5,7.7,13.8,18.2c1.2,4,2.2,8.5,2.9,13.3l0.6,4L399,315.6z"/>
	<path d="M332.9,331.5c-0.5-6.5-1.7-16.3-4.6-25.5c-4.7-15.1-12.1-24.1-22-26.7c-6-1.7-11.6-3.2-17.4-4.7
		c-22.6-6.1-42.1-11.4-53.9-19.6c-7.1-5-11-11.8-11-19l-0.7-16.6l3.9-3.9c10.8-10.9,20.9-28.6,27.6-48.3l2.1-6.2l6.2-1.6l0.9-1.2
		c2-2.6,3.3-5.1,4.1-8.3c0.4-1.6,0.6-3.5,0.6-4.9c0-1.4-0.1-2.6-0.4-3.8l-0.4-1.5l-5-3.7l0.2-6.3c0.1-1.7,0.1-3,0.1-4.3
		c0-37-26.4-67.2-58.9-67.3l-2.1-0.1c-31.9,0.3-58,30.5-58,67.4c0,1.2,0,2.6,0.1,3.9l0.2,6.7l-5.1,3.8l-0.4,1.5
		c-0.3,1.2-0.4,2.4-0.4,3.1c0,2,0.2,3.8,0.6,5.6c0.9,3.6,2.2,6,3.2,7.3l0.8,1.1l7.1,2.3l2.2,6.6c6.7,19.7,16.7,37.3,27.5,48.2
		l3.9,3.9l-0.7,16.8c0,5-2,12.5-11,18.9c-4.5,3.2-10.1,6-18.6,9.1c-10.6,3.9-23.6,7.4-37.3,11.1l-15.1,4.1
		C91,282,83.5,291,78.8,306.1c-2.9,9.1-4.1,18.9-4.6,25.4l-0.3,3.4l3.2,1c36.9,11.9,80.6,18.2,126.4,18.2
		c45.7,0,89.4-6.3,126.3-18.2l3.2-1L332.9,331.5z M320.2,329.9c-34.5,10.2-74.9,15.6-116.6,15.6c-41.8,0-82.1-5.4-116.7-15.6
		l-3.8-1.1l0.5-3.9c0.8-6,1.9-11.4,3.4-16.1c3.8-12.1,9.3-19.1,16.2-21l14.4-3.9c14.2-3.8,27.6-7.5,38.8-11.5
		c9.3-3.4,15.5-6.5,20.7-10.2c9.4-6.6,14.6-15.9,14.7-26l0.9-19.9l-6.6-6.7c-9.9-10-19.2-26.4-25.4-44.9l-3.6-10.7l-8.7-2.8
		l-1.2-5.2l2.1-2.7l3.8-2.8l-0.4-14.8c0-31.7,22.7-58.6,49.6-58.8h2.1c27.5,0.1,49.9,26.5,50,58.7l-0.4,14.9l6.3,4.6l-2,6.8
		l-8.2,2.1l-3.6,10.6c-6.3,18.6-15.6,35-25.5,45l-6.6,6.7l1,19.7c0,10.3,5.2,19.6,14.7,26.3c13,9.1,33.3,14.6,56.9,20.9
		c5.5,1.5,11.1,3,17.1,4.7c6.8,1.8,12.3,8.8,16,20.9c1.5,4.8,2.6,10.2,3.4,16.2l0.5,3.9L320.2,329.9z"/>
</g>
</svg>
