<?xml version="1.0" encoding="utf-8"?>
<!-- Generator: Adobe Illustrator 18.1.0, SVG Export Plug-In . SVG Version: 6.00 Build 0)  -->
<!DOCTYPE svg PUBLIC "-//W3C//DTD SVG 1.1//EN" "http://www.w3.org/Graphics/SVG/1.1/DTD/svg11.dtd">
<svg version="1.1" id="Layer_1" xmlns="http://www.w3.org/2000/svg" xmlns:xlink="http://www.w3.org/1999/xlink" x="0px" y="0px"
	 viewBox="0 0 412 412" enable-background="new 0 0 412 412" xml:space="preserve">
<g id="dashboard-3-icon">
	<path d="M349.7,148.9l-47,20.3c4.2,7.2,7.5,14.9,9.9,22.8l47-20.3C356.9,163.9,353.6,156.2,349.7,148.9z M317.9,180.1
		c-0.9-2.2-1.8-4.4-2.8-6.5l30.4-13.2c1,2.1,1.9,4.3,2.8,6.5L317.9,180.1z M311.7,101.3l-36.2,36.2c6.5,5.2,12.4,11.1,17.6,17.6
		l36.2-36.2C323.9,112.6,318,106.7,311.7,101.3z M293.6,142.1c-1.6-1.7-3.3-3.4-5-5l23.4-23.4c1.7,1.6,3.4,3.3,5,5L293.6,142.1z
		 M256.5,70.2l-19.6,47.3c8,2.3,15.7,5.5,23,9.5l19.6-47.3C272.1,76,264.4,72.8,256.5,70.2z M255.3,114.8c-2.1-1-4.3-1.9-6.5-2.7
		l12.7-30.6c2.2,0.9,4.4,1.8,6.5,2.7L255.3,114.8z M224.6,234.2L206,147.2l-18.5,86.9c-11.8,6.5-19.8,19.1-19.8,33.6
		c0,21.2,17.2,38.4,38.4,38.4s38.4-17.2,38.4-38.4C244.4,253.3,236.4,240.7,224.6,234.2z M206,297.3c-16.2,0-29.5-13.2-29.5-29.5
		c0-10.7,5.8-20.6,15.2-25.8l3.5-2L206,190l10.7,50.1l3.5,2c9.4,5.2,15.2,15.1,15.2,25.8C235.5,284,222.2,297.3,206,297.3z
		 M218.4,113.9V62.7c-4.2-0.3-8.4-0.5-12.4-0.5s-8.2,0.2-12.4,0.5v51.2c4.1-0.5,8.3-0.7,12.4-0.7
		C210.1,113.2,214.3,113.4,218.4,113.9z M202.5,71.2c2.4-0.1,4.7-0.1,7.1,0v33.2c-1.2-0.1-2.4-0.1-3.5-0.1s-2.3,0-3.5,0.1V71.2z
		 M154.8,70.5c-7.9,2.6-15.6,5.8-22.9,9.6l19.8,47.2c7.3-4.1,15-7.3,22.9-9.6L154.8,70.5z M143.4,84.4c2.2-1,4.3-1.9,6.5-2.7
		l12.8,30.6c-2.2,0.8-4.4,1.8-6.5,2.7L143.4,84.4z M82.7,118.9l36.2,36.2c5.2-6.5,11.1-12.4,17.6-17.6l-36.2-36.2
		C94,106.7,88.1,112.6,82.7,118.9z M118.4,142.1L95,118.6c1.6-1.7,3.3-3.4,5-5l23.4,23.4C121.7,138.7,120,140.3,118.4,142.1z
		 M51.6,174.1l47.3,19.6c2.3-8,5.5-15.7,9.5-23l-47.3-19.6C57.4,158.6,54.2,166.3,51.6,174.1z M65.5,162.6l30.6,12.7
		c-1,2.1-1.9,4.3-2.7,6.5l-30.6-12.7C63.7,167,64.6,164.8,65.5,162.6z M349.7,148.9l-47,20.3c4.2,7.2,7.5,14.9,9.9,22.8l47-20.3
		C356.9,163.9,353.6,156.2,349.7,148.9z M317.9,180.1c-0.9-2.2-1.8-4.4-2.8-6.5l30.4-13.2c1,2.1,1.9,4.3,2.8,6.5L317.9,180.1z
		 M311.7,101.3l-36.2,36.2c6.5,5.2,12.4,11.1,17.6,17.6l36.2-36.2C323.9,112.6,318,106.7,311.7,101.3z M293.6,142.1
		c-1.6-1.7-3.3-3.4-5-5l23.4-23.4c1.7,1.6,3.4,3.3,5,5L293.6,142.1z M256.5,70.2l-19.6,47.3c8,2.3,15.7,5.5,23,9.5l19.6-47.3
		C272.1,76,264.4,72.8,256.5,70.2z M255.3,114.8c-2.1-1-4.3-1.9-6.5-2.7l12.7-30.6c2.2,0.9,4.4,1.8,6.5,2.7L255.3,114.8z
		 M224.6,234.2L206,147.2l-18.5,86.9c-11.8,6.5-19.8,19.1-19.8,33.6c0,21.2,17.2,38.4,38.4,38.4s38.4-17.2,38.4-38.4
		C244.4,253.3,236.4,240.7,224.6,234.2z M206,297.3c-16.2,0-29.5-13.2-29.5-29.5c0-10.7,5.8-20.6,15.2-25.8l3.5-2L206,190l10.7,50.1
		l3.5,2c9.4,5.2,15.2,15.1,15.2,25.8C235.5,284,222.2,297.3,206,297.3z M218.4,113.9V62.7c-4.2-0.3-8.4-0.5-12.4-0.5
		s-8.2,0.2-12.4,0.5v51.2c4.1-0.5,8.3-0.7,12.4-0.7C210.1,113.2,214.3,113.4,218.4,113.9z M202.5,71.2c2.4-0.1,4.7-0.1,7.1,0v33.2
		c-1.2-0.1-2.4-0.1-3.5-0.1s-2.3,0-3.5,0.1V71.2z M154.8,70.5c-7.9,2.6-15.6,5.8-22.9,9.6l19.8,47.2c7.3-4.1,15-7.3,22.9-9.6
		L154.8,70.5z M143.4,84.4c2.2-1,4.3-1.9,6.5-2.7l12.8,30.6c-2.2,0.8-4.4,1.8-6.5,2.7L143.4,84.4z M82.7,118.9l36.2,36.2
		c5.2-6.5,11.1-12.4,17.6-17.6l-36.2-36.2C94,106.7,88.1,112.6,82.7,118.9z M118.4,142.1L95,118.6c1.6-1.7,3.3-3.4,5-5l23.4,23.4
		C121.7,138.7,120,140.3,118.4,142.1z M51.6,174.1l47.3,19.6c2.3-8,5.5-15.7,9.5-23l-47.3-19.6C57.4,158.6,54.2,166.3,51.6,174.1z
		 M65.5,162.6l30.6,12.7c-1,2.1-1.9,4.3-2.7,6.5l-30.6-12.7C63.7,167,64.6,164.8,65.5,162.6z M206,18.7c-113.6,0-206,92.4-206,206
		c0,43,13.1,84.1,37.8,119l2.7,3.8h71.2c18.4,28.1,54.7,45.9,94.3,45.9c39.6,0,76-17.9,94.3-45.9h71.2l2.7-3.8
		c24.8-34.9,37.8-76.1,37.8-119C412,111.1,319.6,18.7,206,18.7z M366.9,338.5h-71.6c-15.3,27.1-49.5,45.9-89.3,45.9
		c-39.8,0-74-18.8-89.3-45.9H45.1C22.3,306.4,8.9,267.1,8.9,224.7C8.9,115.8,97.1,27.6,206,27.6s197.1,88.2,197.1,197.1
		C403.1,267.1,389.7,306.4,366.9,338.5z M302.7,169.2c4.2,7.2,7.5,14.9,9.9,22.8l47-20.3c-2.7-7.8-6-15.5-9.9-22.8L302.7,169.2z
		 M317.9,180.1c-0.9-2.2-1.8-4.4-2.8-6.5l30.4-13.2c1,2.1,1.9,4.3,2.8,6.5L317.9,180.1z M311.7,101.3l-36.2,36.2
		c6.5,5.2,12.4,11.1,17.6,17.6l36.2-36.2C323.9,112.6,318,106.7,311.7,101.3z M293.6,142.1c-1.6-1.7-3.3-3.4-5-5l23.4-23.4
		c1.7,1.6,3.4,3.3,5,5L293.6,142.1z M256.5,70.2l-19.6,47.3c8,2.3,15.7,5.5,23,9.5l19.6-47.3C272.1,76,264.4,72.8,256.5,70.2z
		 M255.3,114.8c-2.1-1-4.3-1.9-6.5-2.7l12.7-30.6c2.2,0.9,4.4,1.8,6.5,2.7L255.3,114.8z M224.6,234.2L206,147.2l-18.5,86.9
		c-11.8,6.5-19.8,19.1-19.8,33.6c0,21.2,17.2,38.4,38.4,38.4s38.4-17.2,38.4-38.4C244.4,253.3,236.4,240.7,224.6,234.2z M206,297.3
		c-16.2,0-29.5-13.2-29.5-29.5c0-10.7,5.8-20.6,15.2-25.8l3.5-2L206,190l10.7,50.1l3.5,2c9.4,5.2,15.2,15.1,15.2,25.8
		C235.5,284,222.2,297.3,206,297.3z M218.4,113.9V62.7c-4.2-0.3-8.4-0.5-12.4-0.5s-8.2,0.2-12.4,0.5v51.2c4.1-0.5,8.3-0.7,12.4-0.7
		C210.1,113.2,214.3,113.4,218.4,113.9z M202.5,71.2c2.4-0.1,4.7-0.1,7.1,0v33.2c-1.2-0.1-2.4-0.1-3.5-0.1s-2.3,0-3.5,0.1V71.2z
		 M154.8,70.5c-7.9,2.6-15.6,5.8-22.9,9.6l19.8,47.2c7.3-4.1,15-7.3,22.9-9.6L154.8,70.5z M143.4,84.4c2.2-1,4.3-1.9,6.5-2.7
		l12.8,30.6c-2.2,0.8-4.4,1.8-6.5,2.7L143.4,84.4z M82.7,118.9l36.2,36.2c5.2-6.5,11.1-12.4,17.6-17.6l-36.2-36.2
		C94,106.7,88.1,112.6,82.7,118.9z M118.4,142.1L95,118.6c1.6-1.7,3.3-3.4,5-5l23.4,23.4C121.7,138.7,120,140.3,118.4,142.1z
		 M51.6,174.1l47.3,19.6c2.3-8,5.5-15.7,9.5-23l-47.3-19.6C57.4,158.6,54.2,166.3,51.6,174.1z M65.5,162.6l30.6,12.7
		c-1,2.1-1.9,4.3-2.7,6.5l-30.6-12.7C63.7,167,64.6,164.8,65.5,162.6z"/>
</g>
</svg>
