<?xml version="1.0" encoding="utf-8"?>
<!-- Generator: Adobe Illustrator 18.1.0, SVG Export Plug-In . SVG Version: 6.00 Build 0)  -->
<!DOCTYPE svg PUBLIC "-//W3C//DTD SVG 1.1//EN" "http://www.w3.org/Graphics/SVG/1.1/DTD/svg11.dtd">
<svg version="1.1" id="Layer_1" xmlns="http://www.w3.org/2000/svg" xmlns:xlink="http://www.w3.org/1999/xlink" x="0px" y="0px"
	 viewBox="0 0 412 412" enable-background="new 0 0 412 412" xml:space="preserve">
<g>
	<g>
		<path fill="#1D1D1B" d="M166,332.5c0,8.7-4.5,14.6-8.3,18l-18.2,12.2l132.8,0.1l-17.1-11.2l-1.2-1.1c-3.8-3.4-8.3-9.3-8.3-18v-9.9
			H166L166,332.5z M239.7,323v9.5c0,10.3,5,17.8,10.3,22.6c0.6,0.5,1.2,1.2,1.7,1.5h-91.7c0.6-0.4,1.2-1,1.8-1.5
			c5.3-4.7,10.3-12.2,10.3-22.5l0-9.5H239.7z"/>
	</g>
	<g>
		<path fill="#1D1D1B" d="M20.9,68.7v198.2h370V68.7H20.9z M390.5,266.1H21.3v-197h369.2V266.1z"/>
	</g>
	<g>
		<g>
			<path fill="#1D1D1B" stroke="#000000" stroke-width="4" stroke-miterlimit="10" d="M410,60.6c-0.7-6.5-6.1-11.4-12.4-11.4H14.2
				C7.5,49.2,2,54.7,2,61.4v248.9c0,6.8,5.5,12.2,12.2,12.2h383.3c6.7,0,12.3-5.6,12.3-12.2l0.1-40.1L410,60.6z M403.9,270.3
				l-0.1,40c0,3.4-2.9,6.2-6.2,6.2H14.2c-3.4,0-6.1-2.8-6.2-6.2l0-40l0-208.9c0-3.3,2.8-6.1,6.2-6.1h383.3c3.3,0,5.9,2.6,6.3,6
				V270.3z"/>
		</g>
	</g>
	<g>
		<path fill="#1D1D1B" d="M80.5,112.2v124.9h25.6V112.2H80.5z M98,228.7h-9.2V120.6H98V228.7z"/>
	</g>
	<g>
		<path fill="#1D1D1B" d="M110.3,180.5v56.5h25.6v-56.5H110.3z M127.5,228.7h-8.8v-40.1h8.8V228.7z"/>
	</g>
	<g>
		<path fill="#1D1D1B" d="M21.3,69.1v197h369.2v-197H21.3z M384.4,260h-357V75.2h357V260z"/>
	</g>
	<g>
		<path fill="#1D1D1B" d="M50.7,146.6v90.5h25.6v-90.5H50.7z M68.3,228.7h-9.2V155h9.2V228.7z"/>
	</g>
	<g>
		<path fill="#1D1D1B" d="M140.1,84.3v152.7h25.6V84.3H140.1z M157.2,228.7h-8.8V92.7h8.8V228.7z"/>
	</g>
	<g>
		<path fill="#1D1D1B" d="M289.2,138.7c-25.2,0-45.7,20.5-45.7,45.8s20.5,45.8,45.7,45.8c25.2,0,45.7-20.5,45.7-45.8
			S314.4,138.7,289.2,138.7z M285.2,221.8c-18.7-2.1-33.4-18-33.4-37.3c0-20.7,16.8-37.4,37.4-37.4c19.3,0,35.2,14.4,37.2,33.5
			h-41.3V221.8z M326.4,188.6c-1.9,17.4-15.7,31.2-33.1,33.1c-0.1,0-0.1,0-0.2,0v-33.2L326.4,188.6L326.4,188.6z"/>
	</g>
</g>
</svg>
