<?xml version="1.0" encoding="utf-8"?>
<!-- Generator: Adobe Illustrator 18.1.0, SVG Export Plug-In . SVG Version: 6.00 Build 0)  -->
<!DOCTYPE svg PUBLIC "-//W3C//DTD SVG 1.1//EN" "http://www.w3.org/Graphics/SVG/1.1/DTD/svg11.dtd">
<svg version="1.1" id="Layer_1" xmlns="http://www.w3.org/2000/svg" xmlns:xlink="http://www.w3.org/1999/xlink" x="0px" y="0px"
	 viewBox="0 0 841.9 595.3" enable-background="new 0 0 841.9 595.3" xml:space="preserve">
<g>
	<g>
		<path fill="#B9C1D0" d="M363.2,480.4c0,12.6-6.5,21.1-12,26L324.9,524l191.9,0.1L492,508l-1.7-1.6c-5.5-4.9-12-13.4-12-26v-14.3
			H363.2V480.4z M469.6,466.7v13.7c0,14.9,7.2,25.7,14.9,32.7c0.9,0.7,1.7,1.7,2.5,2.2H354.5c0.9-0.6,1.7-1.4,2.6-2.2
			c7.7-6.8,14.9-17.6,14.9-32.5v-13.7h97.7V466.7z"/>
	</g>
	<g>
		<path fill="#B9C1D0" d="M153.5,99.3v286.4h534.6V99.3H153.5z M687.5,384.5H154.1V99.8h533.4V384.5z"/>
	</g>
	<g>
		<g>
			<path fill="#B9C1D0" d="M715.7,87.6c-1-9.4-8.8-16.5-17.9-16.5h-554c-9.7,0-17.6,7.9-17.6,17.6v359.6c0,9.8,7.9,17.6,17.6,17.6
				h553.8c9.7,0,17.8-8.1,17.8-17.6l0.1-57.9L715.7,87.6z M706.9,390.5l-0.1,57.8c0,4.9-4.2,9-9,9h-554c-4.9,0-8.8-4-9-9v-57.8V88.7
				c0-4.8,4-8.8,9-8.8h553.8c4.8,0,8.5,3.8,9.1,8.7v302H706.9z"/>
		</g>
	</g>
	<g>
		<path fill="#B9C1D0" d="M239.6,162.1v180.5h37V162.1H239.6z M264.9,330.4h-13.3V174.2h13.3V330.4z"/>
	</g>
	<g>
		<path fill="#B9C1D0" d="M282.7,260.8v81.6h37v-81.6H282.7z M307.5,330.4h-12.7v-57.9h12.7V330.4z"/>
	</g>
	<g>
		<path fill="#B9C1D0" d="M154.1,99.8v284.6h533.4V99.8L154.1,99.8L154.1,99.8z M678.7,375.7H162.9v-267h515.8V375.7z"/>
	</g>
	<g>
		<path fill="#B9C1D0" d="M196.6,211.8v130.8h37V211.8H196.6z M222,330.4h-13.3V224H222V330.4z"/>
	</g>
	<g>
		<path fill="#B9C1D0" d="M325.7,121.8v220.6h37V121.8H325.7z M350.4,330.4h-12.7V133.9h12.7V330.4z"/>
	</g>
	<g>
		<path fill="#B9C1D0" d="M541.2,200.4c-36.4,0-66,29.6-66,66.2s29.6,66.2,66,66.2s66-29.6,66-66.2S577.6,200.4,541.2,200.4z
			 M535.4,320.5c-27-3-48.3-26-48.3-53.9c0-29.9,24.3-54,54-54c27.9,0,50.9,20.8,53.7,48.4h-59.7v59.5H535.4z M594.9,272.5
			c-2.7,25.1-22.7,45.1-47.8,47.8c-0.1,0-0.1,0-0.3,0v-48L594.9,272.5L594.9,272.5z"/>
	</g>
</g>
</svg>
