<?xml version="1.0" encoding="utf-8"?>
<!-- Generator: Adobe Illustrator 18.1.0, SVG Export Plug-In . SVG Version: 6.00 Build 0)  -->
<!DOCTYPE svg PUBLIC "-//W3C//DTD SVG 1.1//EN" "http://www.w3.org/Graphics/SVG/1.1/DTD/svg11.dtd">
<svg version="1.1" id="Layer_1" xmlns="http://www.w3.org/2000/svg" xmlns:xlink="http://www.w3.org/1999/xlink" x="0px" y="0px"
	 viewBox="0 0 412 412" enable-background="new 0 0 412 412" xml:space="preserve">
<g>
	<path d="M374.1,50.3H0V94h374.1V50.3z M367.5,86H9.5V58.3h358V86z"/>
	<path d="M0,361.7h374.1V318H0V361.7z M9.5,326h358v27.7H9.5V326z"/>
	<path d="M319,250.8l33.9,19.7L412,206l-59.2-64.4l-33.5,22l21,19.7H0v43.7h342.5L319,250.8z M9.5,218.9v-27.7h352.3l-10.3-9.9
		l-17.8-16.7L353,152l49.6,54l-49.8,54.4l-19.4-11.3l20.6-20.9l0.6-0.6l8.9-8.6H9.5z"/>
</g>
</svg>
