<?xml version="1.0" encoding="utf-8"?>
<!-- Generator: Adobe Illustrator 18.1.0, SVG Export Plug-In . SVG Version: 6.00 Build 0)  -->
<!DOCTYPE svg PUBLIC "-//W3C//DTD SVG 1.1//EN" "http://www.w3.org/Graphics/SVG/1.1/DTD/svg11.dtd">
<svg version="1.1" id="Layer_1" xmlns="http://www.w3.org/2000/svg" xmlns:xlink="http://www.w3.org/1999/xlink" x="0px" y="0px"
	 viewBox="0 0 412 412" enable-background="new 0 0 412 412" xml:space="preserve">
<g>
	<g>
		<g>
			<path fill="#1D1D1B" d="M122.2,179.5l-39.4-30.6l3.2-4.2c19.6-25.2,45.9-43.3,76.3-52.3l3.5-1l2.2,2.9
				c8.9,11.8,22.5,18.6,37.3,18.6s28.4-6.8,37.3-18.6l2.2-2.9l3.5,1c30.1,8.9,56.4,26.8,75.9,51.8l3.3,4.2l-39.3,30.8l-3.2-4.2
				c-19.3-24.7-48.3-38.9-79.6-38.9c-31.5,0-60.6,14.3-79.9,39.2L122.2,179.5z M97.6,147l22.8,17.7c21.2-25,51.9-39.2,84.9-39.2
				c32.8,0,63.3,14.1,84.6,38.9l22.7-17.8c-17-20.2-39-35-63.9-43.1c-10.9,12.7-26.5,19.9-43.3,19.9c-16.9,0-32.5-7.2-43.3-19.9
				C136.7,111.6,114.7,126.6,97.6,147z"/>
		</g>
		<g>
			<path fill="#1D1D1B" d="M205.1,105.6c-15.1,0-29-6.9-38.1-19c-6.3-8.3-9.6-18.3-9.6-28.7c0-26.3,21.4-47.8,47.7-47.8
				c26.3,0,47.7,21.4,47.7,47.8c0,10.5-3.3,20.4-9.6,28.7C234.2,98.5,220,105.6,205.1,105.6z M205.1,20.6
				c-20.5,0-37.2,16.7-37.2,37.2c0,8.2,2.6,15.9,7.5,22.4c7.1,9.4,17.9,14.8,29.7,14.8c11.8,0,22.6-5.4,29.7-14.8
				c4.9-6.5,7.5-14.2,7.5-22.4C242.3,37.3,225.6,20.6,205.1,20.6z"/>
		</g>
	</g>
	<g>
		<g>
			<path fill="#1D1D1B" d="M211.2,402h-5.3v-50h5.3c55.7,0,101-45.3,101-101.1c0-22.8-7.4-44.3-21.4-62.2l-3.2-4.2l39.3-30.8
				l3.2,4.2c20.9,26.8,32,58.9,32,93c0,14.9-2.2,29.6-6.4,43.7l-1,3.3l-3.4,0.4c-23.4,2.8-41.1,22.7-41.1,46.4
				c0,4.8,0.7,9.6,2.2,14.1l1,3.3l-2.6,2.3C283.2,388.6,247.9,402,211.2,402z M216.4,362.4v28.9c31.1-1.2,61-12.6,84.8-32.7
				c-1.1-4.5-1.7-9.2-1.7-13.9c0-27.8,19.9-51.4,46.9-56.3c3.4-12.1,5.1-24.7,5.1-37.5c0-29.9-9.2-58.3-26.6-82.3l-22.7,17.8
				c13.4,18.9,20.5,41.1,20.5,64.5C322.7,310.7,275.5,359.7,216.4,362.4z"/>
		</g>
		<g>
			<path fill="#1D1D1B" d="M364.3,397c-14.9,0-29.1-7.1-38.1-19.1c-6.3-8.3-9.6-18.2-9.6-28.7c0-26.3,21.4-47.8,47.7-47.8
				s47.7,21.4,47.7,47.8c0,10.5-3.3,20.4-9.6,28.7C393.3,390.1,379.4,397,364.3,397z M364.3,312c-20.5,0-37.2,16.7-37.2,37.2
				c0,8.2,2.6,15.9,7.5,22.4c7.1,9.4,17.9,14.9,29.7,14.9c11.8,0,22.6-5.4,29.7-14.8c4.9-6.5,7.5-14.2,7.5-22.4
				C401.5,328.7,384.8,312,364.3,312z"/>
		</g>
	</g>
	<g>
		<g>
			<path fill="#1D1D1B" d="M204.6,402h-5.3c-36.7,0-72.1-13.4-99.6-37.6l-2.6-2.3l1-3.3c1.4-4.6,2.2-9.3,2.2-14.1
				c0-23.7-17.7-43.6-41.1-46.4l-3.4-0.4l-1-3.3c-4.3-14.1-6.4-28.8-6.4-43.7c0-33.8,10.9-65.8,31.6-92.5l3.2-4.2l39.4,30.6
				l-3.2,4.2c-13.8,17.8-21.1,39.2-21.1,61.9c0,55.7,45.3,101.1,101,101.1h5.3V402z M109.3,358.6c23.9,20,53.7,31.5,84.8,32.7v-28.9
				c-59-2.8-106.2-51.7-106.2-111.5c0-23.2,7-45.3,20.2-64.1l-22.8-17.7C68.1,193,59,221.2,59,250.9c0,12.7,1.7,25.3,5.1,37.5
				c27,4.9,46.9,28.5,46.9,56.3C111,349.4,110.4,354.1,109.3,358.6z"/>
		</g>
		<g>
			<path fill="#1D1D1B" d="M47.7,397c-14.9,0-29.1-7.1-38.1-19.1C3.3,369.7,0,359.7,0,349.3c0-26.3,21.4-47.8,47.7-47.8
				s47.7,21.4,47.7,47.8c0,10.5-3.3,20.4-9.6,28.7C76.7,390.1,62.8,397,47.7,397z M47.7,312c-20.5,0-37.2,16.7-37.2,37.2
				c0,8.2,2.6,15.9,7.5,22.4c7.1,9.4,17.9,14.9,29.7,14.9c11.8,0,22.6-5.4,29.7-14.8c4.9-6.5,7.5-14.2,7.5-22.4
				C84.9,328.7,68.2,312,47.7,312z"/>
		</g>
	</g>
</g>
</svg>
