<?xml version="1.0" encoding="utf-8"?>
<!-- Generator: Adobe Illustrator 18.1.0, SVG Export Plug-In . SVG Version: 6.00 Build 0)  -->
<!DOCTYPE svg PUBLIC "-//W3C//DTD SVG 1.1//EN" "http://www.w3.org/Graphics/SVG/1.1/DTD/svg11.dtd">
<svg version="1.1" id="Layer_1" xmlns="http://www.w3.org/2000/svg" xmlns:xlink="http://www.w3.org/1999/xlink" x="0px" y="0px"
	 viewBox="0 0 841.9 595.3" enable-background="new 0 0 841.9 595.3" xml:space="preserve">
<g>
	<g>
		<g>
			<path fill="#B9C1D0" d="M299.9,259.4l-56.9-44.2l4.6-6.1c28.3-36.4,66.3-62.6,110.2-75.6l5.1-1.4l3.2,4.2
				c12.9,17,32.5,26.9,53.9,26.9s41-9.8,53.9-26.9l3.2-4.2l5.1,1.4c43.5,12.9,81.5,38.7,109.7,74.8l4.8,6.1l-56.8,44.5l-4.6-6.1
				c-27.9-35.7-69.8-56.2-115-56.2c-45.5,0-87.6,20.7-115.4,56.6L299.9,259.4z M264.3,212.4l32.9,25.6c30.6-36.1,75-56.6,122.7-56.6
				c47.4,0,91.5,20.4,122.2,56.2l32.8-25.7c-24.6-29.2-56.3-50.6-92.3-62.3c-15.7,18.3-38.3,28.8-62.6,28.8
				c-24.4,0-47-10.4-62.6-28.8C320.8,161.2,289,182.9,264.3,212.4z"/>
		</g>
		<g>
			<path fill="#B9C1D0" d="M419.6,152.6c-21.8,0-41.9-10-55-27.5c-9.1-12-13.9-26.4-13.9-41.5c0-38,30.9-69.1,68.9-69.1
				s68.9,30.9,68.9,69.1c0,15.2-4.8,29.5-13.9,41.5C461.7,142.3,441.2,152.6,419.6,152.6z M419.6,29.8c-29.6,0-53.7,24.1-53.7,53.7
				c0,11.8,3.8,23,10.8,32.4c10.3,13.6,25.9,21.4,42.9,21.4s32.7-7.8,42.9-21.4c7.1-9.4,10.8-20.5,10.8-32.4
				C473.4,53.9,449.3,29.8,419.6,29.8z"/>
		</g>
	</g>
	<g>
		<g>
			<path fill="#B9C1D0" d="M428.5,580.8h-7.7v-72.2h7.7c80.5,0,145.9-65.5,145.9-146.1c0-32.9-10.7-64-30.9-89.9l-4.6-6.1l56.8-44.5
				l4.6,6.1c30.2,38.7,46.2,85.1,46.2,134.4c0,21.5-3.2,42.8-9.2,63.1l-1.4,4.8l-4.9,0.6c-33.8,4-59.4,32.8-59.4,67
				c0,6.9,1,13.9,3.2,20.4l1.4,4.8l-3.8,3.3C532.5,561.5,481.5,580.8,428.5,580.8z M436,523.6v41.8c44.9-1.7,88.1-18.2,122.5-47.2
				c-1.6-6.5-2.5-13.3-2.5-20.1c0-40.2,28.8-74.3,67.8-81.3c4.9-17.5,7.4-35.7,7.4-54.2c0-43.2-13.3-84.2-38.4-118.9l-32.8,25.7
				c19.4,27.3,29.6,59.4,29.6,93.2C589.6,448.9,521.4,519.7,436,523.6z"/>
		</g>
		<g>
			<path fill="#B9C1D0" d="M649.7,573.6c-21.5,0-42-10.3-55-27.6c-9.1-12-13.9-26.3-13.9-41.5c0-38,30.9-69.1,68.9-69.1
				s68.9,30.9,68.9,69.1c0,15.2-4.8,29.5-13.9,41.5C691.6,563.6,671.5,573.6,649.7,573.6z M649.7,450.8c-29.6,0-53.7,24.1-53.7,53.7
				c0,11.8,3.8,23,10.8,32.4c10.3,13.6,25.9,21.5,42.9,21.5c17,0,32.7-7.8,42.9-21.4c7.1-9.4,10.8-20.5,10.8-32.4
				C703.4,474.9,679.3,450.8,649.7,450.8z"/>
		</g>
	</g>
	<g>
		<g>
			<path fill="#B9C1D0" d="M418.9,580.8h-7.7c-53,0-104.2-19.4-143.9-54.3l-3.8-3.3l1.4-4.8c2-6.6,3.2-13.4,3.2-20.4
				c0-34.2-25.6-63-59.4-67l-4.9-0.6l-1.4-4.8c-6.2-20.4-9.2-41.6-9.2-63.1c0-48.8,15.7-95.1,45.7-133.6l4.6-6.1l56.9,44.2l-4.6,6.1
				c-19.9,25.7-30.5,56.6-30.5,89.4c0,80.5,65.5,146.1,145.9,146.1h7.7V580.8z M281.2,518.1c34.5,28.9,77.6,45.5,122.5,47.2v-41.8
				c-85.2-4-153.4-74.7-153.4-161.1c0-33.5,10.1-65.5,29.2-92.6l-32.9-25.6c-24.9,34.5-38,75.3-38,118.2c0,18.3,2.5,36.6,7.4,54.2
				c39,7.1,67.8,41.2,67.8,81.3C283.7,504.8,282.8,511.6,281.2,518.1z"/>
		</g>
		<g>
			<path fill="#B9C1D0" d="M192.2,573.6c-21.5,0-42-10.3-55-27.6c-9.1-11.8-13.9-26.3-13.9-41.3c0-38,30.9-69.1,68.9-69.1
				s68.9,30.9,68.9,69.1c0,15.2-4.8,29.5-13.9,41.5C234.1,563.6,214,573.6,192.2,573.6z M192.2,450.8c-29.6,0-53.7,24.1-53.7,53.7
				c0,11.8,3.8,23,10.8,32.4c10.3,13.6,25.9,21.5,42.9,21.5s32.7-7.8,42.9-21.4c7.1-9.4,10.8-20.5,10.8-32.4
				C246,474.9,221.8,450.8,192.2,450.8z"/>
		</g>
	</g>
</g>
</svg>
