<?xml version="1.0" encoding="utf-8"?>
<!-- Generator: Adobe Illustrator 18.1.0, SVG Export Plug-In . SVG Version: 6.00 Build 0)  -->
<!DOCTYPE svg PUBLIC "-//W3C//DTD SVG 1.1//EN" "http://www.w3.org/Graphics/SVG/1.1/DTD/svg11.dtd">
<svg version="1.1" id="Layer_1" xmlns="http://www.w3.org/2000/svg" xmlns:xlink="http://www.w3.org/1999/xlink" x="0px" y="0px"
	 viewBox="0 0 841.9 595.3" enable-background="new 0 0 841.9 595.3" xml:space="preserve">
<g>
	<path fill="#B9C1D0" d="M470.9,132.6v55.2h-16.2c-3.8-12.3-15.2-21.1-28.8-21.1c-16.6,0-30.1,13.4-30.1,30.1
		c0,14.3,10.1,26.3,23.4,29.3v65.3c-13.4,3-23.4,15-23.4,29.3c0,1.4,0.1,3,0.3,4.3h-25.4v-52.3H123.3v118.5H371v-38.7h48.5v109.8
		H447V342.4c5.6-5.5,9.2-13.1,9.2-21.7s-3.5-16.2-9.2-21.7v-80.6c1-1,1.9-2,2.7-3.2h21.2v35.8h247.6V132.6H470.9z M351.7,372.2
		H142.5V292h209.2V372.2z M426,331.6c-6.1,0-11-4.9-11-11c0-5.9,4.9-10.8,11-10.8c5.9,0,10.8,4.9,10.8,10.8
		C437,326.7,432.1,331.6,426,331.6z M426,207.8c-6.1,0-11-4.9-11-10.8c0-6.1,4.9-10.8,11-10.8c5.9,0,10.8,4.9,10.8,10.8
		C437,202.9,432.1,207.8,426,207.8z M699.4,231.9H490.2v-80.2h209.2V231.9z"/>
</g>
</svg>
