<?xml version="1.0" encoding="utf-8"?>
<!-- Generator: Adobe Illustrator 18.1.0, SVG Export Plug-In . SVG Version: 6.00 Build 0)  -->
<!DOCTYPE svg PUBLIC "-//W3C//DTD SVG 1.1//EN" "http://www.w3.org/Graphics/SVG/1.1/DTD/svg11.dtd">
<svg version="1.1" id="Layer_1" xmlns="http://www.w3.org/2000/svg" xmlns:xlink="http://www.w3.org/1999/xlink" x="0px" y="0px"
	 viewBox="0 0 412 412" enable-background="new 0 0 412 412" xml:space="preserve">
<g>
	<path fill="#1D1D1B" d="M240.6,91.8V130h-11.2c-2.6-8.5-10.5-14.6-19.9-14.6c-11.5,0-20.8,9.3-20.8,20.8c0,9.9,7,18.2,16.2,20.3
		v45.2c-9.3,2.1-16.2,10.4-16.2,20.3c0,1,0.1,2.1,0.2,3h-17.6v-36.2H0v82h171.4V244H205v76h19V237c3.9-3.8,6.4-9.1,6.4-15
		c0-5.9-2.4-11.2-6.4-15v-55.8c0.7-0.7,1.3-1.4,1.9-2.2h14.7v24.8H412v-82H240.6z M158.1,257.6H13.3v-55.5h144.8V257.6z
		 M209.5,229.5c-4.2,0-7.6-3.4-7.6-7.6c0-4.1,3.4-7.5,7.6-7.5c4.1,0,7.5,3.4,7.5,7.5C217.1,226.1,213.7,229.5,209.5,229.5z
		 M209.5,143.8c-4.2,0-7.6-3.4-7.6-7.5c0-4.2,3.4-7.5,7.6-7.5c4.1,0,7.5,3.4,7.5,7.5C217.1,140.4,213.7,143.8,209.5,143.8z
		 M398.7,160.5H253.9V105h144.8V160.5z"/>
</g>
</svg>
