<?xml version="1.0" encoding="utf-8"?>
<!-- Generator: Adobe Illustrator 18.1.0, SVG Export Plug-In . SVG Version: 6.00 Build 0)  -->
<!DOCTYPE svg PUBLIC "-//W3C//DTD SVG 1.1//EN" "http://www.w3.org/Graphics/SVG/1.1/DTD/svg11.dtd">
<svg version="1.1" id="Layer_1" xmlns="http://www.w3.org/2000/svg" xmlns:xlink="http://www.w3.org/1999/xlink" x="0px" y="0px"
	 viewBox="0 0 412 412" enable-background="new 0 0 412 412" xml:space="preserve">
<g>
	<path fill="none" d="M19.4,262.7h373.2V149.3H19.4V262.7z M305.4,185.1h38.8v48.5h-38.8V185.1z M169.6,185.1h38.8h38.8H286v48.5
		h-38.8h-38.8h-38.8V185.1z M33.9,185.1h38.8h38.8h38.8v48.5h-38.8H72.7H33.9V185.1z"/>
	<path fill="#1D1D1B" d="M0,129.9v152.3h412V129.9H0z M392.6,262.7H19.4V149.3h373.2V262.7z"/>
	<polygon fill="#1D1D1B" points="111.5,233.6 150.3,233.6 150.3,185.1 111.5,185.1 72.7,185.1 33.9,185.1 33.9,233.6 72.7,233.6 	
		"/>
	<polygon fill="#1D1D1B" points="247.2,233.6 286,233.6 286,185.1 247.2,185.1 208.4,185.1 169.6,185.1 169.6,233.6 208.4,233.6 	
		"/>
	<rect x="305.4" y="185.1" fill="#1D1D1B" width="38.8" height="48.5"/>
</g>
</svg>
