<?xml version="1.0" encoding="utf-8"?>
<!-- Generator: Adobe Illustrator 18.1.0, SVG Export Plug-In . SVG Version: 6.00 Build 0)  -->
<!DOCTYPE svg PUBLIC "-//W3C//DTD SVG 1.1//EN" "http://www.w3.org/Graphics/SVG/1.1/DTD/svg11.dtd">
<svg version="1.1" id="Layer_1" xmlns="http://www.w3.org/2000/svg" xmlns:xlink="http://www.w3.org/1999/xlink" x="0px" y="0px"
	 viewBox="0 0 841.9 595.3" enable-background="new 0 0 841.9 595.3" xml:space="preserve">
<g>
	<g>
		<g>
			<g>
				<g>
					<g>
						<path fill="#B9C1D0" d="M296.5,279.6h-41.3v-43.2h41.3V279.6z M267.4,267.6h17.2v-19.1h-17.2V267.6z"/>
					</g>
				</g>
			</g>
			<g>
				<g>
					<g>
						<path fill="#B9C1D0" d="M296.5,328.1h-41.3v-43.2h41.3V328.1z M267.4,316h17.2v-19.1h-17.2V316z"/>
					</g>
				</g>
			</g>
			<g>
				<g>
					<g>
						<path fill="#B9C1D0" d="M296.5,376.5h-41.3v-43.2h41.3V376.5z M267.4,364.4h17.2v-19.1h-17.2V364.4z"/>
					</g>
				</g>
			</g>
			<g>
				<g>
					<g>
						<path fill="#B9C1D0" d="M296.5,425.1h-41.3v-43.2h41.3V425.1z M267.4,412.9h17.2v-19.1h-17.2V412.9z"/>
					</g>
				</g>
			</g>
			<g>
				<g>
					<g>
						<path fill="#B9C1D0" d="M344.9,425.1h-41.3v-43.2h41.3V425.1z M315.6,412.9h17.2v-19.1h-17.2V412.9z"/>
					</g>
				</g>
			</g>
			<g>
				<g>
					<g>
						<path fill="#B9C1D0" d="M344.9,376.5h-41.3v-43.2h29.6l11.7,10.4V376.5z M315.6,364.4h17.2v-19.1h-17.2V364.4z"/>
					</g>
				</g>
			</g>
			<g>
				<g>
					<g>
						<path fill="#B9C1D0" d="M332.2,328.1h-28.8v-43.2h41.3v20.7L332.2,328.1z M315.6,316h17.2v-19.1h-17.2V316z"/>
					</g>
				</g>
			</g>
			<g>
				<g>
					<g>
						<path fill="#B9C1D0" d="M344.9,279.6h-41.3v-43.2h41.3V279.6z M315.6,267.6h17.2v-19.1h-17.2V267.6z"/>
					</g>
				</g>
			</g>
			<g>
				<g>
					<g>
						<path fill="#B9C1D0" d="M393.2,425.1h-41.3v-43.2h17l24.3,31.6V425.1z M364,412.9h17.2v-12.3l-5.8-6.8h-11.3v19.1H364z"/>
					</g>
				</g>
			</g>
			<g>
				<g>
					<g>
						<path fill="#B9C1D0" d="M482.2,236.4h7.7v11.7L482.2,236.4z"/>
					</g>
				</g>
			</g>
			<g>
				<g>
					<g>
						<path fill="#B9C1D0" d="M490,376.5h-13.3l13.3-25.4V376.5z"/>
					</g>
				</g>
			</g>
			<g>
				<g>
					<g>
						<path fill="#B9C1D0" d="M490,425.1h-39.4h-1.9l25-43.2H490V425.1z M460.7,412.9h17.2v-19.1h-5.9l-11.1,17.5v1.6H460.7z"/>
					</g>
				</g>
			</g>
			<g>
				<g>
					<g>
						<path fill="#B9C1D0" d="M538.3,425.1h-41.3v-43.2h41.3V425.1z M509.1,412.9h17.2v-19.1h-17.2V412.9z"/>
					</g>
				</g>
			</g>
			<g>
				<g>
					<g>
						<path fill="#B9C1D0" d="M538.3,376.5h-41.3v-43.2h41.3V376.5z M509.1,364.4h17.2v-19.1h-17.2V364.4z"/>
					</g>
				</g>
			</g>
			<g>
				<g>
					<g>
						<path fill="#B9C1D0" d="M538.3,328.1h-41.3v-43.2h41.3V328.1z M509.1,316h17.2v-19.1h-17.2V316z"/>
					</g>
				</g>
			</g>
			<g>
				<g>
					<g>
						<path fill="#B9C1D0" d="M538.3,279.6h-41.3v-43.2h41.3V279.6z M509.1,267.6h17.2v-19.1h-17.2V267.6z"/>
					</g>
				</g>
			</g>
			<g>
				<g>
					<g>
						<path fill="#B9C1D0" d="M586.7,279.6h-41.3v-43.2h41.3V279.6z M557.5,267.6h17.2v-19.1h-17.2V267.6z"/>
					</g>
				</g>
			</g>
			<g>
				<g>
					<g>
						<path fill="#B9C1D0" d="M586.7,328.1h-41.3v-43.2h41.3V328.1z M557.5,316h17.2v-19.1h-17.2V316z"/>
					</g>
				</g>
			</g>
			<g>
				<g>
					<g>
						<path fill="#B9C1D0" d="M586.7,376.5h-41.3v-43.2h41.3V376.5z M557.5,364.4h17.2v-19.1h-17.2V364.4z"/>
					</g>
				</g>
			</g>
			<g>
				<g>
					<g>
						<path fill="#B9C1D0" d="M586.7,425.1h-41.3v-43.2h41.3V425.1z M557.5,412.9h17.2v-19.1h-17.2V412.9z"/>
					</g>
				</g>
			</g>
		</g>
		<g>
			<g>
				<path fill="#B9C1D0" d="M515.3,483.2h111.5l66.6,61.1H588.7v-12.1h73.7l-40.2-37h-75.6L515.3,483.2z M283.5,495.3h-63.9
					l-40.2,37H246l-3.2,12.1h-94.3l66.6-61.1h91.7L283.5,495.3z"/>
			</g>
		</g>
		<g>
			<g>
				<path fill="#B9C1D0" d="M336.4,481.4H211.3V192.7h419.2v288.5h-131l-23-12.1h142V204.7h-395v264.4h141.3"/>
			</g>
		</g>
		<g>
			<g>
				<path fill="#B9C1D0" d="M637.8,189.1H199.9L417.5,66.5L637.8,189.1z M246.1,177h345.2L417.6,80.3L246.1,177z"/>
			</g>
		</g>
		<g>
			<g>
				<path fill="#B9C1D0" d="M423.5,73.4h-12.1V6.8l3.3-1.7c2.6-1.3,25.4-12,35.8,1.7c9.2,12.3,25.9,3.6,26.6,3.2l9-4.8V42l-2.2,1.9
					c-0.6,0.4-12.6,10.7-26.6,9.2c-7.4-0.9-13.6-4.8-18.5-11.6c-1.6-2.2-6.9-0.3-12.3,1.7c-1.2,0.4-2.2,0.9-3.2,1.2v28.9H423.5z
					 M436.8,28.6c4.5,0,8.8,1.4,12,5.9c2.9,4,6.2,6.2,10.1,6.6c5.9,0.7,12.1-2.7,15.2-4.8V24.3c-10.1,2.6-23.8,2.2-32.9-10
					c-2.7-3.6-11.4-1.9-17.6,0.3v17.2C427.2,30.3,432.1,28.6,436.8,28.6z"/>
			</g>
		</g>
	</g>
	<path fill="#B9C1D0" d="M416.8,595.3c-62.9,0-122.7-8.7-172.8-25.3l-5.8-1.9l0.3-5.9c0.4-10.4,1.9-26,6.8-40.9
		c7.4-22.5,19.5-36.3,36.3-40.6l18.2-4.8c18.3-4.8,35.3-9.2,48.7-14c10.1-3.6,16.6-6.6,21.7-10.3c6.4-4.5,9.7-9.5,9.7-15.5l0.1-6.6
		l0.1-2l0.4-8.1l-1.6-1.6c-15-14.7-29-38.3-38.1-64.6l-0.9-2.5l-5.2-1.9c-1.7-1-3.9-3-5.6-5.5c-1.7-2.3-4.2-6.5-5.6-12.6
		c-0.7-3-1.2-6.1-1.2-9.1c-0.1-5.6,1.6-10.3,3.3-12.6l4-3.5V303c-0.1-1.9-0.1-3.8-0.1-5.5c0-52,39-94.6,86.8-95.1h2.2
		c47.5,0.3,86.4,42.9,86.4,95.1c0,1.7,0,3.6-0.1,5.8v2.3l4,3.5c0.9,1.2,3.5,5.5,3.3,13c0,2.7-0.4,5.8-1.2,9
		c-1.2,4.8-3.2,9.2-5.8,12.7c-1.9,2.6-4,4.6-6.1,5.6l-4.8,1.6l-0.9,2.5c-9.1,26.3-23.1,49.8-38.1,64.7l-1.6,1.6l0.7,16.9
		c0,5.8,3.2,10.8,9.7,15.3c13.7,9.4,38.3,15.7,66.8,23.3c7.2,1.9,14.4,3.8,22.1,5.8c16.6,4.3,28.8,17.9,36,40.5
		c4.8,15,6.4,30.5,6.6,40.9l0.3,5.9l-5.8,1.9C539.4,586.6,479.6,595.3,416.8,595.3z M255.1,556.8c47.4,14.7,103.2,22.5,161.7,22.5
		c58.7,0,114.4-7.8,161.7-22.5c-0.6-8.2-2.2-19.8-5.6-30.8c-5.5-17-13.9-27.2-24.7-29.9c-7.7-2-14.9-4-21.8-5.8
		c-17-4.5-32.7-8.5-45.9-13.3c-10.3-3.6-42.5-17.6-42.8-40.6v-2.6v-2.6l-1-17.8l6.8-6.6c13.4-13.3,26-34.5,34.4-58.7l3.8-10.5
		l9.1-2.3c2.5-3,3.5-5.5,4.2-8.1c0.4-1.7,0.6-3.8,0.6-5.5c0-1.4-0.1-2.5-0.3-3.2l-7.2-5.2l0.3-11c0.1-1.9,0.1-3.6,0.1-5.1
		c0-43.5-31.5-79-70.2-79.2l-0.9,0.1l-2-0.1c-38,0.4-69.6,35.8-69.6,79.2c0,1.4,0,3,0.1,4.8l0.3,11.1l-7.2,5.2
		c-0.1,0.6-0.3,1.6-0.3,2.9c0,1.9,0.1,3.8,0.7,5.5c0.9,3.9,2.3,6.2,3.2,7.2l10.3,3.2l3.8,10.8c8.4,24,20.8,45.4,34.2,58.5l6.6,6.6
		l-0.9,16.9l-0.1,2.9v3.2c0,6.2-23.8,35-27.3,36.7c-4.5,2.3-8.2,1.4-14.9,3.8c-14,4.9-31.4,9.5-49.7,14.3l-18.6,4.9
		c-11,2.9-19.4,13-24.9,30.1C257.1,536.9,255.7,548.6,255.1,556.8z"/>
</g>
</svg>
