<?xml version="1.0" encoding="utf-8"?>
<!-- Generator: Adobe Illustrator 18.1.0, SVG Export Plug-In . SVG Version: 6.00 Build 0)  -->
<!DOCTYPE svg PUBLIC "-//W3C//DTD SVG 1.1//EN" "http://www.w3.org/Graphics/SVG/1.1/DTD/svg11.dtd">
<svg version="1.1" id="Layer_1" xmlns="http://www.w3.org/2000/svg" xmlns:xlink="http://www.w3.org/1999/xlink" x="0px" y="0px"
	 viewBox="0 0 412 412" enable-background="new 0 0 412 412" xml:space="preserve">
<g>
	<rect x="236.1" y="281.8" fill="none" width="13" height="14.4"/>
	<rect x="199.5" y="171.7" fill="none" width="13" height="14.4"/>
	<rect x="236.1" y="245.1" fill="none" width="13" height="14.4"/>
	<rect x="236.1" y="208.4" fill="none" width="13" height="14.4"/>
	<rect x="199.5" y="208.4" fill="none" width="13" height="14.4"/>
	<rect x="236.1" y="171.7" fill="none" width="13" height="14.4"/>
	<rect x="89.6" y="245.1" fill="none" width="13" height="14.4"/>
	<rect x="89.6" y="208.4" fill="none" width="13" height="14.4"/>
	<rect x="89.6" y="281.8" fill="none" width="13" height="14.4"/>
	<rect x="199.5" y="281.8" fill="none" width="13" height="14.4"/>
	<rect x="199.5" y="245.1" fill="none" width="13" height="14.4"/>
	<rect x="309.4" y="281.8" fill="none" width="13" height="14.4"/>
	<rect x="196.2" y="326.8" fill="none" width="19.5" height="28.4"/>
	<polygon fill="none" points="203.4,60.8 73.5,133.9 335,133.9 	"/>
	<path fill="none" d="M227.1,26.2c2.2,3,4.7,4.7,7.6,5c4.5,0.5,9.2-2.1,11.5-3.7v-9.2c-7.7,2-18,1.7-25-7.6
		c-2.2-2.8-8.8-1.4-13.3,0.3V24c2.7-1,6.4-2.3,10-2.3C221.4,21.7,224.7,22.8,227.1,26.2z"/>
	<rect x="309.4" y="171.7" fill="none" width="13" height="14.4"/>
	<rect x="309.4" y="208.4" fill="none" width="13" height="14.4"/>
	<rect x="272.8" y="245.1" fill="none" width="13" height="14.4"/>
	<rect x="272.8" y="208.4" fill="none" width="13" height="14.4"/>
	<rect x="272.8" y="281.8" fill="none" width="13" height="14.4"/>
	<rect x="89.6" y="171.7" fill="none" width="13" height="14.4"/>
	<rect x="309.4" y="245.1" fill="none" width="13" height="14.4"/>
	<rect x="272.8" y="171.7" fill="none" width="13" height="14.4"/>
	<rect x="162.9" y="281.8" fill="none" width="13" height="14.4"/>
	<polygon fill="none" points="358.5,374.9 53.5,374.9 23.1,402.8 388.9,402.8 	"/>
	<rect x="162.9" y="245.1" fill="none" width="13" height="14.4"/>
	<rect x="126.2" y="245.1" fill="none" width="13" height="14.4"/>
	<rect x="162.9" y="171.7" fill="none" width="13" height="14.4"/>
	<rect x="126.2" y="171.7" fill="none" width="13" height="14.4"/>
	<rect x="126.2" y="208.4" fill="none" width="13" height="14.4"/>
	<path fill="none" d="M187.1,317.6h37.8v37.6h130.7V155.1H56.3v200.1h130.7V317.6z M201.2,315.4h-5h-5v-6.3h5h5V315.4z M206.2,315.4
		h-5v-6.3h5V315.4z M213.8,315.4h-5v-6.3h5V315.4z M300.3,162.6h31.3v32.7h-31.3V162.6z M300.3,199.3h31.3V232h-31.3V199.3z
		 M300.3,235.9h31.3v32.7h-31.3V235.9z M300.3,272.6h31.3v32.7h-31.3V272.6z M263.6,162.6h31.3v32.7h-31.3V162.6z M263.6,199.3h31.3
		V232h-31.3V199.3z M263.6,235.9h31.3v32.7h-31.3V235.9z M263.6,272.6h31.3v32.7h-31.3V272.6z M227,162.6h31.3v32.7H227V162.6z
		 M227,199.3h31.3V232H227V199.3z M227,235.9h31.3v32.7H227V235.9z M227,272.6h31.3v32.7H227V272.6z M223.9,309.1h5v6.3h-5V309.1z
		 M223.9,315.4h-5h-5v-6.3h5h5V315.4z M190.3,162.6h31.3v32.7h-31.3V162.6z M190.3,199.3h31.3V232h-31.3V199.3z M190.3,235.9h31.3
		v32.7h-31.3V235.9z M190.3,272.6h31.3v32.7h-31.3V272.6z M111.7,305.4H80.4v-32.7h31.3V305.4z M111.7,268.7H80.4v-32.7h31.3V268.7z
		 M111.7,232H80.4v-32.7h31.3V232z M111.7,195.3H80.4v-32.7h31.3V195.3z M148.4,305.4h-31.3v-32.7h31.3V305.4z M148.4,268.7h-31.3
		v-32.7h31.3V268.7z M148.4,232h-31.3v-32.7h31.3V232z M148.4,195.3h-31.3v-32.7h31.3V195.3z M185,305.4h-31.3v-32.7H185V305.4z
		 M185,268.7h-31.3v-32.7H185V268.7z M185,232h-31.3v-32.7H185V232z M185,195.3h-31.3v-32.7H185V195.3z M186,309.1h5v6.3h-5V309.1z"
		/>
	<rect x="162.9" y="208.4" fill="none" width="13" height="14.4"/>
	<rect x="126.2" y="281.8" fill="none" width="13" height="14.4"/>
	<path fill="#1D1D1B" d="M187.1,364.4h37.8h139.9V145.9H47.2v218.5H187.1z M215.8,355.2h-19.5v-28.4h19.5V355.2z M56.3,155.1h299.3
		v200.1H224.9v-37.6h-37.8v37.6H56.3V155.1z"/>
	<path fill="#1D1D1B" d="M208,52.9V33.8c0.8-0.3,1.6-0.6,2.4-0.9c4-1.6,8-3,9.3-1.3c3.7,5.2,8.5,8.1,14,8.8
		c10.6,1.2,19.8-6.7,20.1-7l1.6-1.4l0-27.8l-6.7,3.5c-0.5,0.3-13.1,6.8-20.1-2.4c-7.9-10.4-25.3-2.3-27.2-1.4l-2.6,1.3v47.7
		L38.5,143.1h331.9L208,52.9z M208,11.1c4.5-1.7,11.1-3.1,13.3-0.3c7,9.2,17.3,9.6,25,7.6v9.2c-2.4,1.6-7,4.1-11.5,3.7
		c-2.9-0.3-5.4-2-7.6-5c-2.5-3.4-5.8-4.5-9.1-4.5c-3.6,0-7.3,1.3-10,2.3V11.1z M203.4,60.8L335,133.9H73.5L203.4,60.8z"/>
	<path fill="#1D1D1B" d="M362,365.7H50L-0.5,412h412.9L362,365.7z M53.5,374.9h304.9l30.5,28H23.1L53.5,374.9z"/>
	<path fill="#1D1D1B" d="M80.4,195.3h31.3v-32.7H80.4V195.3z M89.6,171.7h13v14.4h-13V171.7z"/>
	<path fill="#1D1D1B" d="M80.4,232h31.3v-32.7H80.4V232z M89.6,208.4h13v14.4h-13V208.4z"/>
	<path fill="#1D1D1B" d="M80.4,268.7h31.3v-32.7H80.4V268.7z M89.6,245.1h13v14.4h-13V245.1z"/>
	<path fill="#1D1D1B" d="M80.4,305.4h31.3v-32.7H80.4V305.4z M89.6,281.8h13v14.4h-13V281.8z"/>
	<path fill="#1D1D1B" d="M117.1,305.4h31.3v-32.7h-31.3V305.4z M126.2,281.8h13v14.4h-13V281.8z"/>
	<path fill="#1D1D1B" d="M117.1,268.7h31.3v-32.7h-31.3V268.7z M126.2,245.1h13v14.4h-13V245.1z"/>
	<path fill="#1D1D1B" d="M117.1,232h31.3v-32.7h-31.3V232z M126.2,208.4h13v14.4h-13V208.4z"/>
	<path fill="#1D1D1B" d="M117.1,195.3h31.3v-32.7h-31.3V195.3z M126.2,171.7h13v14.4h-13V171.7z"/>
	<path fill="#1D1D1B" d="M153.7,195.3H185v-32.7h-31.3V195.3z M162.9,171.7h13v14.4h-13V171.7z"/>
	<path fill="#1D1D1B" d="M153.7,232H185v-32.7h-31.3V232z M162.9,208.4h13v14.4h-13V208.4z"/>
	<path fill="#1D1D1B" d="M153.7,268.7H185v-32.7h-31.3V268.7z M162.9,245.1h13v14.4h-13V245.1z"/>
	<path fill="#1D1D1B" d="M153.7,305.4H185v-32.7h-31.3V305.4z M162.9,281.8h13v14.4h-13V281.8z"/>
	<path fill="#1D1D1B" d="M221.7,272.6h-31.3v32.7h31.3V272.6z M212.5,296.2h-13v-14.4h13V296.2z"/>
	<path fill="#1D1D1B" d="M221.7,235.9h-31.3v32.7h31.3V235.9z M212.5,259.5h-13v-14.4h13V259.5z"/>
	<path fill="#1D1D1B" d="M221.7,199.3h-31.3V232h31.3V199.3z M212.5,222.8h-13v-14.4h13V222.8z"/>
	<path fill="#1D1D1B" d="M221.7,162.6h-31.3v32.7h31.3V162.6z M212.5,186.1h-13v-14.4h13V186.1z"/>
	<path fill="#1D1D1B" d="M258.3,162.6H227v32.7h31.3V162.6z M249.1,186.1h-13v-14.4h13V186.1z"/>
	<path fill="#1D1D1B" d="M258.3,199.3H227V232h31.3V199.3z M249.1,222.8h-13v-14.4h13V222.8z"/>
	<path fill="#1D1D1B" d="M258.3,235.9H227v32.7h31.3V235.9z M249.1,259.5h-13v-14.4h13V259.5z"/>
	<path fill="#1D1D1B" d="M258.3,272.6H227v32.7h31.3V272.6z M249.1,296.2h-13v-14.4h13V296.2z"/>
	<path fill="#1D1D1B" d="M294.9,272.6h-31.3v32.7h31.3V272.6z M285.8,296.2h-13v-14.4h13V296.2z"/>
	<path fill="#1D1D1B" d="M294.9,235.9h-31.3v32.7h31.3V235.9z M285.8,259.5h-13v-14.4h13V259.5z"/>
	<path fill="#1D1D1B" d="M294.9,199.3h-31.3V232h31.3V199.3z M285.8,222.8h-13v-14.4h13V222.8z"/>
	<path fill="#1D1D1B" d="M294.9,162.6h-31.3v32.7h31.3V162.6z M285.8,186.1h-13v-14.4h13V186.1z"/>
	<path fill="#1D1D1B" d="M331.6,162.6h-31.3v32.7h31.3V162.6z M322.4,186.1h-13v-14.4h13V186.1z"/>
	<path fill="#1D1D1B" d="M331.6,199.3h-31.3V232h31.3V199.3z M322.4,222.8h-13v-14.4h13V222.8z"/>
	<path fill="#1D1D1B" d="M331.6,235.9h-31.3v32.7h31.3V235.9z M322.4,259.5h-13v-14.4h13V259.5z"/>
	<path fill="#1D1D1B" d="M331.6,272.6h-31.3v32.7h31.3V272.6z M322.4,296.2h-13v-14.4h13V296.2z"/>
	<rect x="186" y="309.1" fill="#1D1D1B" width="5" height="6.3"/>
	<polygon fill="#1D1D1B" points="191.1,309.1 191.1,315.4 196.1,315.4 201.2,315.4 201.2,309.1 196.1,309.1 	"/>
	<rect x="201.2" y="309.1" fill="#1D1D1B" width="5" height="6.3"/>
	<rect x="208.8" y="309.1" fill="#1D1D1B" width="5" height="6.3"/>
	<polygon fill="#1D1D1B" points="213.8,309.1 213.8,315.4 218.9,315.4 223.9,315.4 223.9,309.1 218.9,309.1 	"/>
	<rect x="223.9" y="309.1" fill="#1D1D1B" width="5" height="6.3"/>
</g>
</svg>
