<?xml version="1.0" encoding="utf-8"?>
<!-- Generator: Adobe Illustrator 18.1.0, SVG Export Plug-In . SVG Version: 6.00 Build 0)  -->
<!DOCTYPE svg PUBLIC "-//W3C//DTD SVG 1.1//EN" "http://www.w3.org/Graphics/SVG/1.1/DTD/svg11.dtd">
<svg version="1.1" id="Layer_1" xmlns="http://www.w3.org/2000/svg" xmlns:xlink="http://www.w3.org/1999/xlink" x="0px" y="0px"
	 viewBox="0 0 412 412" enable-background="new 0 0 412 412" xml:space="preserve">
<g>
	<g>
		<g>
			<g>
				<g>
					<g>
						<path d="M119.9,193.5H91.3v-29.9h28.6V193.5z M99.7,185.2h11.9V172H99.7V185.2z"/>
					</g>
				</g>
			</g>
			<g>
				<g>
					<g>
						<path d="M119.9,227.1H91.3v-29.9h28.6V227.1z M99.7,218.7h11.9v-13.2H99.7V218.7z"/>
					</g>
				</g>
			</g>
			<g>
				<g>
					<g>
						<path d="M119.9,260.6H91.3v-29.9h28.6V260.6z M99.7,252.2h11.9v-13.2H99.7V252.2z"/>
					</g>
				</g>
			</g>
			<g>
				<g>
					<g>
						<path d="M119.9,294.2H91.3v-29.9h28.6V294.2z M99.7,285.8h11.9v-13.2H99.7V285.8z"/>
					</g>
				</g>
			</g>
			<g>
				<g>
					<g>
						<path d="M153.4,294.2h-28.6v-29.9h28.6V294.2z M133.1,285.8H145v-13.2h-11.9V285.8z"/>
					</g>
				</g>
			</g>
			<g>
				<g>
					<g>
						<path d="M153.4,260.6h-28.6v-29.9h20.5l8.1,7.2V260.6z M133.1,252.2H145v-13.2h-11.9V252.2z"/>
					</g>
				</g>
			</g>
			<g>
				<g>
					<g>
						<path d="M144.6,227.1h-19.9v-29.9h28.6v14.3L144.6,227.1z M133.1,218.7H145v-13.2h-11.9V218.7z"/>
					</g>
				</g>
			</g>
			<g>
				<g>
					<g>
						<path d="M153.4,193.5h-28.6v-29.9h28.6V193.5z M133.1,185.2H145V172h-11.9V185.2z"/>
					</g>
				</g>
			</g>
			<g>
				<g>
					<g>
						<path d="M186.8,294.2h-28.6v-29.9H170l16.8,21.9V294.2z M166.6,285.8h11.9v-8.5l-4-4.7h-7.8V285.8z"/>
					</g>
				</g>
			</g>
			<g>
				<g>
					<g>
						<path d="M248.4,163.6h5.3v8.1L248.4,163.6z"/>
					</g>
				</g>
			</g>
			<g>
				<g>
					<g>
						<path d="M253.8,260.6h-9.2l9.2-17.6V260.6z"/>
					</g>
				</g>
			</g>
			<g>
				<g>
					<g>
						<path d="M253.8,294.2h-27.3h-1.3l17.3-29.9h11.3V294.2z M233.5,285.8h11.9v-13.2h-4.1l-7.7,12.1V285.8z"/>
					</g>
				</g>
			</g>
			<g>
				<g>
					<g>
						<path d="M287.2,294.2h-28.6v-29.9h28.6V294.2z M267,285.8h11.9v-13.2H267V285.8z"/>
					</g>
				</g>
			</g>
			<g>
				<g>
					<g>
						<path d="M287.2,260.6h-28.6v-29.9h28.6V260.6z M267,252.2h11.9v-13.2H267V252.2z"/>
					</g>
				</g>
			</g>
			<g>
				<g>
					<g>
						<path d="M287.2,227.1h-28.6v-29.9h28.6V227.1z M267,218.7h11.9v-13.2H267V218.7z"/>
					</g>
				</g>
			</g>
			<g>
				<g>
					<g>
						<path d="M287.2,193.5h-28.6v-29.9h28.6V193.5z M267,185.2h11.9V172H267V185.2z"/>
					</g>
				</g>
			</g>
			<g>
				<g>
					<g>
						<path d="M320.7,193.5h-28.6v-29.9h28.6V193.5z M300.5,185.2h11.9V172h-11.9V185.2z"/>
					</g>
				</g>
			</g>
			<g>
				<g>
					<g>
						<path d="M320.7,227.1h-28.6v-29.9h28.6V227.1z M300.5,218.7h11.9v-13.2h-11.9V218.7z"/>
					</g>
				</g>
			</g>
			<g>
				<g>
					<g>
						<path d="M320.7,260.6h-28.6v-29.9h28.6V260.6z M300.5,252.2h11.9v-13.2h-11.9V252.2z"/>
					</g>
				</g>
			</g>
			<g>
				<g>
					<g>
						<path d="M320.7,294.2h-28.6v-29.9h28.6V294.2z M300.5,285.8h11.9v-13.2h-11.9V285.8z"/>
					</g>
				</g>
			</g>
		</g>
		<g>
			<g>
				<path d="M271.3,334.4h77.2l46.1,42.3h-72.5l0-8.4h51l-27.8-25.6H293L271.3,334.4z M110.9,342.8H66.7l-27.8,25.6h46l-2.2,8.4
					H17.4l46.1-42.3H127L110.9,342.8z"/>
			</g>
		</g>
		<g>
			<g>
				<path d="M147.5,333.2H60.9V133.4h290.1v199.7h-90.7l-15.9-8.4h98.3v-183H69.3v183h97.8"/>
			</g>
		</g>
		<g>
			<g>
				<path d="M356.1,130.9H53L203.6,46L356.1,130.9z M85,122.5h238.9L203.7,55.6L85,122.5z"/>
			</g>
		</g>
		<g>
			<g>
				<path d="M207.8,50.8h-8.4V4.7l2.3-1.2c1.8-0.9,17.6-8.3,24.8,1.2c6.4,8.5,17.9,2.5,18.4,2.2l6.2-3.3v25.5l-1.5,1.3
					c-0.4,0.3-8.7,7.4-18.4,6.4c-5.1-0.6-9.4-3.3-12.8-8c-1.1-1.5-4.8-0.2-8.5,1.2c-0.8,0.3-1.5,0.6-2.2,0.8V50.8z M217,19.8
					c3.1,0,6.1,1,8.3,4.1c2,2.8,4.3,4.3,7,4.6c4.1,0.5,8.4-1.9,10.5-3.3v-8.4c-7,1.8-16.5,1.5-22.8-6.9c-1.9-2.5-7.9-1.3-12.2,0.2
					V22C210.3,21,213.7,19.8,217,19.8z"/>
			</g>
		</g>
	</g>
	<path d="M203.1,412c-43.5,0-84.9-6-119.6-17.5l-4-1.3l0.2-4.1c0.3-7.2,1.3-18,4.7-28.3c5.1-15.6,13.5-25.1,25.1-28.1l12.6-3.3
		c12.7-3.3,24.4-6.4,33.7-9.7c7-2.5,11.5-4.6,15-7.1c4.4-3.1,6.7-6.6,6.7-10.7l0.1-4.6l0.1-1.4l0.3-5.6l-1.1-1.1
		c-10.4-10.2-20.1-26.5-26.4-44.7l-0.6-1.7l-3.6-1.3c-1.2-0.7-2.7-2.1-3.9-3.8c-1.2-1.6-2.9-4.5-3.9-8.7c-0.5-2.1-0.8-4.2-0.8-6.3
		c-0.1-3.9,1.1-7.1,2.3-8.7l2.8-2.4l0-1.9c-0.1-1.3-0.1-2.6-0.1-3.8c0-36,27-65.5,60.1-65.8l1.5,0c32.9,0.2,59.8,29.7,59.8,65.8
		c0,1.2,0,2.5-0.1,4l0,1.6l2.8,2.4c0.6,0.8,2.4,3.8,2.3,9c0,1.9-0.3,4-0.8,6.2c-0.8,3.3-2.2,6.4-4,8.8c-1.3,1.8-2.8,3.2-4.2,3.9
		l-3.3,1.1l-0.6,1.7c-6.3,18.2-16,34.5-26.4,44.8l-1.1,1.1l0.5,11.7c0,4,2.2,7.5,6.7,10.6c9.5,6.5,26.5,10.9,46.2,16.1
		c5,1.3,10,2.6,15.3,4c11.5,3,19.9,12.4,24.9,28c3.3,10.4,4.4,21.1,4.6,28.3l0.2,4.1l-4,1.3C288,406,246.6,412,203.1,412z
		 M91.2,385.4c32.8,10.2,71.4,15.6,111.9,15.6c40.6,0,79.2-5.4,111.9-15.6c-0.4-5.7-1.5-13.7-3.9-21.3c-3.8-11.8-9.6-18.8-17.1-20.7
		c-5.3-1.4-10.3-2.8-15.1-4c-11.8-3.1-22.6-5.9-31.8-9.2c-7.1-2.5-29.4-12.2-29.6-28.1l0-1.8l0-1.8l-0.7-12.3l4.7-4.6
		c9.3-9.2,18-23.9,23.8-40.6l2.6-7.3l6.3-1.6c1.7-2.1,2.4-3.8,2.9-5.6c0.3-1.2,0.4-2.6,0.4-3.8c0-1-0.1-1.7-0.2-2.2l-5-3.6l0.2-7.6
		c0.1-1.3,0.1-2.5,0.1-3.5c0-30.1-21.8-54.7-48.6-54.8l-0.6,0.1L202,151c-26.3,0.3-48.2,24.8-48.2,54.8c0,1,0,2.1,0.1,3.3l0.2,7.7
		l-5,3.6c-0.1,0.4-0.2,1.1-0.2,2c0,1.3,0.1,2.6,0.5,3.8c0.6,2.7,1.6,4.3,2.2,5l7.1,2.2l2.6,7.5c5.8,16.6,14.4,31.4,23.7,40.5
		l4.6,4.6l-0.6,11.7l-0.1,2l0,2.2c0,4.3-16.5,24.2-18.9,25.4c-3.1,1.6-5.7,1-10.3,2.6c-9.7,3.4-21.7,6.6-34.4,9.9l-12.9,3.4
		c-7.6,2-13.4,9-17.2,20.8C92.6,371.6,91.6,379.7,91.2,385.4z"/>
</g>
</svg>
