<?xml version="1.0" encoding="utf-8"?>
<!-- Generator: Adobe Illustrator 18.1.0, SVG Export Plug-In . SVG Version: 6.00 Build 0)  -->
<!DOCTYPE svg PUBLIC "-//W3C//DTD SVG 1.1//EN" "http://www.w3.org/Graphics/SVG/1.1/DTD/svg11.dtd">
<svg version="1.1" id="Layer_1" xmlns="http://www.w3.org/2000/svg" xmlns:xlink="http://www.w3.org/1999/xlink" x="0px" y="0px"
	 viewBox="0 0 841.9 595.3" enable-background="new 0 0 841.9 595.3" xml:space="preserve">
<g>
	<path fill="#C0C0C0" d="M393.6,526.5h54.6h202.1V210.8H191.5v315.7H393.6z M435.1,513.2h-28.2v-41h28.2V513.2z M204.7,224.1h432.4
		v289.1H448.3v-54.3h-54.6v54.3h-189V224.1z"/>
	<path fill="#C0C0C0" d="M423.8,76.4V48.8c1.2-0.4,2.3-0.9,3.5-1.3c5.8-2.3,11.6-4.3,13.4-1.9c5.3,7.5,12.3,11.7,20.2,12.7
		c15.3,1.7,28.6-9.7,29-10.1l2.3-2V6.1l-9.7,5.1c-0.7,0.4-18.9,9.8-29-3.5c-11.4-15-36.6-3.3-39.3-2l-3.8,1.9v68.9L178.9,206.8
		h479.5L423.8,76.4z M423.8,16c6.5-2.5,16-4.5,19.2-0.4c10.1,13.3,25,13.9,36.1,11v13.3c-3.5,2.3-10.1,5.9-16.6,5.3
		c-4.2-0.4-7.8-2.9-11-7.2c-3.6-4.9-8.4-6.5-13.1-6.5c-5.2,0-10.5,1.9-14.4,3.3V16H423.8z M417.2,87.8l190.1,105.6H229.5L417.2,87.8
		z"/>
	<path fill="#C0C0C0" d="M646.3,528.4H195.5l-73,66.9h596.6L646.3,528.4z M200.6,541.7h440.5l44.1,40.5H156.7L200.6,541.7z"/>
	<path fill="#C0C0C0" d="M239.5,282.2h45.2v-47.2h-45.2V282.2z M252.8,268.9v-20.8h18.8v20.8"/>
	<path fill="#C0C0C0" d="M239.5,335.2h45.2V288h-45.2V335.2z M252.8,301.1h18.8v20.8h-18.8V301.1z"/>
	<path fill="#C0C0C0" d="M239.5,388.2h45.2V341h-45.2V388.2z M252.8,354.1h18.8v20.8h-18.8V354.1z"/>
	<path fill="#C0C0C0" d="M239.5,441.3h45.2V394h-45.2V441.3z M271.5,407.2V428h-18.8v-20.8"/>
	<path fill="#C0C0C0" d="M292.5,441.3h45.2V394h-45.2L292.5,441.3L292.5,441.3z M305.6,407.2h18.8V428h-18.8V407.2z"/>
	<path fill="#C0C0C0" d="M292.5,388.2h45.2V341h-45.2L292.5,388.2L292.5,388.2z M305.6,354.1h18.8v20.8h-18.8V354.1z"/>
	<path fill="#C0C0C0" d="M292.5,335.2h45.2V288h-45.2L292.5,335.2L292.5,335.2z M305.6,301.1h18.8v20.8h-18.8V301.1z"/>
	<path fill="#C0C0C0" d="M292.5,282.2h45.2v-47.2h-45.2L292.5,282.2L292.5,282.2z M305.6,248.1h18.8v20.8h-18.8V248.1z"/>
	<path fill="#C0C0C0" d="M345.4,282.2h45.2v-47.2h-45.2V282.2z M358.7,248.1h18.8v20.8h-18.8V248.1z"/>
	<path fill="#C0C0C0" d="M345.4,335.2h45.2V288h-45.2V335.2z M358.7,301.1h18.8v20.8h-18.8V301.1z"/>
	<path fill="#C0C0C0" d="M345.4,388.2h45.2V341h-45.2V388.2z M358.7,354.1h18.8v20.8h-18.8V354.1z"/>
	<path fill="#C0C0C0" d="M345.4,441.3h45.2V394h-45.2V441.3z M358.7,407.2h18.8V428h-18.8V407.2z"/>
	<path fill="#C0C0C0" d="M443.6,393.9h-45.2v47.2h45.2V393.9z M430.3,428h-18.8v-20.8h18.8V428z"/>
	<path fill="#C0C0C0" d="M443.6,340.8h-45.2v47.2h45.2V340.8z M430.3,374.9h-18.8v-20.8h18.8V374.9z"/>
	<path fill="#C0C0C0" d="M443.6,288h-45.2v47.2h45.2V288z M430.3,321.9h-18.8v-20.8h18.8V321.9z"/>
	<path fill="#C0C0C0" d="M443.6,234.9h-45.2v47.2h45.2V234.9z M430.3,268.9h-18.8v-20.8h18.8V268.9z"/>
	<path fill="#C0C0C0" d="M496.5,234.9h-45.2v47.2h45.2V234.9z M483.2,268.9h-18.8v-20.8h18.8V268.9z"/>
	<path fill="#C0C0C0" d="M496.5,288h-45.2v47.2h45.2V288z M483.2,321.9h-18.8v-20.8h18.8V321.9z"/>
	<path fill="#C0C0C0" d="M496.5,340.8h-45.2v47.2h45.2V340.8z M483.2,374.9h-18.8v-20.8h18.8V374.9z"/>
	<path fill="#C0C0C0" d="M496.5,393.9h-45.2v47.2h45.2V393.9z M483.2,428h-18.8v-20.8h18.8V428z"/>
	<path fill="#C0C0C0" d="M549.4,393.9h-45.2v47.2h45.2V393.9z M536.2,428h-18.8v-20.8h18.8V428z"/>
	<path fill="#C0C0C0" d="M549.4,340.8h-45.2v47.2h45.2V340.8z M517.5,374.9v-20.8h18.8v20.8"/>
	<path fill="#C0C0C0" d="M549.4,288h-45.2v47.2h45.2V288z M536.2,321.9h-18.8v-20.8h18.8V321.9z"/>
	<path fill="#C0C0C0" d="M549.4,234.9h-45.2v47.2h45.2V234.9z M536.2,268.9h-18.8v-20.8h18.8V268.9z"/>
	<path fill="#C0C0C0" d="M602.4,234.9h-45.2v47.2h45.2V234.9z M570.3,248.1h18.8v20.8h-18.8"/>
	<path fill="#C0C0C0" d="M602.4,288h-45.2v47.2h45.2V288z M589.1,321.9h-18.8v-20.8h18.8V321.9z"/>
	<path fill="#C0C0C0" d="M602.4,340.8h-45.2v47.2h45.2V340.8z M589.1,354.1v20.8h-18.8v-20.8"/>
	<path fill="#C0C0C0" d="M602.4,393.9h-45.2v47.2h45.2V393.9z M589.1,428h-18.8v-20.8h18.8V428z"/>
	<rect x="392" y="446.6" fill="#C0C0C0" width="7.2" height="9.1"/>
	<polygon fill="#C0C0C0" points="399.4,446.6 399.4,455.7 406.6,455.7 414,455.7 414,446.6 406.6,446.6 	"/>
	<rect x="414" y="446.6" fill="#C0C0C0" width="7.2" height="9.1"/>
	<rect x="425" y="446.6" fill="#C0C0C0" width="7.2" height="9.1"/>
	<polygon fill="#C0C0C0" points="432.2,446.6 432.2,455.7 439.6,455.7 446.8,455.7 446.8,446.6 439.6,446.6 	"/>
	<rect x="446.8" y="446.6" fill="#C0C0C0" width="7.2" height="9.1"/>
</g>
</svg>
