<?xml version="1.0" encoding="utf-8"?>
<!-- Generator: Adobe Illustrator 18.1.0, SVG Export Plug-In . SVG Version: 6.00 Build 0)  -->
<!DOCTYPE svg PUBLIC "-//W3C//DTD SVG 1.1//EN" "http://www.w3.org/Graphics/SVG/1.1/DTD/svg11.dtd">
<svg version="1.1" id="Layer_1" xmlns="http://www.w3.org/2000/svg" xmlns:xlink="http://www.w3.org/1999/xlink" x="0px" y="0px"
	 viewBox="0 0 412 412" enable-background="new 0 0 412 412" xml:space="preserve">
<g id="calendar-7-icon">
	<path d="M404.9,412H40.1v-46.3h318.7V74.9h46.1V412z M52.2,399.9h340.6V87h-21.9v290.9H52.2V399.9z M338.9,347.1H7.1V43.4h54.5
		v24.1c0,18.2,14.8,32.9,32.9,32.9s32.9-14.8,32.9-32.9V43.4h92v24.1c0,18.2,14.8,32.9,32.9,32.9s32.9-14.8,32.9-32.9V43.4h53.6
		V347.1z M19.2,334.9h307.6V55.5h-29.3v12c0,24.8-20.2,45.1-45.1,45.1s-45.1-20.2-45.1-45.1v-12h-67.8v12c0,24.8-20.2,45.1-45,45.1
		c-24.8,0-45.1-20.2-45.1-45.1v-12H19.2V334.9z M135.1,289.6c-16.5,0-30.2-5.1-39.6-14.6c-9.3-9.5-14.2-23.3-13.9-39.7l0.1-6h36.8
		l-0.5-24.8H84.2l0.2-6.3c1.2-32.1,20.5-51.9,50.4-51.9c24.2,0,49.1,15.7,49.1,41.9c0,9.9-3.2,18.3-8.9,24.4
		c8.6,6.6,13.5,16.9,13.5,29C188.6,269.4,166.1,289.6,135.1,289.6z M93.9,241.4c0.8,10.5,4.2,19,10.2,25.1c7.1,7.2,17.8,11,31,11
		c19.9,0,41.4-11.3,41.4-36c0-10.8-5.3-19-14.6-22.6L149,214l12.3-6.2c6.8-3.4,10.6-10.4,10.6-19.7c0-18.7-18.8-29.8-37-29.8
		c-21.4,0-34.9,12.3-37.8,34h15c0.7-6.7,3-12,6.7-15.8c4-4.1,9.5-6.2,16.2-6.2c10.8,0,21.6,7,21.6,20.6c0,5.9-2.6,19.6-26.2,19.6v9
		c13.5,0.3,28.4,2.9,28.4,22.4c0,16.2-12.6,23.5-24.2,23.5c-14.1,0-23.1-8.7-25.4-24.2H93.9z M120.8,231.7l0.1,3.4
		c0.6,18.4,10.2,18.4,13.8,18.4c2,0,12.1-0.6,12.1-11.4c0-8.3-2.2-10.4-22.4-10.4H120.8z M124,198.2l1,0.1c1.8,0.2,3.6,0.3,5.4,0.3
		c14.2,0,14.2-5.5,14.2-7.5c0-8-7.9-8.5-9.5-8.5c-3.4,0-5.8,0.8-7.5,2.6C125.1,187.6,123.9,192.1,124,198.2z M260.5,287.3h-40.7
		v-79.7H189v-34.7l8.5,0.2c17.7,0,25.8-5.6,27.8-19.2l0.8-5.2h34.5V287.3z M232,275.2h16.4V160.8h-12.2
		c-4.2,15.2-15.9,23.4-35.1,24.3v10.4H232V275.2z M252.4,91.9c-13.1,0-23.7-10.6-23.7-23.7V23.8c0-13.1,10.6-23.7,23.7-23.7
		c13.1,0,23.7,10.6,23.7,23.7v44.4C276.1,81.3,265.4,91.9,252.4,91.9z M252.4,12.2c-6.4,0-11.6,5.2-11.6,11.6v44.4
		c0,6.4,5.2,11.6,11.6,11.6c6.4,0,11.6-5.2,11.6-11.6V23.8C264,17.4,258.8,12.2,252.4,12.2z M94.5,91.9c-13.1,0-23.7-10.6-23.7-23.7
		V23.7C70.8,10.6,81.4,0,94.5,0c13.1,0,23.7,10.6,23.7,23.7v44.4C118.2,81.2,107.5,91.9,94.5,91.9z M94.5,12.1
		c-6.4,0-11.6,5.2-11.6,11.6v44.4c0,6.4,5.2,11.6,11.6,11.6c6.4,0,11.6-5.2,11.6-11.6V23.7C106.1,17.3,100.9,12.1,94.5,12.1z"/>
</g>
</svg>
