<?xml version="1.0" encoding="utf-8"?>
<!-- Generator: Adobe Illustrator 18.1.0, SVG Export Plug-In . SVG Version: 6.00 Build 0)  -->
<!DOCTYPE svg PUBLIC "-//W3C//DTD SVG 1.1//EN" "http://www.w3.org/Graphics/SVG/1.1/DTD/svg11.dtd">
<svg version="1.1" id="Layer_1" xmlns="http://www.w3.org/2000/svg" xmlns:xlink="http://www.w3.org/1999/xlink" x="0px" y="0px"
	 viewBox="0 0 412 412" enable-background="new 0 0 412 412" xml:space="preserve">
<g>
	<g>
		<g>
			<polygon points="382.6,0 382.6,412 346.2,412 346.2,401.3 371.8,401.3 371.8,10.7 40.2,10.7 40.2,401.3 176,401.3 176,412 
				29.4,412 29.4,0 			"/>
		</g>
	</g>
	<g>
		<g>
			<path d="M72.7,91.7v55.1h269.5V91.7H72.7z M331.5,136H83.4v-33.6h248.1V136z"/>
		</g>
	</g>
	<g>
		<g>
			<path d="M72.7,163.3v55h269.5v-55H72.7z M331.5,207.6H83.4V174h248.1V207.6z"/>
		</g>
	</g>
	<g>
		<g>
			<path d="M72.7,235.3v55h269.5v-55H72.7z M331.5,279.6H83.4V246h248.1V279.6z"/>
		</g>
	</g>
	<g>
		<g>
			<path d="M180,381.6V408h162.2v-26.4H180z M331.5,397.3H190.7v-5h140.8V397.3z"/>
		</g>
	</g>
	<g>
		<g>
			<path d="M285.1,308.7v55.1h57.1v-55.1H285.1z M331.5,353h-35.6v-33.6h35.6V353z"/>
		</g>
	</g>
</g>
</svg>
