<?xml version="1.0" encoding="utf-8"?>
<!-- Generator: Adobe Illustrator 18.1.0, SVG Export Plug-In . SVG Version: 6.00 Build 0)  -->
<!DOCTYPE svg PUBLIC "-//W3C//DTD SVG 1.1//EN" "http://www.w3.org/Graphics/SVG/1.1/DTD/svg11.dtd">
<svg version="1.1" id="Layer_1" xmlns="http://www.w3.org/2000/svg" xmlns:xlink="http://www.w3.org/1999/xlink" x="0px" y="0px"
	 viewBox="0 0 841.9 595.3" enable-background="new 0 0 841.9 595.3" xml:space="preserve">
<g>
	<g>
		<g>
			<polygon fill="#B9C1D0" points="676.1,0 676.1,595.3 623.5,595.3 623.5,579.8 660.5,579.8 660.5,15.5 181.4,15.5 181.4,579.8 
				377.6,579.8 377.6,595.3 165.8,595.3 165.8,0 			"/>
		</g>
	</g>
	<g>
		<g>
			<path fill="#B9C1D0" d="M228.3,132.5v79.6h389.4v-79.6H228.3z M602.3,196.5H243.8V148h358.5V196.5z"/>
		</g>
	</g>
	<g>
		<g>
			<path fill="#B9C1D0" d="M228.3,235.9v79.5h389.4v-79.5H228.3z M602.3,300H243.8v-48.5h358.5V300z"/>
		</g>
	</g>
	<g>
		<g>
			<path fill="#B9C1D0" d="M228.3,340v79.5h389.4V340L228.3,340L228.3,340z M602.3,404H243.8v-48.5h358.5V404z"/>
		</g>
	</g>
	<g>
		<g>
			<path fill="#B9C1D0" d="M383.4,551.4v38.1h234.4v-38.1H383.4z M602.3,574H398.8v-7.2h203.4V574z"/>
		</g>
	</g>
	<g>
		<g>
			<path fill="#B9C1D0" d="M535.2,446v79.6h82.5V446H535.2z M602.3,510h-51.4v-48.5h51.4V510z"/>
		</g>
	</g>
</g>
</svg>
