<?xml version="1.0" encoding="utf-8"?>
<!-- Generator: Adobe Illustrator 18.1.0, SVG Export Plug-In . SVG Version: 6.00 Build 0)  -->
<!DOCTYPE svg PUBLIC "-//W3C//DTD SVG 1.1//EN" "http://www.w3.org/Graphics/SVG/1.1/DTD/svg11.dtd">
<svg version="1.1" id="Layer_1" xmlns="http://www.w3.org/2000/svg" xmlns:xlink="http://www.w3.org/1999/xlink" x="0px" y="0px"
	 viewBox="0 0 412 412" enable-background="new 0 0 412 412" xml:space="preserve">
<g>
	<path d="M384.5,127.4V82.7c0.3-8.6-3.8-16.2-11.3-21.4c-6.6-4.5-15.3-6.9-25.3-6.9c-10.4,0-19.3,2.6-26,7.4
		c-6.7,4.9-10.4,11.9-10.4,19.7c-0.3,18.2-0.3,37-0.1,55.6c0,8-0.1,16-0.1,24c-6.5-3.8-14.7-5.8-24-5.8c-12.8,0-23.7,3.9-30.3,10.8
		c-1.4-1.5-2.9-2.8-4.7-4c-6.6-4.5-15.4-6.9-25.4-6.9c-8.8,0-16.7,1.9-22.9,5.5V84.5c0-1.3,0-2.6,0-3.9V28.2
		c0.3-8.6-3.8-16.2-11.3-21.4C186.1,2.4,177.3,0,167.3,0c-10.3,0-19.3,2.6-26,7.4c-6.7,4.9-10.4,11.9-10.4,19.7
		c-0.3,19.6-0.3,39.5,0,59.1c-0.2,34.9-1.5,98.7-2.7,151.8l-41.5-41.5c-4.7-5-10.8-7.6-17.8-7.6c-1.8,0-3.6,0.2-5.4,0.5
		c-7.8,1.5-15.7,6-22.8,13.1c-7,7-11.5,14.9-12.9,22.7c-1.6,8.6,0.7,16.5,6.4,22.2c14.1,14.6,28.6,29,43,43c0.6,0.6,1.3,1.2,2,1.8
		c0.5,0.7,1.1,1.3,1.7,1.9c14.2,14.6,25,23.5,48.2,41.8c14.3,27.5,31.6,46.9,52.9,59.2c19.7,11.4,43.5,16.9,72.7,16.9
		c70.6,0,128-48.5,128-108.2c0-3.7,0.4-13,0.7-22c0.4-10.9,0.9-22.1,0.9-27.7v-124C384.5,129.1,384.5,128.2,384.5,127.4z M264,182.9
		c0-8,9.6-13.6,23.3-13.6c7.5,0,13.7,1.6,18.1,4.5c3.8,2.6,5.6,5.7,5.5,9.7v59.6c0,0.5,0,1-0.1,1.5c0,0.1-0.1,0.2-0.1,0.4
		c-0.1,0.4-0.1,0.8-0.2,1.1c-1.9,6.7-10.4,10.9-22.8,10.9l-1,0c-13.8-0.3-22.8-5.6-22.8-13.5C263.7,223.4,263.7,203,264,182.9z
		 M204.2,182.9c0-8,9.3-13.6,22.7-13.6c7.2,0,13.4,1.5,17.7,4.5c3.7,2.6,5.5,5.7,5.4,9.8v59.6c0,10.2-11.7,13.9-22.6,13.9l-1,0
		c-13.5-0.2-22.2-5.6-22.2-13.5c-0.2-10-0.2-20.1-0.2-30.2C204,203.1,204.1,192.9,204.2,182.9z M370.8,130v124.1
		c0,5.3-0.5,16.3-0.9,27.1c-0.4,9.6-0.8,18.6-0.8,22.6c0,52.1-51.3,94.5-114.3,94.5c-55,0-89.1-20.9-114.1-70L140,327l-1.2-0.9
		c-12-9.4-20.5-16.2-27.8-22.5c-7.3-6.2-13.3-11.9-20.2-19c-0.4-0.3-0.7-0.8-1-1.2l-0.6-0.9l-0.8-0.6c-0.5-0.3-0.9-0.7-1.4-1.2
		c-14.4-14-28.8-28.3-42.8-42.8c-3.2-3.2-3.2-7.3-2.7-10.2c0.9-5,4.1-10.5,9.1-15.5c0.6-0.6,1.3-1.2,1.9-1.8
		c4.5-4.1,9.2-6.6,13.7-7.5c0.5-0.1,1-0.2,1.5-0.2c0.2,0,0.4,0,0.7,0c0.3,0,0.5,0,0.8,0c0.2,0,0.3,0,0.5,0c0.3,0,0.6,0,0.9,0.1
		c0.1,0,0.3,0,0.4,0.1c0.3,0.1,0.7,0.1,1,0.2c0.1,0,0.1,0,0.2,0c0.4,0.1,0.8,0.3,1.2,0.5c0,0,0,0,0,0c0.4,0.2,0.7,0.4,1.1,0.6
		c0.1,0,0.2,0.1,0.2,0.2c0.3,0.2,0.6,0.4,0.8,0.6c0.1,0.1,0.2,0.1,0.3,0.2c0.3,0.3,0.7,0.6,1,0.9l42.1,42.1c0.5,0.4,0.9,0.9,1.2,1.5
		l0.7,0.9l0.9,0.6c0.6,0.4,1.2,0.9,1.8,1.5l17.6,17.6l0.4-16c1-44.3,2.9-126.8,3.1-168.2c-0.3-19.6-0.3-39.4,0-58.9
		c0-8,9.3-13.6,22.7-13.6c7.2,0,13.4,1.5,17.6,4.5c3.8,2.6,5.5,5.7,5.4,9.8l0,52.8c0,1.2,0,2.4,0,3.7v133c0,0,0,0,0,0l0,7.7l0,0
		c0,2.5,0,4.9,0,7.1c0,0.1,0,0.3,0,0.4c0,0.6,0,1.3,0,1.9v0.6c0,0.6,0,1.2,0,1.7c0,0.2,0,0.4,0,0.7c0,0.5,0,1.1,0,1.6
		c0,0.2,0,0.4,0,0.7c0,0.5,0,1,0,1.5c0,0.7,0,1.4,0,2.2c0,16.1,14,26.7,35.7,27.1l1.1,0c0.8,0,1.6,0,2.4-0.1c0.3,0,0.5,0,0.8,0
		c0.5,0,1.1-0.1,1.6-0.1c0.3,0,0.6-0.1,0.9-0.1c0.5,0,0.9-0.1,1.4-0.1c0.3,0,0.6-0.1,1-0.1c0.4-0.1,0.9-0.1,1.3-0.2
		c0.3-0.1,0.6-0.1,1-0.2c0.4-0.1,0.8-0.2,1.2-0.2c0.3-0.1,0.6-0.1,0.9-0.2c0.4-0.1,0.8-0.2,1.2-0.3c0.3-0.1,0.6-0.2,0.9-0.2
		c0.4-0.1,0.8-0.2,1.2-0.4c0.3-0.1,0.6-0.2,0.9-0.3c0.4-0.1,0.8-0.3,1.1-0.4c0.3-0.1,0.6-0.2,0.8-0.3c0.4-0.1,0.7-0.3,1.1-0.5
		c0.2-0.1,0.5-0.2,0.8-0.3c0.4-0.2,0.7-0.4,1.1-0.5c0.2-0.1,0.5-0.2,0.7-0.3c0.4-0.2,0.8-0.5,1.2-0.7c0.2-0.1,0.3-0.2,0.5-0.3
		c0.5-0.3,1.1-0.7,1.6-1.1c0.1-0.1,0.2-0.2,0.3-0.2c0.4-0.3,0.8-0.6,1.2-0.9c0.2-0.2,0.4-0.3,0.5-0.5c0.3-0.2,0.6-0.5,0.9-0.8
		c0.2-0.2,0.4-0.4,0.6-0.6c0.2-0.2,0.4-0.4,0.6-0.6c0.2,0.2,0.4,0.4,0.6,0.5c0.2,0.2,0.4,0.4,0.5,0.5c0.3,0.2,0.6,0.5,0.8,0.7
		c0.2,0.2,0.4,0.3,0.5,0.5c0.4,0.3,0.7,0.6,1.1,0.8c0.1,0.1,0.2,0.2,0.4,0.3c0.5,0.4,1,0.7,1.6,1c0.1,0.1,0.3,0.2,0.5,0.3
		c0.4,0.2,0.8,0.5,1.2,0.7c0.2,0.1,0.4,0.2,0.7,0.3c0.4,0.2,0.7,0.4,1.1,0.5c0.3,0.1,0.5,0.2,0.8,0.3c0.4,0.2,0.7,0.3,1.1,0.5
		c0.3,0.1,0.5,0.2,0.8,0.3c0.4,0.1,0.7,0.3,1.1,0.4c0.3,0.1,0.6,0.2,0.9,0.3c0.4,0.1,0.8,0.2,1.1,0.4c0.3,0.1,0.6,0.2,0.9,0.3
		c0.4,0.1,0.8,0.2,1.2,0.3c0.3,0.1,0.6,0.1,0.9,0.2c0.4,0.1,0.8,0.2,1.3,0.3c0.3,0.1,0.6,0.1,1,0.2c0.4,0.1,0.9,0.2,1.3,0.2
		c0.3,0,0.6,0.1,1,0.1c0.5,0.1,1,0.1,1.4,0.2c0.3,0,0.6,0.1,0.9,0.1c0.5,0,1.1,0.1,1.6,0.1c0.3,0,0.5,0,0.8,0.1
		c0.8,0,1.7,0.1,2.5,0.1l1.1,0c22.1,0,36.9-11.1,36.9-27.6v-14.8l0.4,0.2l0-11.2c-0.1-26.5,0-53.4,0.1-80
		c-0.1-9.3-0.2-18.7-0.2-27.9c0-9.3,0.1-18.5,0.2-27.6c0-8,9.3-13.6,22.7-13.6c7.2,0,13.3,1.5,17.6,4.5c3.7,2.6,5.5,5.7,5.4,9.7
		v45.2C370.8,128.3,370.8,129.1,370.8,130z"/>
</g>
</svg>
