<?xml version="1.0" encoding="utf-8"?>
<!-- Generator: Adobe Illustrator 18.1.0, SVG Export Plug-In . SVG Version: 6.00 Build 0)  -->
<!DOCTYPE svg PUBLIC "-//W3C//DTD SVG 1.1//EN" "http://www.w3.org/Graphics/SVG/1.1/DTD/svg11.dtd">
<svg version="1.1" id="Layer_1" xmlns="http://www.w3.org/2000/svg" xmlns:xlink="http://www.w3.org/1999/xlink" x="0px" y="0px"
	 viewBox="0 0 841.9 595.3" enable-background="new 0 0 841.9 595.3" xml:space="preserve">
<g>
	<g>
		<path fill="#B9C1D0" d="M432.6,595.7h-26.4l-7.5-27.6c-2.9-0.3-5.9-0.6-8.8-0.9l-12.7,25.4l-26-4.9l-2.3-28.3
			c-4.9-1.4-10-2.9-14.9-4.6l-17.8,22.1l-24.4-10.3l3.8-28.2c-2.6-1.4-5.2-2.7-7.8-4.3l-21.5,18.3l-22.1-14.6l9-27.2
			c-3.2-2.6-6.4-5.2-9.5-7.8l-24.9,13.6L200,497.8l14-24.9c-1.9-2.3-3.8-4.6-5.6-6.9l-26.9,9l-14.9-21.7l18.5-21.7
			c-2.6-4.5-5.1-9.1-7.4-13.7l-28,3l-10-24.6l22.5-17.3c-0.9-2.9-1.7-5.6-2.5-8.5l-28.2-2.2l-5.2-26l25.4-12.9
			c-0.4-4-0.9-8.1-1.2-12.3l-27.5-7.8v-26.4l27.5-7.5c0.3-2.9,0.6-5.9,0.9-8.8l-25.3-12.7l4.9-26l28.3-2.3c1.4-5.1,2.9-10,4.6-14.9
			l-22.1-17.9l10.3-24.4l28.2,3.8c1.4-2.6,2.7-5.2,4.2-7.8l-18.2-21.7l14.6-22.1l27,9c2.6-3.2,5.2-6.4,7.8-9.5l-13.7-24.9L221,76.3
			l24.7,14.2c2.3-1.9,4.5-3.8,6.8-5.6l-9-26.9l21.8-14.9L287,61.6c4.5-2.6,9.1-5.1,13.7-7.4L297.8,26l24.6-10l17.3,22.5
			c2.9-0.9,5.6-1.7,8.5-2.5l2.2-28.2l26-5.3L389.3,28c4-0.4,8.1-0.9,12.3-1.2l7.8-27.3h26.4l7.5,27.5c2.9,0.3,5.9,0.6,8.8,0.9
			l12.7-25.3l26,4.9l2.3,28.3c5.1,1.4,10,2.9,14.9,4.6l17.8-22.1l24.4,10.3l-3.8,28.2c2.6,1.4,5.2,2.7,7.8,4.3l21.5-18.3l22.1,14.6
			l-8.8,27.2c3.2,2.6,6.4,5.2,9.5,7.8l24.7-13.7L642,97.4l-14,24.9c1.9,2.3,3.8,4.6,5.6,6.9l26.9-9l14.7,21.8l-18.5,21.7
			c2.6,4.5,5.1,9.1,7.4,13.7l28-3l10,24.6l-22.5,17.3c0.9,2.9,1.7,5.6,2.5,8.5l28.2,2.2l5.2,26L690,265.9c0.4,4,0.9,8.2,1.2,12.3
			l27.3,7.8v26.4l-27.5,7.5c-0.3,2.9-0.6,5.9-0.9,8.8l25.3,12.7l-4.9,26l-28.3,2.3c-1.4,4.9-2.9,10-4.6,14.9l22.1,17.8l-10.3,24.4
			l-28.2-3.8c-1.4,2.6-2.7,5.2-4.2,7.8l18.3,21.5l-14.6,22.4l-27-9c-2.6,3.2-5.2,6.4-7.8,9.5l13.7,24.9L620.9,519l-24.7-14.2
			c-2.3,1.9-4.5,3.8-6.9,5.6l9,26.9l-21.8,14.9l-21.7-18.5c-4.5,2.6-9.1,5.1-13.7,7.2l3,28.2l-24.6,10l-17.3-22.5
			c-2.9,0.9-5.6,1.7-8.5,2.5l-2.2,28.2l-26,5.2L452.6,567c-4,0.4-8.1,0.9-12.3,1.2L432.6,595.7z M379.2,547.3l6.5,0.9
			c6.8,1,13.6,1.6,20.5,2l6.6,0.4l6.6,24.3l6.9-24.3l6.5-0.3c7.9-0.4,15.9-1.2,23.7-2.2l6.5-0.9l11.3,22.4l2-25l6.4-1.6
			c6.6-1.7,13.3-3.6,19.8-5.8l6.2-2.2L524,555l-2.7-25l5.9-2.7c8.1-3.8,16-7.9,23.7-12.6l5.6-3.3l19.1,16.3l-7.9-23.8l5.2-4
			c5.5-4.2,10.8-8.5,15.9-13l4.9-4.3l21.8,12.4l-12.1-22l4.5-4.9c5.3-5.9,10.4-12,15.2-18.3l3.9-5.2l23.8,7.8l-16.3-19.1l3.3-5.6
			c3.5-5.9,6.8-11.8,9.8-18.1l2.9-5.9l24.9,3.2L655.7,391l2.3-6.2c3-8.4,5.6-16.9,7.8-25.6l1.6-6.4l25-2L670,339.5l0.9-6.5
			c1-6.8,1.6-13.6,2-20.5l0.4-6.6l24.3-6.6l-24.1-6.9l-0.3-6.6c-0.4-7.9-1.2-15.9-2.2-23.7l-0.9-6.5l22.4-11.4l-25-2l-1.6-6.4
			c-1.7-6.6-3.6-13.3-5.8-19.8l-2.2-6.2l19.8-15.3l-24.9,2.7l-2.7-5.9c-3.8-8.1-7.9-16-12.6-23.7l-3.3-5.6l16.3-19.1l-23.8,7.9
			l-4-5.2c-4.2-5.5-8.5-10.8-13-15.9l-4.3-4.9l12.4-21.8l-22,12.1l-4.9-4.5c-5.9-5.3-12-10.4-18.3-15.2l-5.2-3.9l7.8-23.8
			l-19.1,16.3l-5.6-3.3c-5.9-3.5-12-6.8-18.1-9.8l-5.9-2.9l3.3-24.9l-15.7,19.5l-6.2-2.3c-8.4-3-16.9-5.6-25.6-7.8l-6.4-1.6l-2-25
			l-11.3,22.4l-6.5-0.9c-6.8-0.9-13.6-1.6-20.5-2l-6.5-0.4l-6.6-24.3l-6.9,24.3l-6.5,0.3c-7.9,0.4-15.9,1.2-23.7,2.2l-6.5,0.9
			l-11.4-22.7l-2,25l-6.4,1.6c-6.6,1.7-13.3,3.6-19.8,5.8l-6.2,2.2l-15.2-19.8l2.7,25l-5.9,2.7c-8.1,3.8-16,7.9-23.7,12.6l-5.6,3.3
			l-19.2-16.3l7.9,23.8l-5.2,3.9c-5.5,4.2-10.8,8.5-15.9,13l-4.9,4.3l-21.8-12.4l12.1,22l-4.5,4.9c-5.3,5.9-10.4,12-15.2,18.3
			l-3.9,5.2l-23.8-7.8l16.3,19.1l-3.3,5.6c-3.5,5.9-6.8,12-9.8,18.1l-2.9,5.9l-24.9-3.3L186,204l-2.3,6.2c-3,8.4-5.6,16.9-7.8,25.6
			l-1.6,6.4l-25,2l22.4,11.3l-0.9,6.5c-1,6.8-1.6,13.6-2,20.5l-0.4,6.6l-24.4,7.1l24.1,6.9l0.3,6.6c0.4,8.1,1.2,15.9,2.2,23.7
			l0.9,6.5L149,351.4l25,2l1.6,6.4c1.7,6.8,3.6,13.3,5.8,19.8l2.2,6.2l-19.8,15.3l24.9-2.7l2.7,5.9c3.8,8.1,7.9,16,12.6,23.7
			l3.3,5.6l-16,18.9l23.8-7.9l3.9,5.2c4.2,5.5,8.5,10.8,13,15.9l4.3,4.9L224,492.7l22-12.1l4.9,4.5c5.9,5.3,12,10.4,18.3,15.2
			l5.2,3.9l-7.8,23.8l19.1-16.3l5.6,3.5c5.9,3.6,12,6.8,18.1,9.8l5.9,2.9l-3.3,24.9l15.7-19.5l6.2,2.3c8.4,3,16.9,5.6,25.6,7.8
			l6.4,1.6l2,25L379.2,547.3z"/>
	</g>
	<g>
		<path fill="#B9C1D0" d="M420.9,391.7c-51.9,0-93.9-42.2-93.9-94.1s42.2-94.1,93.9-94.1s93.9,42.2,93.9,94.1
			S472.8,391.7,420.9,391.7z M420.9,221.9c-41.8,0-75.7,34-75.7,75.7s34,75.7,75.7,75.7s75.7-34,75.7-75.7S462.7,221.9,420.9,221.9z
			"/>
	</g>
</g>
</svg>
