<?xml version="1.0" encoding="utf-8"?>
<!-- Generator: Adobe Illustrator 18.1.0, SVG Export Plug-In . SVG Version: 6.00 Build 0)  -->
<!DOCTYPE svg PUBLIC "-//W3C//DTD SVG 1.1//EN" "http://www.w3.org/Graphics/SVG/1.1/DTD/svg11.dtd">
<svg version="1.1" id="Layer_1" xmlns="http://www.w3.org/2000/svg" xmlns:xlink="http://www.w3.org/1999/xlink" x="0px" y="0px"
	 viewBox="0 0 412 412" enable-background="new 0 0 412 412" xml:space="preserve">
<g>
	<g>
		<path fill="#1D1D1B" d="M214.1,412.3h-18.3l-5.2-19.1c-2-0.2-4.1-0.4-6.1-0.6l-8.8,17.6l-18-3.4l-1.6-19.6c-3.4-1-6.9-2-10.3-3.2
			l-12.3,15.3l-16.9-7.1l2.6-19.5c-1.8-1-3.6-1.9-5.4-3l-14.9,12.7l-15.3-10.1l6.2-18.8c-2.2-1.8-4.4-3.6-6.6-5.4L66,357.5l-12.9-13
			l9.7-17.2c-1.3-1.6-2.6-3.2-3.9-4.8l-18.6,6.2L30,313.7l12.8-15c-1.8-3.1-3.5-6.3-5.1-9.5l-19.4,2.1l-6.9-17l15.6-12
			c-0.6-2-1.2-3.9-1.7-5.9l-19.5-1.5l-3.6-18l17.6-8.9c-0.3-2.8-0.6-5.6-0.8-8.5L0,214.1v-18.3l19-5.2c0.2-2,0.4-4.1,0.6-6.1
			l-17.5-8.8l3.4-18l19.6-1.6c1-3.5,2-6.9,3.2-10.3L13,133.4l7.1-16.9l19.5,2.6c1-1.8,1.9-3.6,2.9-5.4L29.9,98.7L40,83.4l18.7,6.2
			c1.8-2.2,3.6-4.4,5.4-6.6l-9.5-17.2l13-13l17.1,9.8c1.6-1.3,3.1-2.6,4.7-3.9l-6.2-18.6l15.1-10.3l15,12.8c3.1-1.8,6.3-3.5,9.5-5.1
			L120.8,18l17-6.9l12,15.6c2-0.6,3.9-1.2,5.9-1.7l1.5-19.5l18-3.7l8.9,17.6c2.8-0.3,5.6-0.6,8.5-0.8l5.4-18.9h18.3l5.2,19
			c2,0.2,4.1,0.4,6.1,0.6l8.8-17.5l18,3.4l1.6,19.6c3.5,1,6.9,2,10.3,3.2l12.3-15.3l16.9,7.1l-2.6,19.5c1.8,1,3.6,1.9,5.4,3
			l14.9-12.7l15.3,10.1l-6.1,18.8c2.2,1.8,4.4,3.6,6.6,5.4l17.1-9.5l12.9,13l-9.7,17.2c1.3,1.6,2.6,3.2,3.9,4.8l18.6-6.2L382,98.3
			l-12.8,15c1.8,3.1,3.5,6.3,5.1,9.5l19.4-2.1l6.9,17l-15.6,12c0.6,2,1.2,3.9,1.7,5.9l19.5,1.5l3.6,18l-17.6,8.9
			c0.3,2.8,0.6,5.7,0.8,8.5l18.9,5.4v18.3l-19,5.2c-0.2,2-0.4,4.1-0.6,6.1l17.5,8.8l-3.4,18l-19.6,1.6c-1,3.4-2,6.9-3.2,10.3
			l15.3,12.3l-7.1,16.9l-19.5-2.6c-1,1.8-1.9,3.6-2.9,5.4l12.7,14.9L372,328.6l-18.7-6.2c-1.8,2.2-3.6,4.4-5.4,6.6l9.5,17.2l-13,13
			l-17.1-9.8c-1.6,1.3-3.1,2.6-4.8,3.9l6.2,18.6l-15.1,10.3l-15-12.8c-3.1,1.8-6.3,3.5-9.5,5l2.1,19.5l-17,6.9l-12-15.6
			c-2,0.6-3.9,1.2-5.9,1.7l-1.5,19.5l-18,3.6l-8.9-17.6c-2.8,0.3-5.6,0.6-8.5,0.8L214.1,412.3z M177.1,378.8l4.5,0.6
			c4.7,0.7,9.4,1.1,14.2,1.4l4.6,0.3l4.6,16.8l4.8-16.8l4.5-0.2c5.5-0.3,11-0.8,16.4-1.5l4.5-0.6l7.8,15.5l1.4-17.3l4.4-1.1
			c4.6-1.2,9.2-2.5,13.7-4l4.3-1.5l10.5,13.7l-1.9-17.3l4.1-1.9c5.6-2.6,11.1-5.5,16.4-8.7l3.9-2.3l13.2,11.3l-5.5-16.5l3.6-2.8
			c3.8-2.9,7.5-5.9,11-9l3.4-3l15.1,8.6l-8.4-15.2l3.1-3.4c3.7-4.1,7.2-8.3,10.5-12.7l2.7-3.6l16.5,5.4l-11.3-13.2l2.3-3.9
			c2.4-4.1,4.7-8.2,6.8-12.5l2-4.1l17.2,2.2l-13.5-10.9l1.6-4.3c2.1-5.8,3.9-11.7,5.4-17.7l1.1-4.4l17.3-1.4l-15.5-7.8l0.6-4.5
			c0.7-4.7,1.1-9.4,1.4-14.2l0.3-4.6l16.8-4.6l-16.7-4.8l-0.2-4.6c-0.3-5.5-0.8-11-1.5-16.4l-0.6-4.5l15.5-7.9l-17.3-1.4l-1.1-4.4
			c-1.2-4.6-2.5-9.2-4-13.7l-1.5-4.3l13.7-10.6l-17.2,1.9l-1.9-4.1c-2.6-5.6-5.5-11.1-8.7-16.4l-2.3-3.9L365,98.8l-16.5,5.5
			l-2.8-3.6c-2.9-3.8-5.9-7.5-9-11l-3-3.4l8.6-15.1l-15.2,8.4l-3.4-3.1c-4.1-3.7-8.3-7.2-12.7-10.5l-3.6-2.7l5.4-16.5l-13.2,11.3
			l-3.9-2.3c-4.1-2.4-8.3-4.7-12.5-6.8l-4.1-2l2.3-17.2l-10.9,13.5l-4.3-1.6c-5.8-2.1-11.7-3.9-17.7-5.4l-4.4-1.1l-1.4-17.3
			l-7.8,15.5l-4.5-0.6c-4.7-0.6-9.4-1.1-14.2-1.4l-4.5-0.3l-4.6-16.8l-4.8,16.8l-4.5,0.2c-5.5,0.3-11,0.8-16.4,1.5l-4.5,0.6
			L169,17.7L167.6,35l-4.4,1.1c-4.6,1.2-9.2,2.5-13.7,4l-4.3,1.5l-10.5-13.7l1.9,17.3l-4.1,1.9c-5.6,2.6-11.1,5.5-16.4,8.7l-3.9,2.3
			L98.9,46.8l5.5,16.5l-3.6,2.7c-3.8,2.9-7.5,5.9-11,9l-3.4,3l-15.1-8.6l8.4,15.2l-3.1,3.4c-3.7,4.1-7.2,8.3-10.5,12.7l-2.7,3.6
			l-16.5-5.4l11.3,13.2l-2.3,3.9c-2.4,4.1-4.7,8.3-6.8,12.5l-2,4.1l-17.2-2.3l13.5,10.9l-1.6,4.3c-2.1,5.8-3.9,11.7-5.4,17.7
			l-1.1,4.4l-17.3,1.4l15.5,7.8l-0.6,4.5c-0.7,4.7-1.1,9.4-1.4,14.2l-0.3,4.6L14.3,205l16.7,4.8l0.2,4.6c0.3,5.6,0.8,11,1.5,16.4
			l0.6,4.5l-15.5,7.9l17.3,1.4l1.1,4.4c1.2,4.7,2.5,9.2,4,13.7l1.5,4.3l-13.7,10.6l17.2-1.9l1.9,4.1c2.6,5.6,5.5,11.1,8.7,16.4
			l2.3,3.9L47,313.2l16.5-5.5l2.7,3.6c2.9,3.8,5.9,7.5,9,11l3,3.4L69.7,341l15.2-8.4l3.4,3.1c4.1,3.7,8.3,7.2,12.7,10.5l3.6,2.7
			l-5.4,16.5l13.2-11.3l3.9,2.4c4.1,2.5,8.3,4.7,12.5,6.8l4.1,2l-2.3,17.2l10.9-13.5l4.3,1.6c5.8,2.1,11.7,3.9,17.7,5.4l4.4,1.1
			l1.4,17.3L177.1,378.8z"/>
	</g>
	<g>
		<path fill="#1D1D1B" d="M206,271.1c-35.9,0-65-29.2-65-65.1c0-35.9,29.2-65.1,65-65.1s65,29.2,65,65.1
			C271,241.9,241.9,271.1,206,271.1z M206,153.6c-28.9,0-52.4,23.5-52.4,52.4s23.5,52.4,52.4,52.4s52.4-23.5,52.4-52.4
			S234.9,153.6,206,153.6z"/>
	</g>
</g>
</svg>
