<?xml version="1.0" encoding="utf-8"?>
<!-- Generator: Adobe Illustrator 18.1.0, SVG Export Plug-In . SVG Version: 6.00 Build 0)  -->
<!DOCTYPE svg PUBLIC "-//W3C//DTD SVG 1.1//EN" "http://www.w3.org/Graphics/SVG/1.1/DTD/svg11.dtd">
<svg version="1.1" id="Layer_1" xmlns="http://www.w3.org/2000/svg" xmlns:xlink="http://www.w3.org/1999/xlink" x="0px" y="0px"
	 viewBox="0 0 841.9 595.3" enable-background="new 0 0 841.9 595.3" xml:space="preserve">
<g id="calendar-7-icon">
	<path fill="#B9C1D0" d="M708.3,595.3H181.2v-66.9h460.5V108.2h66.6V595.3L708.3,595.3z M198.7,577.8h492.1V125.7h-31.6V546H198.7
		V577.8z M613,501.5H133.6V62.7h78.7v34.8c0,26.3,21.4,47.5,47.5,47.5s47.5-21.4,47.5-47.5V62.7h132.9v34.8
		c0,26.3,21.4,47.5,47.5,47.5c26.2,0,47.5-21.4,47.5-47.5V62.7h77.4v438.8H613z M151,483.9h444.4V80.2h-42.3v17.3
		c0,35.8-29.2,65.2-65.2,65.2s-65.2-29.2-65.2-65.2V80.2h-98v17.3c0,35.8-29.2,65.2-65,65.2s-65.2-29.2-65.2-65.2V80.2H151V483.9z
		 M318.5,418.4c-23.8,0-43.6-7.4-57.2-21.1c-13.4-13.7-20.5-33.7-20.1-57.4l0.1-8.7h53.2l-0.7-35.8H245l0.3-9.1
		c1.7-46.4,29.6-75,72.8-75c35,0,70.9,22.7,70.9,60.5c0,14.3-4.6,26.4-12.9,35.3c12.4,9.5,19.5,24.4,19.5,41.9
		C395.8,389.2,363.3,418.4,318.5,418.4z M259,348.8c1.2,15.2,6.1,27.5,14.7,36.3c10.3,10.4,25.7,15.9,44.8,15.9
		c28.8,0,59.8-16.3,59.8-52c0-15.6-7.7-27.5-21.1-32.7l-18.6-7.1l17.8-9c9.8-4.9,15.3-15,15.3-28.5c0-27-27.2-43.1-53.5-43.1
		c-30.9,0-50.4,17.8-54.6,49.1h21.7c1-9.7,4.3-17.3,9.7-22.8c5.8-5.9,13.7-9,23.4-9c15.6,0,31.2,10.1,31.2,29.8
		c0,8.5-3.8,28.3-37.9,28.3v13c19.5,0.4,41,4.2,41,32.4c0,23.4-18.2,34-35,34c-20.4,0-33.4-12.6-36.7-35H259V348.8z M297.8,334.8
		l0.1,4.9c0.9,26.6,14.7,26.6,19.9,26.6c2.9,0,17.5-0.9,17.5-16.5c0-12-3.2-15-32.4-15H297.8z M302.5,286.4l1.4,0.1
		c2.6,0.3,5.2,0.4,7.8,0.4c20.5,0,20.5-7.9,20.5-10.8c0-11.6-11.4-12.3-13.7-12.3c-4.9,0-8.4,1.2-10.8,3.8
		C304.1,271.1,302.3,277.6,302.5,286.4z M499.7,415.1h-58.8V300h-44.5v-50.1l12.3,0.3c25.6,0,37.3-8.1,40.2-27.7l1.2-7.5h49.8v200.3
		H499.7z M458.5,397.6h23.7V232.3h-17.6c-6.1,22-23,33.8-50.7,35.1v15h44.6V397.6z M488,132.8c-18.9,0-34.2-15.3-34.2-34.2V34.4
		c0-18.9,15.3-34.2,34.2-34.2s34.2,15.3,34.2,34.2v64.2C522.2,117.5,506.8,132.8,488,132.8z M488,17.6c-9.2,0-16.8,7.5-16.8,16.8
		v64.2c0,9.2,7.5,16.8,16.8,16.8c9.2,0,16.8-7.5,16.8-16.8V34.4C504.7,25.1,497.2,17.6,488,17.6z M259.8,132.8
		c-18.9,0-34.2-15.3-34.2-34.2V34.2c0-18.9,15.3-34.2,34.2-34.2s34.2,15.3,34.2,34.2v64.2C294.1,117.3,278.6,132.8,259.8,132.8z
		 M259.8,17.5c-9.2,0-16.8,7.5-16.8,16.8v64.2c0,9.2,7.5,16.8,16.8,16.8c9.2,0,16.8-7.5,16.8-16.8V34.2
		C276.6,25,269.1,17.5,259.8,17.5z"/>
</g>
</svg>
