<?xml version="1.0" encoding="utf-8"?>
<!-- Generator: Adobe Illustrator 18.1.0, SVG Export Plug-In . SVG Version: 6.00 Build 0)  -->
<!DOCTYPE svg PUBLIC "-//W3C//DTD SVG 1.1//EN" "http://www.w3.org/Graphics/SVG/1.1/DTD/svg11.dtd">
<svg version="1.1" id="Layer_1" xmlns="http://www.w3.org/2000/svg" xmlns:xlink="http://www.w3.org/1999/xlink" x="0px" y="0px"
	 viewBox="0 0 412 412" enable-background="new 0 0 412 412" xml:space="preserve">
<g>
	<g>
		<g>
			<path d="M267.2,412c-53.9,0-102.7-19.1-137.4-53.9c-22.4-22.4-38.5-52.9-45.9-86.4h-48V222h40.9c-0.5-4.6-0.8-8.1-0.8-11.2
				c0-5.8,0.4-12.4,1.3-19.4H35.9v-48.9h48.9c8.9-33.6,25.1-62.8,47.2-84.9C169.1,20.5,220.5,0,276.8,0C322.3,0,351,11.5,371,21.5
				l5.1,2.5l-19,58.9l-6.9-3.6c-22-11.5-46.2-17.1-74.1-17.1c-34,0-63.9,11.7-86.6,33.8c-13.2,13.2-22.6,29.5-26.9,46.6h183.2v48.9
				H153.1c-0.5,5.8-0.9,11.2-0.9,14.9c0,4.9,0,9.8,0.3,15.7h193.3v49.6H162.4c5.2,16.4,13.9,31.2,24.9,42.2
				c24.5,23.8,51.9,34.4,88.8,34.4c42,0,72.4-14.2,80.7-18.6l7.8-4.1l11.5,58.4l-3.7,2.4C353.5,398.7,312.6,412,267.2,412z
				 M49.1,258.4h45.6l1,5.4c6.3,33,21.7,63.2,43.4,84.9c32.2,32.3,77.7,50,128.1,50c42,0,77.6-11.9,94.2-21.2l-6.4-32.4
				c-14.4,6.3-42.8,16.3-79,16.3c-40.1,0-71.2-12.2-98.1-38.3c-14.8-14.8-25.4-34.3-30.7-56.7l-2-8.2h187.2v-23.1H140.2l-0.5-6.1
				c-0.8-9.1-0.8-16-0.8-22.8c0-5.3,0.8-13.7,1.5-22.1l0.6-6h191.5v-22.4H146.7l1.2-7.7c3.6-22.5,15.1-44.3,32.3-61.6
				C205.5,62,238.6,49,276.1,49c27.1,0,51.2,5,73.2,15.1L360,30.8c-18.4-8.7-44.2-17.6-83.2-17.6c-52.8,0-100.9,19.1-135.5,53.8
				c-21.5,21.5-37,50.4-45,83.7l-1.2,5.1H49.1v22.4h43.4l-1.2,7.6c-1.4,9.2-2.1,17.9-2.1,25c0,2.9,0.3,6.1,0.8,10.2l1.4,14.2H49.1
				V258.4z"/>
		</g>
	</g>
</g>
</svg>
