<?xml version="1.0" encoding="utf-8"?>
<!-- Generator: Adobe Illustrator 18.1.0, SVG Export Plug-In . SVG Version: 6.00 Build 0)  -->
<!DOCTYPE svg PUBLIC "-//W3C//DTD SVG 1.1//EN" "http://www.w3.org/Graphics/SVG/1.1/DTD/svg11.dtd">
<svg version="1.1" id="Layer_1" xmlns="http://www.w3.org/2000/svg" xmlns:xlink="http://www.w3.org/1999/xlink" x="0px" y="0px"
	 viewBox="0 0 841.9 595.3" enable-background="new 0 0 841.9 595.3" xml:space="preserve">
<g>
	<g>
		<g>
			<path fill="#B9C1D0" d="M509.4,595.3c-77.9,0-148.4-27.6-198.5-77.9c-32.4-32.4-55.6-76.4-66.3-124.8h-69.4v-71.8h59.1
				c-0.7-6.6-1.2-11.7-1.2-16.2c0-8.4,0.6-17.9,1.9-28h-59.8v-70.7h70.7c12.9-48.5,36.3-90.7,68.2-122.7C367.6,29.6,441.9,0,523.2,0
				C589,0,630.4,16.6,659.3,31.1l7.4,3.6l-27.5,85.1l-10-5.2C597.5,98,562.5,89.9,522.2,89.9c-49.1,0-92.3,16.9-125.1,48.8
				c-19.1,19.1-32.7,42.6-38.9,67.3h264.7v70.7H344.5c-0.7,8.4-1.3,16.2-1.3,21.5c0,7.1,0,14.2,0.4,22.7h279.3v71.7h-265
				c7.5,23.7,20.1,45.1,36,61c35.4,34.4,75,49.7,128.3,49.7c60.7,0,104.6-20.5,116.6-26.9l11.3-5.9l16.6,84.4l-5.3,3.5
				C634.1,576.1,575,595.3,509.4,595.3z M194.2,373.4h65.9l1.4,7.8c9.1,47.7,31.4,91.3,62.7,122.7c46.5,46.7,112.3,72.2,185.1,72.2
				c60.7,0,112.1-17.2,136.1-30.6l-9.2-46.8c-20.8,9.1-61.8,23.6-114.1,23.6c-57.9,0-102.9-17.6-141.7-55.3
				c-21.4-21.4-36.7-49.6-44.4-81.9l-2.9-11.8h270.5v-33.4H325.9l-0.7-8.8c-1.2-13.1-1.2-23.1-1.2-32.9c0-7.7,1.2-19.8,2.2-31.9
				l0.9-8.7h276.7V225H335.3l1.7-11.1c5.2-32.5,21.8-64,46.7-89c36.6-35.3,84.4-54,138.6-54c39.2,0,74,7.2,105.8,21.8l15.5-48.1
				c-26.6-12.6-63.9-25.4-120.2-25.4c-76.3,0-145.8,27.6-195.8,77.7c-31.1,31.1-53.5,72.8-65,120.9l-1.7,7.4h-66.5v32.4H257l-1.7,11
				c-2,13.3-3,25.9-3,36.1c0,4.2,0.4,8.8,1.2,14.7l2,20.5h-61.1V373.4z"/>
		</g>
	</g>
</g>
</svg>
