<?xml version="1.0" encoding="utf-8"?>
<!-- Generator: Adobe Illustrator 18.1.0, SVG Export Plug-In . SVG Version: 6.00 Build 0)  -->
<!DOCTYPE svg PUBLIC "-//W3C//DTD SVG 1.1//EN" "http://www.w3.org/Graphics/SVG/1.1/DTD/svg11.dtd">
<svg version="1.1" id="Layer_1" xmlns="http://www.w3.org/2000/svg" xmlns:xlink="http://www.w3.org/1999/xlink" x="0px" y="0px"
	 viewBox="0 0 841.9 595.3" enable-background="new 0 0 841.9 595.3" xml:space="preserve">
<g>
	<g>
		<path fill="#B9C1D0" d="M420.9,332.2"/>
	</g>
	<g>
		<path fill="#B9C1D0" d="M425.6,341.6H290.5c-13.9,0-25-11.3-25-25V25c0-13.7,11.3-25,25-25h260.9c13.9,0,25,11.3,25,25v291.4
			c0,13.7-11.3,25-25,25L425.6,341.6z M290.5,18.8c-3.5,0-6.4,2.7-6.4,6.4v291.4c0,3.5,2.9,6.4,6.4,6.4l260.9-0.1
			c3.5,0,6.4-2.7,6.4-6.4V25c0-3.5-2.9-6.4-6.4-6.4H290.5V18.8z"/>
	</g>
	<g>
		<g>
			<path fill="#B9C1D0" d="M413.7,195.8h-37.6V69.9l4.6-0.9c9.8-1.7,22.3-2.5,36.8-2.5c17.5,0,30.5,3.5,39.4,10.7
				c9.2,7.2,14.6,18.8,14.6,31.5c0,12.9-4.5,24.1-12.6,31.9c-9.7,9.1-24.1,13.9-42,13.9c-1.2,0-2.3,0-3.5,0v41.2H413.7z
				 M387.4,184.5h15v-42.6l6.4,0.9c2.3,0.3,5.1,0.4,8.4,0.4c14.9,0,26.7-3.8,34.2-10.8c5.9-5.6,9.1-13.9,9.1-23.7
				c0-9.2-3.8-17.5-10.4-22.7c-6.9-5.5-17.5-8.2-32.4-8.2c-11.7,0-21.8,0.6-30.3,1.7V184.5z M416.9,134.1c-4.6,0-7.7-0.3-10.1-0.9
				l-4.3-1V88.9l4.2-1.2c1.7-0.4,5.6-1.2,12.4-1.2c16.2,0,26.3,8.7,26.3,22.8C445.4,124.4,434.2,134.1,416.9,134.1z M413.7,122.8
				c5.8,0.1,20.5,0.6,20.5-13.4c0-7.7-5.1-11.6-15.2-11.6c-2,0-3.9,0.1-5.3,0.3V122.8z"/>
		</g>
	</g>
	<g>
		<g>
			<path fill="#B9C1D0" d="M366.3,290.3h-45.7v-54.2h45.7V290.3z M331.9,279h23.3v-31.6h-23.3V279z"/>
		</g>
		<g>
			<path fill="#B9C1D0" d="M400.7,290.3h-45.7v-54.2h45.7V290.3z M366.3,279h23.3v-31.6h-23.3V279z"/>
		</g>
		<g>
			<path fill="#B9C1D0" d="M452.4,290.3h-45.7v-54.2h45.7V290.3z M417.9,279h23.3v-31.6h-23.3V279z"/>
		</g>
		<g>
			<path fill="#B9C1D0" d="M486.8,290.3h-45.7v-54.2h45.7V290.3z M452.4,279h23.3v-31.6h-23.3V279z"/>
		</g>
		<g>
			<path fill="#B9C1D0" d="M521.2,290.3h-45.7v-54.2h45.7V290.3z M486.8,279h23.3v-31.6h-23.3V279z"/>
		</g>
	</g>
	<g>
		<path fill="#B9C1D0" d="M456.3,595.3h-70.8l-0.1-272.6h70.8L456.3,595.3z M404.3,576.5h33.4l-0.1-235.2h-33.4L404.3,576.5z"/>
	</g>
</g>
</svg>
