<?xml version="1.0" encoding="utf-8"?>
<!-- Generator: Adobe Illustrator 18.1.0, SVG Export Plug-In . SVG Version: 6.00 Build 0)  -->
<!DOCTYPE svg PUBLIC "-//W3C//DTD SVG 1.1//EN" "http://www.w3.org/Graphics/SVG/1.1/DTD/svg11.dtd">
<svg version="1.1" id="Layer_1" xmlns="http://www.w3.org/2000/svg" xmlns:xlink="http://www.w3.org/1999/xlink" x="0px" y="0px"
	 viewBox="0 0 412 412" enable-background="new 0 0 412 412" xml:space="preserve">
<g>
	<g>
		<path d="M206,229.9"/>
	</g>
	<g>
		<path d="M209.2,236.4h-93.5c-9.6,0-17.3-7.8-17.3-17.3V17.3c0-9.5,7.8-17.3,17.3-17.3h180.6c9.6,0,17.3,7.8,17.3,17.3V219
			c0,9.5-7.8,17.3-17.3,17.3L209.2,236.4z M115.7,13c-2.4,0-4.4,1.9-4.4,4.4v201.7c0,2.4,2,4.4,4.4,4.4l180.6-0.1
			c2.4,0,4.4-1.9,4.4-4.4V17.3c0-2.4-2-4.4-4.4-4.4H115.7z"/>
	</g>
	<g>
		<g>
			<path d="M201,135.5h-26V48.4l3.2-0.6c6.8-1.2,15.4-1.7,25.5-1.7c12.1,0,21.1,2.4,27.3,7.4c6.4,5,10.1,13,10.1,21.8
				c0,8.9-3.1,16.7-8.7,22.1c-6.7,6.3-16.7,9.6-29.1,9.6c-0.8,0-1.6,0-2.4,0V135.5z M182.8,127.7h10.4V98.2l4.4,0.6
				c1.6,0.2,3.5,0.3,5.8,0.3c10.3,0,18.5-2.6,23.7-7.5c4.1-3.9,6.3-9.6,6.3-16.4c0-6.4-2.6-12.1-7.2-15.7
				c-4.8-3.8-12.1-5.7-22.4-5.7c-8.1,0-15.1,0.4-21,1.2V127.7z M203.2,92.8c-3.2,0-5.3-0.2-7-0.6l-3-0.7v-30l2.9-0.8
				c1.2-0.3,3.9-0.8,8.6-0.8c11.2,0,18.2,6,18.2,15.8C222.9,86.1,215.2,92.8,203.2,92.8z M201,85c4,0.1,14.2,0.4,14.2-9.3
				c0-5.3-3.5-8-10.5-8c-1.4,0-2.7,0.1-3.7,0.2V85z"/>
		</g>
	</g>
	<g>
		<g>
			<path d="M168.2,200.9h-31.6v-37.5h31.6V200.9z M144.4,193.1h16.1v-21.9h-16.1V193.1z"/>
		</g>
		<g>
			<path d="M192,200.9h-31.6v-37.5H192V200.9z M168.2,193.1h16.1v-21.9h-16.1V193.1z"/>
		</g>
		<g>
			<path d="M227.8,200.9h-31.6v-37.5h31.6V200.9z M203.9,193.1H220v-21.9h-16.1V193.1z"/>
		</g>
		<g>
			<path d="M251.6,200.9H220v-37.5h31.6V200.9z M227.8,193.1h16.1v-21.9h-16.1V193.1z"/>
		</g>
		<g>
			<path d="M275.4,200.9h-31.6v-37.5h31.6V200.9z M251.6,193.1h16.1v-21.9h-16.1V193.1z"/>
		</g>
	</g>
	<g>
		<path d="M230.5,412h-49l-0.1-188.7h49L230.5,412z M194.5,399h23.1l-0.1-162.8h-23.1L194.5,399z"/>
	</g>
</g>
</svg>
