<?xml version="1.0" encoding="utf-8"?>
<!-- Generator: Adobe Illustrator 18.1.0, SVG Export Plug-In . SVG Version: 6.00 Build 0)  -->
<!DOCTYPE svg PUBLIC "-//W3C//DTD SVG 1.1//EN" "http://www.w3.org/Graphics/SVG/1.1/DTD/svg11.dtd">
<svg version="1.1" id="Layer_1" xmlns="http://www.w3.org/2000/svg" xmlns:xlink="http://www.w3.org/1999/xlink" x="0px" y="0px"
	 viewBox="0 0 168.6 205.7" enable-background="new 0 0 168.6 205.7" xml:space="preserve">
<path d="M168.5,131.4c0-29.5,0.1-59,0.1-88.5c-2-10.9-10.8-17.7-22.2-16.9c-10.3,0.7-18.6,9.2-18.9,19.6c-0.2,6-0.1,12,0,18
	c0,2.1-0.5,2.9-2.8,2.6c-5.6-0.6-10.9,0.4-15.4,4c-1.2,1-2,0.6-3-0.2c-4.3-3.4-9.2-4.5-14.5-3.9c-3,0.4-3.5-0.6-3.5-3.4
	c0.1-13-0.4-26,0.2-38.9c0.5-11.8-7.8-22.4-18.6-23c-0.2,0-0.3-0.5-0.5-0.8h-6c-2.8,1.4-6.1,1.1-8.8,3.2C48.2,8.3,45,14.8,45,23
	c0,23,0,45.9,0,68.8c0,1.7,0.2,3.5-0.2,5.5c-2-2.2-3.3-4.3-4.7-6.4c-3.9-5.8-9.3-9.4-16.1-10.8C12.5,77.8,0.8,86.5,0,98.1
	c0.1,0,0.3,5.4,0.3,8.1c0.3,3.3,1.9,6,3.6,8.6c2,3.1,4,6.1,6.1,9.1c6,8.4,10.3,17.2,12.9,27.5c8.1,32.2,40.4,55.5,73.2,54.2
	c35.3-1.4,64.6-25.8,71.5-59.2C168.1,143.9,168.5,132.3,168.5,131.4z M121.9,81.2c3.6-0.1,5.7,2.4,5.7,6.2c0,9.3,0,18.6,0,27.9
	c0,3.8-1.9,6.1-5.7,6c-3.9-0.1-5.4-2.6-5.4-6.3c0.1-4.5,0-9,0-13.5c0-4.7,0.1-9.3,0-14C116.3,83.7,118.3,81.2,121.9,81.2z M88.5,87
	c0-3.6,2.2-5.9,5.5-5.9c3.5,0,5.7,2.3,5.6,6.2c0,4.6,0,9.3,0,14c0,4.6,0,9.3,0,14c0,3.8-1.9,6.1-5.7,6c-3.6-0.1-5.4-2.3-5.4-5.8
	C88.4,106,88.4,96.5,88.5,87z M153.3,137c-0.8,26.5-25,50.2-51.6,53.3c-32.4,3.7-60.5-18.5-65.4-47c-1.6-9.4-5.8-16.7-10.9-24
	c-3.1-4.5-6.2-9-9.1-13.7c-1.8-2.9-1.6-5.9,1.5-7.8c2.7-1.7,5.7-1.3,7.4,1.5c7.2,11.3,15.7,21.8,21.7,33.9c1.7,3.5,4.4,5.5,8.4,4.8
	c3.9-0.6,6.1-3.1,6.5-7.1c0.2-1.5,0.1-3,0.1-4.5c0-16.8,0-33.7,0-50.5c0-16.8,0-33.7,0-50.5c0-1.7,0-3.4,0.3-5
	c0.5-2.8,2.2-4.4,5.1-4.5c3-0.1,4.8,1.4,5.4,4.2c0.4,1.8,0.4,3.6,0.4,5.5c0,29.7,0,59.3,0,89c0,11.8,6.7,20.1,17.6,22
	c5.3,0.9,10.3-0.3,14.7-3.3c1.7-1.2,2.8-1.4,4.8-0.2c15,9.3,32.3-0.1,32.4-17.8c0.2-21.5,0.1-43,0.1-64.5c0-1.3-0.1-2.7,0-4
	c0.3-3.4,2-5.8,5.6-5.7c3.6,0.1,5.3,2.3,5.2,5.9C153.6,77,154.2,107,153.3,137z"/>
</svg>
